<svg width="100" height="100" xmlns="http://www.w3.org/2000/svg" viewBox="0 0 100 100"><defs><clipPath id="clip-path"><path fill="#f15a29" d="M65.51 49a15.64 15.64 0 1 1-15.63-15.62A15.63 15.63 0 0 1 65.51 49z"/></clipPath></defs><path fill="#d4d0cf" d="M18.11 78.69L50 97.32l31.89-18.63V20.74L50 17.45l-31.89 3.29zm49.11-62h.3"/><path fill="#151841" d="M50 100L16 80.14V19.5L50 16l34 3.5v60.64zM19 78.44l31 18.09 31-18.09V22.19L50 19l-31 3.19z"/><path fill="#4751a2" d="M27.38 31.33h45.25v20H27.38z"/><path fill="#151841" d="M73.22 51.93H26.77v-21.2h46.45zM28 50.73h44v-18.8H28zM26.77 61.9h46.1v1.2h-46.1zM26.75 55.75h41.37V59H26.75zM26.77 66.07h46.1v1.2h-46.1zM26.77 70.23h46.1v1.2h-46.1zM26.77 74.4h31.59v1.2H26.77z"/><path fill="#f15a29" d="M62.46 39.17a16.81 16.81 0 0 1-2 8.45 7.58 7.58 0 0 1-2 2.8c-.89.65-2.91.27-4.37 1.46 0 0-2 1.71-3.75 1.61A7 7 0 0 1 47 52c-.84-.81-2.85-1-4.09-1.4-1.46-.54-3.76-5-3.92-5.82l-.39-1.51c-.5-1.18-.62-2.47-1.23-3.66a7.29 7.29 0 0 1-.95-2.1c-.34-1.62-.72-3.28-1-4.9-.51-2.42-1.51-6.35.11-8.39 0 0 1.83-.42 5.1 3 1.57 1.4 3.13 4 5.09 4.79a10.1 10.1 0 0 0 1.07-1.34 2.87 2.87 0 0 0 2 .75c.45 0 .79-.43 1.12-.43s.72.27.84.27c1.18.48 1.11-.54 1.78-.49s.67 1.29 2.13.49l.72-.06c1.8-1.93 5.5-6.89 8.62-6.2 2.79.7-.51 11.53-1.46 14.16"/><path fill="#151841" d="M65.32 26.25c-.56-2.32-3.24-1.45-4.7-.49a18.48 18.48 0 0 0-3.42 3.12c-.44.49-.9 1-1.4 1.57l-.56.64c0-.05-.39.06-.56.06-.39.05-.67.37-1.06.22a2.46 2.46 0 0 1-.57-.49 1 1 0 0 0-1.17 0c-.28.27-.45.49-.9.38a6.92 6.92 0 0 0-1-.38 1.38 1.38 0 0 0-.84.27c-.67.42-1.57-.17-2.07-.54a.37.37 0 0 0-.51.05 7.7 7.7 0 0 1-.84 1.13 11.83 11.83 0 0 1-3.58-3.39 31.93 31.93 0 0 0-3.09-3 6.55 6.55 0 0 0-1.73-1.13 3.62 3.62 0 0 0-1.68-.22c-.51 0-.73.75-.9 1.13a6.54 6.54 0 0 0-.39 2.32 24.41 24.41 0 0 0 .65 4.88c.22 1 .34 2 .56 3a15.62 15.62 0 0 0 .79 3.22 30.14 30.14 0 0 1 1.34 3c.22.75.5 1.51.67 2.26a13.07 13.07 0 0 0 .78 2.26 17.22 17.22 0 0 0 2.7 4.15c1.06 1.13 2.85.91 4.19 1.56a10.16 10.16 0 0 0 4.26 2c1.63.16 3.14-1 4.49-2a33.57 33.57 0 0 1 3.36-.83c1.12-.37 1.74-1.62 2.25-2.53a16.69 16.69 0 0 0 1.79-4.25 20.18 20.18 0 0 0 .53-3.95 6.77 6.77 0 0 1 .14-.79 50.08 50.08 0 0 0 1.85-6.3c.51-2.31 1.13-4.79.62-6.93zm-.55 2.85a31.92 31.92 0 0 1-.67 3.9 55.26 55.26 0 0 1-1.69 5.87 3.31 3.31 0 0 0-.26 1.21 23.08 23.08 0 0 1-.46 3.58A16 16 0 0 1 60 47.84c-.56 1-1.12 2.26-2.4 2.58-.57.17-1.12.22-1.63.33a.27.27 0 0 0-.44-.22 16.05 16.05 0 0 0-1.63 1.18 5.83 5.83 0 0 1-3.53 1.4A5.67 5.67 0 0 1 47.74 52c-.23-.11-.9-.65-1-.7l-1.29-.92c-.23-.16-.45.06-.45.33-.45-.11-.84-.16-1.23-.27a4.25 4.25 0 0 1-2.47-2.1 16.63 16.63 0 0 1-2.29-5c-.17-.59-.39-1.18-.56-1.82a7.9 7.9 0 0 0-1-2.48 8.81 8.81 0 0 1-1-2.91c-.23-1-.45-2-.62-3-.28-1.51-.62-3-.79-4.53a6.32 6.32 0 0 1 .67-4 4 4 0 0 1 1.07.05 4.42 4.42 0 0 1 1.51.91c.78.6 1.45 1.29 2.18 1.94 1.68 1.45 3.42 4.63 5.32 5a6.57 6.57 0 0 0 1.12-1.29 3.65 3.65 0 0 0 1.62.65 1.35 1.35 0 0 0 .9-.22c.5-.27.62-.22 1.11.05a1.24 1.24 0 0 0 1.35-.05c.16-.11.34-.38.56-.38s.44.38.56.43a1.43 1.43 0 0 0 1.29.22c.28-.05.39-.16.67-.22a.94.94 0 0 0 .56-.11c.95-1 1.85-2.1 2.8-3.07a10.61 10.61 0 0 1 3.8-2.85c.9-.38 2.07-.49 2.47.53a6.42 6.42 0 0 1 .17 2.91z"/><path fill="#efa75b" d="M58.54 39.65a1.43 1.43 0 0 0-1.11-1 9.64 9.64 0 0 0-1.29-.05c0-.38.34-1.56-.51-1.45-.44 0-.89 1.29-1.17 1.62-.45.64-.73.48-.79-.27s.28-1.78-.34-1.94c-.45 0-.79.81-.95 1.34-.05.27-.34.49-.23-1.4 0-.48 0-1.77-.27-1.82h-.12c-.79.05-1.34 3.07-1.57 3.93-.16-.86-1.06-4.52-1.73-3.72a4.38 4.38 0 0 0-.12 1.19c0 .26-.05 2.1-.28 1.77-.11-.54-.72-1.62-1.06-1.45-.62.54-.12 1.29-.28 2s-.39.91-.79.22c-.22-.33-.62-1.62-1.06-1.67-.79-.11-.56 1.07-.56 1.45a8.92 8.92 0 0 0-1.29 0 1.52 1.52 0 0 0-1.18 1c-.05.11 0 4.15 3.7 4.2a3.76 3.76 0 0 0 1.57-.26c.34-.11.62-.38.9-.17l3.8.27c.28-.22.56-.38.84-.27a5.16 5.16 0 0 0 1.85.6c1.9 0 3.59-.75 4.15-2.47.18-.09 0-1.49-.11-1.6z"/><path fill="#fff" d="M43.08 40.25a9.41 9.41 0 0 1 3 .11 2.88 2.88 0 0 1 1.4 1.78 5.19 5.19 0 0 1-1 .26 11.78 11.78 0 0 1-1.18.11 2.76 2.76 0 0 1-2.22-2.26zm14.68.32a9.8 9.8 0 0 0-3 0 2.88 2.88 0 0 0-1.51 1.71l.89.33a4 4 0 0 0 1.18.16 2.74 2.74 0 0 0 2.44-2.2zm-4.37 1.62c.17.05.72.26.9.32a4 4 0 0 0 1 .16h.11a2.61 2.61 0 0 0 2.3-2 12 12 0 0 0-2-.17 3.19 3.19 0 0 0-.9.11 2.52 2.52 0 0 0-1.41 1.58z"/><path fill="#f47741" d="M48.4 46a6.87 6.87 0 0 1 .23-2.58s.56-1.83 1.46-2c2.29-.43 2.52 4.63 2.52 4.63-2.7 1.2-4.21-.05-4.21-.05z"/><path fill="#efa75b" d="M56.48 46.65a1.86 1.86 0 0 0-1.34-.75 27.69 27.69 0 0 0-4.71.7 24.55 24.55 0 0 0-4.7-.9c-.51 0-1.24.32-1.4.7-.28.54.05 1.24.34 1.83a6.13 6.13 0 0 0 1.9 2.1 1.82 1.82 0 0 0 1 .32c2.8.05 3-1.61 3-1.56v-.29c.11 0-.23 1.72 2.52 1.72a2.16 2.16 0 0 0 1 0 6.12 6.12 0 0 0 2-2.05c.27-.57.67-1.22.39-1.82z"/><path fill="#151841" d="M48.24 50.81a.24.24 0 0 1-.22-.22.2.2 0 0 1 .22-.22c2-.16 2.18-1.35 2.25-1.4s.11-.22.22-.16a.23.23 0 0 1 .23.21c0 .06 0 1.19 2.13 1.25a.22.22 0 0 1 0 .44 2.81 2.81 0 0 1-2.25-.86.5.5 0 0 1-.11-.22 3.32 3.32 0 0 1-2.47 1.18z"/><path fill="#cf4a27" d="M48.35 46.11c.12-.32 2.25.06 2.25.06s1.85-.43 2.13 0c.05.11-.23.48-.23.48s-.79-.05-1 .11a2.41 2.41 0 0 0-.28 1.25c.06 0-.39.54-.62.54s-.67-.38-.61-.43.01-1.12-.29-1.29-.79.05-1-.06-.35-.66-.35-.66zm4.31.17c.05.11-.22.48-.22.48s-.79 0-.95.11a2.31 2.31 0 0 0-.28 1.25s-.39.53-.62.53-.67-.37-.62-.42a2.16 2.16 0 0 0-.34-1.35c-.17-.16-.79.06-1-.05s-.34-.54-.34-.54"/><path fill="#151841" d="M50.6 48.87c-.28 0-.9-.7-.84-.75a3.79 3.79 0 0 0-.23-1.12h-.39c-.23 0-.45.05-.56 0a1.21 1.21 0 0 1-.45-.65.18.18 0 0 1 .12-.26.2.2 0 0 1 .28.11.7.7 0 0 0 .27.43h.34c.28 0 .51-.06.68.1.34.27.39 1.19.39 1.25v.22a1.26 1.26 0 0 0 .39.26c.12 0 .28-.26.4-.37a2.66 2.66 0 0 1 0-.54c.11-.6.28-.75.34-.8s.67-.17 1-.17c.05-.11.12-.16.12-.22s0-.16.11-.22.23 0 .28.06.17.26-.28.75c-.05 0-.11.11-.17 0a2.81 2.81 0 0 0-.78 0 2.35 2.35 0 0 0-.23 1v.11c-.02.16-.46.75-.79.81z"/><path fill="#fff" d="M38.33 39.28c1-.86 1.51-2.74 1.73-4.25-.05.22 1.63.26 2.58-.75.67-.7.27-1.25-.12-2.1a19.25 19.25 0 0 0-4.59-5.55c-.45-.43-.9-1.51-1.68-1.24-.62.22-.56 2-.45 2.53.68 4.63 2.53 11.36 2.53 11.36zm23.24-.49a7.73 7.73 0 0 1-2-4.09c0 .22-1.63.22-2.53-.81-.61-.7-.22-1.18.23-1.93a21.25 21.25 0 0 1 4.82-5.07c.5-.37 1-.91 1.73-.59s.45 1.45.34 1.94a96.67 96.67 0 0 1-2.59 10.55z"/><path fill="#151841" d="M55.84 41.14c0-.68-.27-1.23-.6-1.23s-.6.55-.6 1.23.27 1.24.6 1.24.6-.56.6-1.24zM46.05 41.14c0-.68-.27-1.23-.6-1.23s-.6.55-.6 1.23.27 1.24.6 1.24.6-.56.6-1.24z"/><path fill="#151841" d="M53 42.43h-.1a.35.35 0 0 1-.24-.43 3.66 3.66 0 0 1 .7-1.13 3.72 3.72 0 0 1 1.74-1.16 5.14 5.14 0 0 1 1.84-.28 2.58 2.58 0 0 1 .53.08 2.11 2.11 0 0 0 .35 0 .35.35 0 1 1 0 .7 2.42 2.42 0 0 1-.47-.07 1.86 1.86 0 0 0-.38-.06 4.9 4.9 0 0 0-1.61.23 3.21 3.21 0 0 0-1.43 1 3.34 3.34 0 0 0-.57.87.34.34 0 0 1-.36.25zM47.86 42.43a.36.36 0 0 1-.34-.26 2.91 2.91 0 0 0-.52-.87 3.21 3.21 0 0 0-1.43-1 4.9 4.9 0 0 0-1.61-.23l-.38.06a2.65 2.65 0 0 1-.48.07.39.39 0 0 1-.36-.34.35.35 0 0 1 .35-.36 2.15 2.15 0 0 0 .34 0 2.43 2.43 0 0 1 .53-.08 5.11 5.11 0 0 1 1.84.28 3.72 3.72 0 0 1 1.74 1.16 3.48 3.48 0 0 1 .7 1.13.34.34 0 0 1-.23.43z"/><path fill="#f15a29" d="M65.51 49a15.64 15.64 0 1 1-15.63-15.62A15.63 15.63 0 0 1 65.51 49z"/><g clip-path="url(#clip-path)"><path fill="#efa75b" d="M62.36 42.85a5.73 5.73 0 0 0-4.45-4.08c-1.78-.44-3.58 0-5.15-.21.21-1.5 1.36-6.23-2-5.79-1.78 0-3.58 5.14-4.71 6.46-1.77 2.59-2.88 1.94-3.14-1.06-.46-3 1.11-7.09-1.36-7.73-1.77-.21-3.14 3.21-3.78 5.35-.21 1.06-1.36 1.94-.9-5.58 0-1.94 0-7.09-1.11-7.3h-.46c-3.14.21-5.35 12.26-6.25 15.7-.67-3.44-4.25-18-6.93-14.84-.66 1.94-.2 2.79-.46 4.73 0 1.06-.2 8.38-1.11 7.08-.46-2.14-2.88-6.46-4.24-5.79-2.47 2.15-.46 5.15-1.11 8.17-.46 3-1.57 3.65-3.14.88-.9-1.3-2.47-6.46-4.24-6.67-3.15-.44-2.25 4.29-2.25 5.83-1.57 0-3.35-.48-5.15-.25a6.12 6.12 0 0 0-4.7 3.88c-.21.44 0 16.55 14.76 16.78a14.69 14.69 0 0 0 6.26-1.07c1.36-.43 2.47-1.5 3.57-.64l15.19 1.06c1.11-.88 2.24-1.5 3.34-1.06 2 .87 4.92 2.37 7.39 2.37 7.59 0 14.31-3 16.55-9.87.71-.32-.19-5.91-.42-6.35z"/><path fill="#fff" d="M40.33 52.42c2.86-5.73 6.82-8.58 13.38-7.71a37 37 0 0 1 4.29.89c-.63 2.92-1.54 5.83-4.14 7.59a10.87 10.87 0 0 1-8.86 1.1 23.83 23.83 0 0 1-4.63-2"/><path fill="#151841" d="M47.72 55.21A14.4 14.4 0 0 1 40 53.09l-.37-.26.15-.44c2.75-7.81 8.93-10.22 18.9-7.37l.51.14-.09.53c-.85 5.23-3.86 7.53-6.23 8.54a13 13 0 0 1-5.15.98zm-6.67-2.86a13.76 13.76 0 0 0 11.33.78A9.15 9.15 0 0 0 57.8 46c-8.8-2.37-14.2-.36-16.75 6.35z"/><path fill="#151841" d="M50.93 47.93c-.18-2.69-.84-3.55-1.88-3.48s-2 1-1.87 3.73 1.16 4.81 2.2 4.74 1.73-2.3 1.55-4.99z"/><path fill="#fff" d="M49.19 47c-.06-.94-.29-1.24-.65-1.21s-.72.36-.65 1.29.4 1.68.76 1.65.6-.73.54-1.73z"/></g><path fill="#4751a2" d="M53.56 74.91c0-1.21-1.65-2.19-3.68-2.19-2 0-3.69 1-3.69 2.19v19.71c0 1.22 1.65 2.2 3.69 2.2 2 0 3.68-1 3.68-2.2V74.91z"/><path fill="#151841" d="M49.88 97.42c-2.41 0-4.29-1.23-4.29-2.8V74.91A2.45 2.45 0 0 1 47 72.85a5.76 5.76 0 0 1 2.91-.73 5.15 5.15 0 0 1 3.59 1.25 2.18 2.18 0 0 1 .69 1.54v19.71c-.03 1.57-1.91 2.8-4.31 2.8zm0-24.1a4.54 4.54 0 0 0-2.29.56 1.34 1.34 0 0 0-.79 1v19.74c0 .76 1.27 1.6 3.09 1.6s3.11-.84 3.11-1.6V74.91a1 1 0 0 0-.34-.69 4 4 0 0 0-2.74-.9z"/><path fill="#d4d0cf" d="M52 67.86c0-.36-1-.66-2.19-.66-1.21 0-2.19.3-2.19.66v5.89c0 .36 1 .65 2.19.65 1.21 0 2.19-.29 2.19-.65z"/><path fill="#151841" d="M49.81 75c-.65 0-2.79-.09-2.79-1.25v-5.89a.81.81 0 0 1 .27-.61 4.23 4.23 0 0 1 2.52-.65c.66 0 2.79.09 2.79 1.26v5.89c0 1.16-2.14 1.25-2.79 1.25zm-1.59-1.44a4.42 4.42 0 0 0 1.59.24 4.37 4.37 0 0 0 1.59-.24v-5.51a4.1 4.1 0 0 0-1.59-.25 4.14 4.14 0 0 0-1.59.25zm0-5.7z"/><path fill="#fff" d="M49.41 30.51A18.5 18.5 0 1 0 67.91 49a18.5 18.5 0 0 0-18.5-18.49zm0 33.69A15.19 15.19 0 1 1 64.6 49a15.2 15.2 0 0 1-15.19 15.2z"/><path fill="#151841" d="M49.41 68.11A19.1 19.1 0 1 1 68.51 49a19.12 19.12 0 0 1-19.1 19.11zm0-37A17.9 17.9 0 1 0 67.31 49a17.92 17.92 0 0 0-17.9-17.89zm0 33.69A15.79 15.79 0 1 1 65.2 49a15.81 15.81 0 0 1-15.79 15.8zm0-30.38A14.59 14.59 0 1 0 64 49a14.61 14.61 0 0 0-14.59-14.58z"/></svg>
