<svg width="100" height="100" viewBox="0 0 100 100" xmlns="http://www.w3.org/2000/svg"><path fill="#d4d0cf" d="M18.11 78.69L50 97.32l31.89-18.63V20.74L50 17.45l-31.89 3.29zm49.11-62h.3"/><path fill="#fff" d="M18.11 43.08h63.78V20.74L50 17.45l-31.89 3.29zm49.11-26.4h.3"/><circle fill="#d4d0cf" cx="19.13" cy="40.43" r="1.02"/><circle fill="#d4d0cf" cx="22.71" cy="40.43" r="1.02"/><circle fill="#d4d0cf" cx="26.29" cy="40.43" r="1.02"/><circle fill="#d4d0cf" cx="29.88" cy="40.43" r="1.02"/><circle fill="#d4d0cf" cx="33.46" cy="40.43" r="1.02"/><circle fill="#d4d0cf" cx="37.04" cy="40.43" r="1.02"/><circle fill="#d4d0cf" cx="40.62" cy="40.43" r="1.02"/><circle fill="#d4d0cf" cx="44.21" cy="40.43" r="1.02"/><circle fill="#d4d0cf" cx="47.79" cy="40.43" r="1.02"/><circle fill="#d4d0cf" cx="51.37" cy="40.43" r="1.02"/><circle fill="#d4d0cf" cx="54.95" cy="40.43" r="1.02"/><circle fill="#d4d0cf" cx="58.54" cy="40.43" r="1.02"/><circle fill="#d4d0cf" cx="62.12" cy="40.43" r="1.02"/><circle fill="#d4d0cf" cx="65.7" cy="40.43" r="1.02"/><circle fill="#d4d0cf" cx="69.28" cy="40.43" r="1.02"/><circle fill="#d4d0cf" cx="72.87" cy="40.43" r="1.02"/><circle fill="#d4d0cf" cx="76.45" cy="40.43" r="1.02"/><circle fill="#d4d0cf" cx="80.03" cy="40.43" r="1.02"/><circle fill="#d4d0cf" cx="19.13" cy="36.95" r="1.02"/><circle fill="#d4d0cf" cx="22.71" cy="36.95" r="1.02"/><circle fill="#d4d0cf" cx="26.29" cy="36.95" r="1.02"/><circle fill="#d4d0cf" cx="29.88" cy="36.95" r="1.02"/><circle fill="#d4d0cf" cx="33.46" cy="36.95" r="1.02"/><circle fill="#d4d0cf" cx="37.04" cy="36.95" r="1.02"/><circle fill="#d4d0cf" cx="40.62" cy="36.95" r="1.02"/><circle fill="#d4d0cf" cx="44.21" cy="36.95" r="1.02"/><circle fill="#d4d0cf" cx="47.79" cy="36.95" r="1.02"/><circle fill="#d4d0cf" cx="51.37" cy="36.95" r="1.02"/><circle fill="#d4d0cf" cx="54.95" cy="36.95" r="1.02"/><circle fill="#d4d0cf" cx="58.54" cy="36.95" r="1.02"/><circle fill="#d4d0cf" cx="62.12" cy="36.95" r="1.02"/><circle fill="#d4d0cf" cx="65.7" cy="36.95" r="1.02"/><circle fill="#d4d0cf" cx="69.28" cy="36.95" r="1.02"/><circle fill="#d4d0cf" cx="72.87" cy="36.95" r="1.02"/><circle fill="#d4d0cf" cx="76.45" cy="36.95" r="1.02"/><circle fill="#d4d0cf" cx="80.03" cy="36.95" r="1.02"/><circle fill="#d4d0cf" cx="19.13" cy="33.47" r="1.02"/><circle fill="#d4d0cf" cx="22.71" cy="33.47" r="1.02"/><circle fill="#d4d0cf" cx="26.29" cy="33.47" r="1.02"/><circle fill="#d4d0cf" cx="29.88" cy="33.47" r="1.02"/><circle fill="#d4d0cf" cx="33.46" cy="33.47" r="1.02"/><circle fill="#d4d0cf" cx="65.7" cy="33.47" r="1.02"/><circle fill="#d4d0cf" cx="69.28" cy="33.47" r="1.02"/><circle fill="#d4d0cf" cx="72.87" cy="33.47" r="1.02"/><circle fill="#d4d0cf" cx="76.45" cy="33.47" r="1.02"/><circle fill="#d4d0cf" cx="80.03" cy="33.47" r="1.02"/><circle fill="#d4d0cf" cx="19.13" cy="29.98" r="1.02"/><circle fill="#d4d0cf" cx="22.71" cy="29.98" r="1.02"/><circle fill="#d4d0cf" cx="26.29" cy="29.98" r="1.02"/><circle fill="#d4d0cf" cx="29.88" cy="29.98" r="1.02"/><circle fill="#d4d0cf" cx="33.46" cy="29.98" r="1.02"/><circle fill="#d4d0cf" cx="65.7" cy="29.98" r="1.02"/><circle fill="#d4d0cf" cx="69.28" cy="29.98" r="1.02"/><circle fill="#d4d0cf" cx="72.87" cy="29.98" r="1.02"/><circle fill="#d4d0cf" cx="76.45" cy="29.98" r="1.02"/><circle fill="#d4d0cf" cx="80.03" cy="29.98" r="1.02"/><circle fill="#d4d0cf" cx="19.13" cy="26.5" r="1.02"/><circle fill="#d4d0cf" cx="22.71" cy="26.5" r="1.02"/><circle fill="#d4d0cf" cx="26.29" cy="26.5" r="1.02"/><circle fill="#d4d0cf" cx="29.88" cy="26.5" r="1.02"/><circle fill="#d4d0cf" cx="33.46" cy="26.5" r="1.02"/><circle fill="#d4d0cf" cx="37.04" cy="26.5" r="1.02"/><circle fill="#d4d0cf" cx="40.62" cy="26.5" r="1.02"/><circle fill="#d4d0cf" cx="44.21" cy="26.5" r="1.02"/><circle fill="#d4d0cf" cx="47.79" cy="26.5" r="1.02"/><circle fill="#d4d0cf" cx="51.37" cy="26.5" r="1.02"/><circle fill="#d4d0cf" cx="54.95" cy="26.5" r="1.02"/><circle fill="#d4d0cf" cx="58.54" cy="26.5" r="1.02"/><circle fill="#d4d0cf" cx="62.12" cy="26.5" r="1.02"/><circle fill="#d4d0cf" cx="65.7" cy="26.5" r="1.02"/><circle fill="#d4d0cf" cx="69.28" cy="26.5" r="1.02"/><circle fill="#d4d0cf" cx="72.87" cy="26.5" r="1.02"/><circle fill="#d4d0cf" cx="76.45" cy="26.5" r="1.02"/><circle fill="#d4d0cf" cx="80.03" cy="26.5" r="1.02"/><circle fill="#d4d0cf" cx="19.13" cy="23.01" r="1.02"/><circle fill="#d4d0cf" cx="22.71" cy="23.01" r="1.02"/><circle fill="#d4d0cf" cx="26.29" cy="23.01" r="1.02"/><circle fill="#d4d0cf" cx="29.88" cy="23.01" r="1.02"/><circle fill="#d4d0cf" cx="33.46" cy="23.01" r="1.02"/><circle fill="#d4d0cf" cx="37.04" cy="23.01" r="1.02"/><circle fill="#d4d0cf" cx="40.62" cy="23.01" r="1.02"/><circle fill="#d4d0cf" cx="44.21" cy="23.01" r="1.02"/><circle fill="#d4d0cf" cx="47.79" cy="23.01" r="1.02"/><circle fill="#d4d0cf" cx="51.37" cy="23.01" r="1.02"/><circle fill="#d4d0cf" cx="54.95" cy="23.01" r="1.02"/><circle fill="#d4d0cf" cx="58.54" cy="23.01" r="1.02"/><circle fill="#d4d0cf" cx="62.12" cy="23.01" r="1.02"/><circle fill="#d4d0cf" cx="65.7" cy="23.01" r="1.02"/><circle fill="#d4d0cf" cx="69.28" cy="23.01" r="1.02"/><circle fill="#d4d0cf" cx="72.87" cy="23.01" r="1.02"/><circle fill="#d4d0cf" cx="76.45" cy="23.01" r="1.02"/><circle fill="#d4d0cf" cx="80.03" cy="23.01" r="1.02"/><circle fill="#d4d0cf" cx="26.29" cy="19.53" r="1.02"/><circle fill="#d4d0cf" cx="29.88" cy="19.53" r="1.02"/><circle fill="#d4d0cf" cx="33.46" cy="19.53" r="1.02"/><circle fill="#d4d0cf" cx="37.04" cy="19.53" r="1.02"/><circle fill="#d4d0cf" cx="40.62" cy="19.53" r="1.02"/><circle fill="#d4d0cf" cx="44.21" cy="19.53" r="1.02"/><circle fill="#d4d0cf" cx="47.79" cy="19.53" r="1.02"/><circle fill="#d4d0cf" cx="51.37" cy="19.53" r="1.02"/><circle fill="#d4d0cf" cx="54.95" cy="19.53" r="1.02"/><circle fill="#d4d0cf" cx="58.54" cy="19.53" r="1.02"/><circle fill="#d4d0cf" cx="62.12" cy="19.53" r="1.02"/><circle fill="#d4d0cf" cx="65.7" cy="19.53" r="1.02"/><circle fill="#d4d0cf" cx="69.28" cy="19.53" r="1.02"/><circle fill="#d4d0cf" cx="72.87" cy="19.53" r="1.02"/><path fill="#a9a09f" d="M18.11 79.77l31.42 17.55 32.36-17.55V67.63H18.11zm49.11-16.2h.3"/><circle fill="#d4d0cf" cx="19.13" cy="70.32" r="1.02"/><circle fill="#d4d0cf" cx="22.71" cy="70.32" r="1.02"/><circle fill="#d4d0cf" cx="26.29" cy="70.32" r="1.02"/><circle fill="#d4d0cf" cx="29.88" cy="70.32" r="1.02"/><circle fill="#d4d0cf" cx="33.46" cy="70.32" r="1.02"/><circle fill="#d4d0cf" cx="37.04" cy="70.32" r="1.02"/><circle fill="#d4d0cf" cx="40.62" cy="70.32" r="1.02"/><circle fill="#d4d0cf" cx="44.21" cy="70.32" r="1.02"/><circle fill="#d4d0cf" cx="47.79" cy="70.32" r="1.02"/><circle fill="#d4d0cf" cx="51.37" cy="70.32" r="1.02"/><circle fill="#d4d0cf" cx="54.95" cy="70.32" r="1.02"/><circle fill="#d4d0cf" cx="58.54" cy="70.32" r="1.02"/><circle fill="#d4d0cf" cx="62.12" cy="70.32" r="1.02"/><circle fill="#d4d0cf" cx="65.7" cy="70.32" r="1.02"/><circle fill="#d4d0cf" cx="69.28" cy="70.32" r="1.02"/><circle fill="#d4d0cf" cx="72.87" cy="70.32" r="1.02"/><circle fill="#d4d0cf" cx="76.45" cy="70.32" r="1.02"/><circle fill="#d4d0cf" cx="80.03" cy="70.32" r="1.02"/><circle fill="#d4d0cf" cx="19.13" cy="73.8" r="1.02"/><circle fill="#d4d0cf" cx="22.71" cy="73.8" r="1.02"/><circle fill="#d4d0cf" cx="26.29" cy="73.8" r="1.02"/><circle fill="#d4d0cf" cx="29.88" cy="73.8" r="1.02"/><circle fill="#d4d0cf" cx="33.46" cy="73.8" r="1.02"/><circle fill="#d4d0cf" cx="37.04" cy="73.8" r="1.02"/><circle fill="#d4d0cf" cx="40.62" cy="73.8" r="1.02"/><circle fill="#d4d0cf" cx="44.21" cy="73.8" r="1.02"/><circle fill="#d4d0cf" cx="47.79" cy="73.8" r="1.02"/><circle fill="#d4d0cf" cx="51.37" cy="73.8" r="1.02"/><circle fill="#d4d0cf" cx="54.95" cy="73.8" r="1.02"/><circle fill="#d4d0cf" cx="58.54" cy="73.8" r="1.02"/><circle fill="#d4d0cf" cx="62.12" cy="73.8" r="1.02"/><circle fill="#d4d0cf" cx="65.7" cy="73.8" r="1.02"/><circle fill="#d4d0cf" cx="69.28" cy="73.8" r="1.02"/><circle fill="#d4d0cf" cx="72.87" cy="73.8" r="1.02"/><circle fill="#d4d0cf" cx="76.45" cy="73.8" r="1.02"/><circle fill="#d4d0cf" cx="80.03" cy="73.8" r="1.02"/><circle fill="#d4d0cf" cx="19.13" cy="77.29" r="1.02"/><circle fill="#d4d0cf" cx="22.71" cy="77.29" r="1.02"/><circle fill="#d4d0cf" cx="26.29" cy="77.29" r="1.02"/><circle fill="#d4d0cf" cx="29.88" cy="77.29" r="1.02"/><circle fill="#d4d0cf" cx="33.46" cy="77.29" r="1.02"/><circle fill="#d4d0cf" cx="65.7" cy="77.29" r="1.02"/><circle fill="#d4d0cf" cx="69.28" cy="77.29" r="1.02"/><circle fill="#d4d0cf" cx="72.87" cy="77.29" r="1.02"/><circle fill="#d4d0cf" cx="76.45" cy="77.29" r="1.02"/><circle fill="#d4d0cf" cx="80.03" cy="77.29" r="1.02"/><circle fill="#d4d0cf" cx="19.13" cy="80.77" r="1.02"/><circle fill="#d4d0cf" cx="22.71" cy="80.77" r="1.02"/><circle fill="#d4d0cf" cx="26.29" cy="80.77" r="1.02"/><circle fill="#d4d0cf" cx="29.88" cy="80.77" r="1.02"/><circle fill="#d4d0cf" cx="33.46" cy="80.77" r="1.02"/><circle fill="#d4d0cf" cx="65.7" cy="80.77" r="1.02"/><circle fill="#d4d0cf" cx="69.28" cy="80.77" r="1.02"/><circle fill="#d4d0cf" cx="72.87" cy="80.77" r="1.02"/><circle fill="#d4d0cf" cx="76.45" cy="80.77" r="1.02"/><circle fill="#d4d0cf" cx="80.03" cy="80.77" r="1.02"/><circle fill="#d4d0cf" cx="26.29" cy="84.26" r="1.02"/><circle fill="#d4d0cf" cx="29.88" cy="84.26" r="1.02"/><circle fill="#d4d0cf" cx="33.46" cy="84.26" r="1.02"/><circle fill="#d4d0cf" cx="37.04" cy="84.26" r="1.02"/><circle fill="#d4d0cf" cx="40.62" cy="84.26" r="1.02"/><circle fill="#d4d0cf" cx="44.21" cy="84.26" r="1.02"/><circle fill="#d4d0cf" cx="47.79" cy="84.26" r="1.02"/><circle fill="#d4d0cf" cx="51.37" cy="84.26" r="1.02"/><circle fill="#d4d0cf" cx="54.95" cy="84.26" r="1.02"/><circle fill="#d4d0cf" cx="58.54" cy="84.26" r="1.02"/><circle fill="#d4d0cf" cx="62.12" cy="84.26" r="1.02"/><circle fill="#d4d0cf" cx="65.7" cy="84.26" r="1.02"/><circle fill="#d4d0cf" cx="69.28" cy="84.26" r="1.02"/><circle fill="#d4d0cf" cx="72.87" cy="84.26" r="1.02"/><circle fill="#d4d0cf" cx="33.46" cy="87.74" r="1.02"/><circle fill="#d4d0cf" cx="37.04" cy="87.74" r="1.02"/><circle fill="#d4d0cf" cx="40.62" cy="87.74" r="1.02"/><circle fill="#d4d0cf" cx="44.21" cy="87.74" r="1.02"/><circle fill="#d4d0cf" cx="47.79" cy="87.74" r="1.02"/><circle fill="#d4d0cf" cx="51.37" cy="87.74" r="1.02"/><circle fill="#d4d0cf" cx="54.95" cy="87.74" r="1.02"/><circle fill="#d4d0cf" cx="58.54" cy="87.74" r="1.02"/><circle fill="#d4d0cf" cx="62.12" cy="87.74" r="1.02"/><circle fill="#d4d0cf" cx="65.7" cy="87.74" r="1.02"/><circle fill="#d4d0cf" cx="37.04" cy="91.22" r="1.02"/><circle fill="#d4d0cf" cx="40.62" cy="91.22" r="1.02"/><circle fill="#d4d0cf" cx="44.21" cy="91.22" r="1.02"/><circle fill="#d4d0cf" cx="47.79" cy="91.22" r="1.02"/><circle fill="#d4d0cf" cx="51.37" cy="91.22" r="1.02"/><circle fill="#d4d0cf" cx="54.95" cy="91.22" r="1.02"/><circle fill="#d4d0cf" cx="58.54" cy="91.22" r="1.02"/><circle fill="#d4d0cf" cx="62.12" cy="91.22" r="1.02"/><path fill="#151841" d="M50 100L16 80.14V19.5L50 16l34 3.5v60.64zM19 78.44l31 18.09 31-18.09V22.19L50 19l-31 3.19z"/><path fill="#151841" d="M41 32.84l-2.78-1v-1l2.78-1v.88l-2 .62 2 .66zm1.82-3.95v1.85a1.48 1.48 0 0 1 1-.41 1.29 1.29 0 0 1 1.36 1.38v2.08h-1v-1.95a.6.6 0 0 0-.65-.67 1 1 0 0 0-.75.43v2.19h-1v-4.9zm4.7 1.44a1.6 1.6 0 0 1 1.62 2.1h-2.37c.11.49.63.69 1.18.69a2.65 2.65 0 0 0 1-.2v.76a3.3 3.3 0 0 1-1.24.21 1.76 1.76 0 0 1-1.94-1.78 1.69 1.69 0 0 1 1.75-1.78zm0 .75a.74.74 0 0 0-.79.72h1.5a.65.65 0 0 0-.68-.72zm5.53 2.07a.62.62 0 0 0 .18 0v.64a1.79 1.79 0 0 1-.54.1.79.79 0 0 1-.74-.38 1.88 1.88 0 0 1-1.21.41 1.06 1.06 0 0 1-1.18-1c0-.85.81-1.12 1.48-1.12a4.17 4.17 0 0 1 .8.09v-.12c0-.33-.27-.56-.79-.56a3.19 3.19 0 0 0-1.2.25v-.84a4.49 4.49 0 0 1 1.31-.23c1 0 1.65.42 1.65 1.52v1.07c0 .12.11.17.24.17zm-2.49-.37c0 .26.23.42.52.42a1.12 1.12 0 0 0 .76-.28v-.52a2.39 2.39 0 0 0-.58-.08c-.35 0-.7.12-.7.46zm6.66-3.89v4.9h-.85v-.49a1.46 1.46 0 0 1-1.22.59 1.79 1.79 0 0 1 0-3.56 1.42 1.42 0 0 1 1.1.46v-1.9zm-1.84 2.26a1 1 0 0 0 0 1.92.94.94 0 0 0 .87-.56v-.8a1 1 0 0 0-.87-.56zm2.74 1.69V32l1.93-.62-1.93-.62v-.88l2.78 1v1zM40.65 56.48l-2.79-1v-1l2.79-1v.88l-1.94.64 1.94.63zm1.87-3.95v1.9a1.42 1.42 0 0 1 1.1-.46 1.79 1.79 0 0 1 0 3.56 1.43 1.43 0 0 1-1.22-.59v.49h-.86v-4.9zm.86 2.26a1 1 0 0 0-.87.56v.8a1 1 0 0 0 .87.56 1 1 0 0 0 0-1.92zm4.18-.79a1.78 1.78 0 1 1-1.85 1.78A1.74 1.74 0 0 1 47.56 54zm0 .87a.91.91 0 1 0 .87.91.83.83 0 0 0-.87-.94zm6.02-2.34v4.9h-.85v-.49a1.44 1.44 0 0 1-1.22.59 1.79 1.79 0 0 1 0-3.56 1.46 1.46 0 0 1 1.11.46v-1.9zm-1.84 2.26a1 1 0 0 0 0 1.92 1 1 0 0 0 .88-.56v-.8a1 1 0 0 0-.88-.56zm5.12-.72h1l-1.49 3.77c-.38.94-.91 1.23-1.45 1.23a2.43 2.43 0 0 1-.52-.07v-.81a1.83 1.83 0 0 0 .4 0c.35 0 .62-.24.8-.73L54 54.07h1l1 2.27zm1.56 2.41v-.87l1.94-.61-1.94-.62v-.88l2.79 1v1zM44 80.4l-2.78-1v-1l2.78-1v.88l-1.94.62 1.94.63zm4.43-3.95v4.9h-.86v-.49a1.4 1.4 0 0 1-1.21.59 1.79 1.79 0 0 1 0-3.56 1.42 1.42 0 0 1 1.1.46v-1.9zm-1.84 2.26a1 1 0 0 0 0 1.92 1 1 0 0 0 .87-.56v-.8a1 1 0 0 0-.87-.56zm3.15-1.28a.55.55 0 1 1 .58-.55.52.52 0 0 1-.58.55zm-.48 3.92V78h1v3.36zM54.52 78l-1.39 3.36h-1L50.72 78h1l.86 2.33.9-2.33zm.54 2.4v-.87L57 78.9l-1.94-.62v-.88l2.79 1v1z"/></svg>
