<svg width="100" height="100" viewBox="0 0 100 100" fill="none" xmlns="http://www.w3.org/2000/svg"><g clip-path="url(#a)" transform="translate(0 -.463)"><path d="M18.11 79.096L50 97.725l31.89-18.63v-57.95L50 17.855l-31.89 3.29v57.95zm49.11-62h.3z" fill="#D4D0CF"/><path d="M18.11 42.014h63.78V20.92L50 17.81 18.11 20.92v21.094zm49.11-24.93h.3z" fill="#fff"/><path d="M19.55 41.02c.563 0 1.02-.457 1.02-1.02s-.457-1.02-1.02-1.02c-.564 0-1.02.457-1.02 1.02s.456 1.02 1.02 1.02zM23.13 41.02c.563 0 1.02-.457 1.02-1.02s-.457-1.02-1.02-1.02-1.02.457-1.02 1.02.457 1.02 1.02 1.02zM26.71 41.02c.563 0 1.02-.457 1.02-1.02s-.457-1.02-1.02-1.02-1.02.457-1.02 1.02.457 1.02 1.02 1.02zM30.3 41.02c.563 0 1.02-.457 1.02-1.02s-.457-1.02-1.02-1.02c-.564 0-1.02.457-1.02 1.02s.456 1.02 1.02 1.02zM33.88 41.02c.563 0 1.02-.457 1.02-1.02s-.457-1.02-1.02-1.02c-.564 0-1.02.457-1.02 1.02s.456 1.02 1.02 1.02zM37.46 41.02c.563 0 1.02-.457 1.02-1.02s-.457-1.02-1.02-1.02-1.02.457-1.02 1.02.457 1.02 1.02 1.02zM41.04 41.02c.563 0 1.02-.457 1.02-1.02s-.457-1.02-1.02-1.02-1.02.457-1.02 1.02.457 1.02 1.02 1.02zM44.63 41.02c.563 0 1.02-.457 1.02-1.02s-.457-1.02-1.02-1.02c-.564 0-1.02.457-1.02 1.02s.456 1.02 1.02 1.02zM48.21 41.02c.563 0 1.02-.457 1.02-1.02s-.457-1.02-1.02-1.02-1.02.457-1.02 1.02.457 1.02 1.02 1.02zM51.79 41.02c.563 0 1.02-.457 1.02-1.02s-.457-1.02-1.02-1.02-1.02.457-1.02 1.02.457 1.02 1.02 1.02zM55.37 41.02c.563 0 1.02-.457 1.02-1.02s-.457-1.02-1.02-1.02-1.02.457-1.02 1.02.457 1.02 1.02 1.02zM58.96 41.02c.563 0 1.02-.457 1.02-1.02s-.457-1.02-1.02-1.02-1.02.457-1.02 1.02.457 1.02 1.02 1.02zM62.54 41.02c.563 0 1.02-.457 1.02-1.02s-.457-1.02-1.02-1.02-1.02.457-1.02 1.02.457 1.02 1.02 1.02zM66.12 41.02c.563 0 1.02-.457 1.02-1.02s-.457-1.02-1.02-1.02-1.02.457-1.02 1.02.457 1.02 1.02 1.02zM69.7 41.02c.563 0 1.02-.457 1.02-1.02s-.457-1.02-1.02-1.02c-.564 0-1.02.457-1.02 1.02s.456 1.02 1.02 1.02zM73.29 41.02c.563 0 1.02-.457 1.02-1.02s-.457-1.02-1.02-1.02-1.02.457-1.02 1.02.457 1.02 1.02 1.02zM76.87 41.02c.563 0 1.02-.457 1.02-1.02s-.457-1.02-1.02-1.02-1.02.457-1.02 1.02.457 1.02 1.02 1.02zM80.45 41.02c.563 0 1.02-.457 1.02-1.02s-.457-1.02-1.02-1.02c-.564 0-1.02.457-1.02 1.02s.456 1.02 1.02 1.02zM19.55 37.54c.563 0 1.02-.457 1.02-1.02s-.457-1.02-1.02-1.02c-.564 0-1.02.457-1.02 1.02s.456 1.02 1.02 1.02zM23.13 37.54c.563 0 1.02-.457 1.02-1.02s-.457-1.02-1.02-1.02-1.02.457-1.02 1.02.457 1.02 1.02 1.02zM26.71 37.54c.563 0 1.02-.457 1.02-1.02s-.457-1.02-1.02-1.02-1.02.457-1.02 1.02.457 1.02 1.02 1.02zM73.29 37.54c.563 0 1.02-.457 1.02-1.02s-.457-1.02-1.02-1.02-1.02.457-1.02 1.02.457 1.02 1.02 1.02zM76.87 37.54c.563 0 1.02-.457 1.02-1.02s-.457-1.02-1.02-1.02-1.02.457-1.02 1.02.457 1.02 1.02 1.02zM80.45 37.54c.563 0 1.02-.457 1.02-1.02s-.457-1.02-1.02-1.02c-.564 0-1.02.457-1.02 1.02s.456 1.02 1.02 1.02zM19.55 34.06c.563 0 1.02-.457 1.02-1.02s-.457-1.02-1.02-1.02c-.564 0-1.02.457-1.02 1.02s.456 1.02 1.02 1.02zM23.13 34.06c.563 0 1.02-.457 1.02-1.02s-.457-1.02-1.02-1.02-1.02.457-1.02 1.02.457 1.02 1.02 1.02zM76.87 34.06c.563 0 1.02-.457 1.02-1.02s-.457-1.02-1.02-1.02-1.02.457-1.02 1.02.457 1.02 1.02 1.02zM80.45 34.06c.563 0 1.02-.457 1.02-1.02s-.457-1.02-1.02-1.02c-.564 0-1.02.457-1.02 1.02s.456 1.02 1.02 1.02zM19.55 30.57c.563 0 1.02-.457 1.02-1.02s-.457-1.02-1.02-1.02c-.564 0-1.02.457-1.02 1.02s.456 1.02 1.02 1.02zM23.13 30.57c.563 0 1.02-.457 1.02-1.02s-.457-1.02-1.02-1.02-1.02.457-1.02 1.02.457 1.02 1.02 1.02zM76.87 30.57c.563 0 1.02-.457 1.02-1.02s-.457-1.02-1.02-1.02-1.02.457-1.02 1.02.457 1.02 1.02 1.02zM80.45 30.57c.563 0 1.02-.457 1.02-1.02s-.457-1.02-1.02-1.02c-.564 0-1.02.457-1.02 1.02s.456 1.02 1.02 1.02zM19.55 27.09c.563 0 1.02-.457 1.02-1.02s-.457-1.02-1.02-1.02c-.564 0-1.02.457-1.02 1.02s.456 1.02 1.02 1.02zM23.13 27.09c.563 0 1.02-.457 1.02-1.02s-.457-1.02-1.02-1.02-1.02.457-1.02 1.02.457 1.02 1.02 1.02zM26.71 27.09c.563 0 1.02-.457 1.02-1.02s-.457-1.02-1.02-1.02-1.02.457-1.02 1.02.457 1.02 1.02 1.02zM73.29 27.09c.563 0 1.02-.457 1.02-1.02s-.457-1.02-1.02-1.02-1.02.457-1.02 1.02.457 1.02 1.02 1.02zM76.87 27.09c.563 0 1.02-.457 1.02-1.02s-.457-1.02-1.02-1.02-1.02.457-1.02 1.02.457 1.02 1.02 1.02zM80.45 27.09c.563 0 1.02-.457 1.02-1.02s-.457-1.02-1.02-1.02c-.564 0-1.02.457-1.02 1.02s.456 1.02 1.02 1.02zM69.7 27.09c.563 0 1.02-.457 1.02-1.02s-.457-1.02-1.02-1.02c-.564 0-1.02.457-1.02 1.02s.456 1.02 1.02 1.02zM51.79 27.09c.564 0 1.02-.457 1.02-1.02s-.456-1.02-1.02-1.02c-.563 0-1.02.457-1.02 1.02s.457 1.02 1.02 1.02zM55.37 27.09c.564 0 1.02-.457 1.02-1.02s-.456-1.02-1.02-1.02c-.563 0-1.02.457-1.02 1.02s.457 1.02 1.02 1.02zM58.95 27.09c.563 0 1.02-.457 1.02-1.02s-.457-1.02-1.02-1.02c-.564 0-1.02.457-1.02 1.02s.456 1.02 1.02 1.02zM41.05 27.09c.563 0 1.02-.457 1.02-1.02s-.457-1.02-1.02-1.02c-.564 0-1.02.457-1.02 1.02s.456 1.02 1.02 1.02zM44.63 27.09c.563 0 1.02-.457 1.02-1.02s-.457-1.02-1.02-1.02c-.564 0-1.02.457-1.02 1.02s.456 1.02 1.02 1.02zM48.21 27.09c.562 0 1.02-.457 1.02-1.02s-.458-1.02-1.02-1.02c-.564 0-1.02.457-1.02 1.02s.456 1.02 1.02 1.02zM30.3 27.09c.563 0 1.02-.457 1.02-1.02s-.457-1.02-1.02-1.02c-.564 0-1.02.457-1.02 1.02s.456 1.02 1.02 1.02zM19.55 23.6c.563 0 1.02-.457 1.02-1.02s-.457-1.02-1.02-1.02c-.564 0-1.02.457-1.02 1.02s.456 1.02 1.02 1.02zM23.13 23.6c.563 0 1.02-.457 1.02-1.02s-.457-1.02-1.02-1.02-1.02.457-1.02 1.02.457 1.02 1.02 1.02zM26.71 23.6c.563 0 1.02-.457 1.02-1.02s-.457-1.02-1.02-1.02-1.02.457-1.02 1.02.457 1.02 1.02 1.02zM30.3 23.6c.563 0 1.02-.457 1.02-1.02s-.457-1.02-1.02-1.02c-.564 0-1.02.457-1.02 1.02s.456 1.02 1.02 1.02zM33.88 23.6c.563 0 1.02-.457 1.02-1.02s-.457-1.02-1.02-1.02c-.564 0-1.02.457-1.02 1.02s.456 1.02 1.02 1.02zM37.46 23.6c.563 0 1.02-.457 1.02-1.02s-.457-1.02-1.02-1.02-1.02.457-1.02 1.02.457 1.02 1.02 1.02zM41.04 23.6c.563 0 1.02-.457 1.02-1.02s-.457-1.02-1.02-1.02-1.02.457-1.02 1.02.457 1.02 1.02 1.02zM44.63 23.6c.563 0 1.02-.457 1.02-1.02s-.457-1.02-1.02-1.02c-.564 0-1.02.457-1.02 1.02s.456 1.02 1.02 1.02zM48.21 23.6c.563 0 1.02-.457 1.02-1.02s-.457-1.02-1.02-1.02-1.02.457-1.02 1.02.457 1.02 1.02 1.02zM51.79 23.6c.563 0 1.02-.457 1.02-1.02s-.457-1.02-1.02-1.02-1.02.457-1.02 1.02.457 1.02 1.02 1.02zM55.37 23.6c.563 0 1.02-.457 1.02-1.02s-.457-1.02-1.02-1.02-1.02.457-1.02 1.02.457 1.02 1.02 1.02zM58.96 23.6c.563 0 1.02-.457 1.02-1.02s-.457-1.02-1.02-1.02-1.02.457-1.02 1.02.457 1.02 1.02 1.02zM62.54 23.6c.563 0 1.02-.457 1.02-1.02s-.457-1.02-1.02-1.02-1.02.457-1.02 1.02.457 1.02 1.02 1.02zM66.12 23.6c.563 0 1.02-.457 1.02-1.02s-.457-1.02-1.02-1.02-1.02.457-1.02 1.02.457 1.02 1.02 1.02zM69.7 23.6c.563 0 1.02-.457 1.02-1.02s-.457-1.02-1.02-1.02c-.564 0-1.02.457-1.02 1.02s.456 1.02 1.02 1.02zM73.29 23.6c.563 0 1.02-.457 1.02-1.02s-.457-1.02-1.02-1.02-1.02.457-1.02 1.02.457 1.02 1.02 1.02zM76.87 23.6c.563 0 1.02-.457 1.02-1.02s-.457-1.02-1.02-1.02-1.02.457-1.02 1.02.457 1.02 1.02 1.02zM80.45 23.6c.563 0 1.02-.457 1.02-1.02s-.457-1.02-1.02-1.02c-.564 0-1.02.457-1.02 1.02s.456 1.02 1.02 1.02zM33.88 20.12c.563 0 1.02-.457 1.02-1.02s-.457-1.02-1.02-1.02c-.564 0-1.02.457-1.02 1.02s.456 1.02 1.02 1.02zM37.46 20.12c.563 0 1.02-.457 1.02-1.02s-.457-1.02-1.02-1.02-1.02.457-1.02 1.02.457 1.02 1.02 1.02zM41.04 20.12c.563 0 1.02-.457 1.02-1.02s-.457-1.02-1.02-1.02-1.02.457-1.02 1.02.457 1.02 1.02 1.02zM44.63 20.12c.563 0 1.02-.457 1.02-1.02s-.457-1.02-1.02-1.02c-.564 0-1.02.457-1.02 1.02s.456 1.02 1.02 1.02zM48.21 20.12c.563 0 1.02-.457 1.02-1.02s-.457-1.02-1.02-1.02-1.02.457-1.02 1.02.457 1.02 1.02 1.02zM51.79 20.12c.563 0 1.02-.457 1.02-1.02s-.457-1.02-1.02-1.02-1.02.457-1.02 1.02.457 1.02 1.02 1.02zM55.37 20.12c.563 0 1.02-.457 1.02-1.02s-.457-1.02-1.02-1.02-1.02.457-1.02 1.02.457 1.02 1.02 1.02zM58.96 20.12c.563 0 1.02-.457 1.02-1.02s-.457-1.02-1.02-1.02-1.02.457-1.02 1.02.457 1.02 1.02 1.02zM62.54 20.12c.563 0 1.02-.457 1.02-1.02s-.457-1.02-1.02-1.02-1.02.457-1.02 1.02.457 1.02 1.02 1.02zM66.12 20.12c.563 0 1.02-.457 1.02-1.02s-.457-1.02-1.02-1.02-1.02.457-1.02 1.02.457 1.02 1.02 1.02z" fill="#D4D0CF"/><path d="M18.11 81.47l31.42 16.256L81.89 81.47V68.065H18.11V81.47z" fill="#A9A09F"/><path d="M19.55 74.524c.564 0 1.02-.457 1.02-1.02 0-.564-.456-1.02-1.02-1.02-.563 0-1.02.456-1.02 1.02 0 .563.457 1.02 1.02 1.02zM23.13 74.524c.564 0 1.02-.457 1.02-1.02 0-.564-.456-1.02-1.02-1.02-.563 0-1.02.456-1.02 1.02 0 .563.457 1.02 1.02 1.02zM26.71 74.524c.564 0 1.02-.457 1.02-1.02 0-.564-.456-1.02-1.02-1.02-.563 0-1.02.456-1.02 1.02 0 .563.457 1.02 1.02 1.02zM30.3 74.524c.564 0 1.02-.457 1.02-1.02 0-.564-.456-1.02-1.02-1.02-.563 0-1.02.456-1.02 1.02 0 .563.457 1.02 1.02 1.02zM33.88 74.524c.564 0 1.02-.457 1.02-1.02 0-.564-.456-1.02-1.02-1.02-.563 0-1.02.456-1.02 1.02 0 .563.457 1.02 1.02 1.02zM37.46 74.524c.564 0 1.02-.457 1.02-1.02 0-.564-.456-1.02-1.02-1.02-.563 0-1.02.456-1.02 1.02 0 .563.457 1.02 1.02 1.02zM41.04 74.524c.564 0 1.02-.457 1.02-1.02 0-.564-.456-1.02-1.02-1.02-.563 0-1.02.456-1.02 1.02 0 .563.457 1.02 1.02 1.02zM55.37 74.524c.564 0 1.02-.457 1.02-1.02 0-.564-.456-1.02-1.02-1.02-.563 0-1.02.456-1.02 1.02 0 .563.457 1.02 1.02 1.02zM58.96 74.524c.564 0 1.02-.457 1.02-1.02 0-.564-.456-1.02-1.02-1.02-.563 0-1.02.456-1.02 1.02 0 .563.457 1.02 1.02 1.02zM62.54 74.524c.564 0 1.02-.457 1.02-1.02 0-.564-.456-1.02-1.02-1.02-.563 0-1.02.456-1.02 1.02 0 .563.457 1.02 1.02 1.02zM66.12 74.524c.564 0 1.02-.457 1.02-1.02 0-.564-.456-1.02-1.02-1.02-.563 0-1.02.456-1.02 1.02 0 .563.457 1.02 1.02 1.02zM69.7 74.524c.563 0 1.02-.457 1.02-1.02 0-.564-.457-1.02-1.02-1.02s-1.02.456-1.02 1.02c0 .563.457 1.02 1.02 1.02zM73.29 74.524c.564 0 1.02-.457 1.02-1.02 0-.564-.456-1.02-1.02-1.02-.563 0-1.02.456-1.02 1.02 0 .563.457 1.02 1.02 1.02zM76.87 74.524c.564 0 1.02-.457 1.02-1.02 0-.564-.456-1.02-1.02-1.02-.563 0-1.02.456-1.02 1.02 0 .563.457 1.02 1.02 1.02zM80.45 74.524c.563 0 1.02-.457 1.02-1.02 0-.564-.457-1.02-1.02-1.02s-1.02.456-1.02 1.02c0 .563.457 1.02 1.02 1.02zM19.55 71.044c.564 0 1.02-.457 1.02-1.02 0-.564-.456-1.02-1.02-1.02-.563 0-1.02.456-1.02 1.02 0 .563.457 1.02 1.02 1.02zM23.13 71.044c.564 0 1.02-.457 1.02-1.02 0-.564-.456-1.02-1.02-1.02-.563 0-1.02.456-1.02 1.02 0 .563.457 1.02 1.02 1.02zM26.71 71.044c.564 0 1.02-.457 1.02-1.02 0-.564-.456-1.02-1.02-1.02-.563 0-1.02.456-1.02 1.02 0 .563.457 1.02 1.02 1.02zM30.3 71.044c.564 0 1.02-.457 1.02-1.02 0-.564-.456-1.02-1.02-1.02-.563 0-1.02.456-1.02 1.02 0 .563.457 1.02 1.02 1.02zM33.88 71.044c.564 0 1.02-.457 1.02-1.02 0-.564-.456-1.02-1.02-1.02-.563 0-1.02.456-1.02 1.02 0 .563.457 1.02 1.02 1.02zM37.46 71.044c.564 0 1.02-.457 1.02-1.02 0-.564-.456-1.02-1.02-1.02-.563 0-1.02.456-1.02 1.02 0 .563.457 1.02 1.02 1.02zM41.04 71.044c.564 0 1.02-.457 1.02-1.02 0-.564-.456-1.02-1.02-1.02-.563 0-1.02.456-1.02 1.02 0 .563.457 1.02 1.02 1.02zM44.63 71.044c.564 0 1.02-.457 1.02-1.02 0-.564-.456-1.02-1.02-1.02-.563 0-1.02.456-1.02 1.02 0 .563.457 1.02 1.02 1.02zM48.21 71.044c.564 0 1.02-.457 1.02-1.02 0-.564-.456-1.02-1.02-1.02-.563 0-1.02.456-1.02 1.02 0 .563.457 1.02 1.02 1.02zM51.79 71.044c.564 0 1.02-.457 1.02-1.02 0-.564-.456-1.02-1.02-1.02-.563 0-1.02.456-1.02 1.02 0 .563.457 1.02 1.02 1.02zM55.37 71.044c.564 0 1.02-.457 1.02-1.02 0-.564-.456-1.02-1.02-1.02-.563 0-1.02.456-1.02 1.02 0 .563.457 1.02 1.02 1.02zM58.96 71.044c.564 0 1.02-.457 1.02-1.02 0-.564-.456-1.02-1.02-1.02-.563 0-1.02.456-1.02 1.02 0 .563.457 1.02 1.02 1.02zM62.54 71.044c.564 0 1.02-.457 1.02-1.02 0-.564-.456-1.02-1.02-1.02-.563 0-1.02.456-1.02 1.02 0 .563.457 1.02 1.02 1.02zM66.12 71.044c.564 0 1.02-.457 1.02-1.02 0-.564-.456-1.02-1.02-1.02-.563 0-1.02.456-1.02 1.02 0 .563.457 1.02 1.02 1.02zM33.88 84.984c.564 0 1.02-.457 1.02-1.02 0-.564-.456-1.02-1.02-1.02-.563 0-1.02.456-1.02 1.02 0 .563.457 1.02 1.02 1.02zM37.46 84.984c.564 0 1.02-.457 1.02-1.02 0-.564-.456-1.02-1.02-1.02-.563 0-1.02.456-1.02 1.02 0 .563.457 1.02 1.02 1.02zM62.54 84.984c.564 0 1.02-.457 1.02-1.02 0-.564-.456-1.02-1.02-1.02-.563 0-1.02.456-1.02 1.02 0 .563.457 1.02 1.02 1.02zM66.12 84.984c.564 0 1.02-.457 1.02-1.02 0-.564-.456-1.02-1.02-1.02-.563 0-1.02.456-1.02 1.02 0 .563.457 1.02 1.02 1.02zM69.7 71.044c.563 0 1.02-.457 1.02-1.02 0-.564-.457-1.02-1.02-1.02s-1.02.456-1.02 1.02c0 .563.457 1.02 1.02 1.02zM73.29 71.044c.564 0 1.02-.457 1.02-1.02 0-.564-.456-1.02-1.02-1.02-.563 0-1.02.456-1.02 1.02 0 .563.457 1.02 1.02 1.02zM76.87 71.044c.564 0 1.02-.457 1.02-1.02 0-.564-.456-1.02-1.02-1.02-.563 0-1.02.456-1.02 1.02 0 .563.457 1.02 1.02 1.02zM80.45 71.044c.563 0 1.02-.457 1.02-1.02 0-.564-.457-1.02-1.02-1.02s-1.02.456-1.02 1.02c0 .563.457 1.02 1.02 1.02zM19.55 78.004c.564 0 1.02-.457 1.02-1.02 0-.564-.456-1.02-1.02-1.02-.563 0-1.02.456-1.02 1.02 0 .563.457 1.02 1.02 1.02zM23.13 78.004c.564 0 1.02-.457 1.02-1.02 0-.564-.456-1.02-1.02-1.02-.563 0-1.02.456-1.02 1.02 0 .563.457 1.02 1.02 1.02zM26.71 78.004c.564 0 1.02-.457 1.02-1.02 0-.564-.456-1.02-1.02-1.02-.563 0-1.02.456-1.02 1.02 0 .563.457 1.02 1.02 1.02zM30.3 78.004c.564 0 1.02-.457 1.02-1.02 0-.564-.456-1.02-1.02-1.02-.563 0-1.02.456-1.02 1.02 0 .563.457 1.02 1.02 1.02zM69.7 78.004c.563 0 1.02-.457 1.02-1.02 0-.564-.457-1.02-1.02-1.02s-1.02.456-1.02 1.02c0 .563.457 1.02 1.02 1.02zM73.29 78.004c.564 0 1.02-.457 1.02-1.02 0-.564-.456-1.02-1.02-1.02-.563 0-1.02.456-1.02 1.02 0 .563.457 1.02 1.02 1.02zM76.87 78.004c.564 0 1.02-.457 1.02-1.02 0-.564-.456-1.02-1.02-1.02-.563 0-1.02.456-1.02 1.02 0 .563.457 1.02 1.02 1.02zM80.45 78.004c.563 0 1.02-.457 1.02-1.02 0-.564-.457-1.02-1.02-1.02s-1.02.456-1.02 1.02c0 .563.457 1.02 1.02 1.02zM19.55 81.494c.564 0 1.02-.457 1.02-1.02 0-.564-.456-1.02-1.02-1.02-.563 0-1.02.456-1.02 1.02 0 .563.457 1.02 1.02 1.02zM23.13 81.494c.564 0 1.02-.457 1.02-1.02 0-.564-.456-1.02-1.02-1.02-.563 0-1.02.456-1.02 1.02 0 .563.457 1.02 1.02 1.02zM26.71 81.494c.564 0 1.02-.457 1.02-1.02 0-.564-.456-1.02-1.02-1.02-.563 0-1.02.456-1.02 1.02 0 .563.457 1.02 1.02 1.02zM30.3 81.494c.564 0 1.02-.457 1.02-1.02 0-.564-.456-1.02-1.02-1.02-.563 0-1.02.456-1.02 1.02 0 .563.457 1.02 1.02 1.02zM69.7 81.494c.563 0 1.02-.457 1.02-1.02 0-.564-.457-1.02-1.02-1.02s-1.02.456-1.02 1.02c0 .563.457 1.02 1.02 1.02zM73.29 81.494c.564 0 1.02-.457 1.02-1.02 0-.564-.456-1.02-1.02-1.02-.563 0-1.02.456-1.02 1.02 0 .563.457 1.02 1.02 1.02zM76.87 81.494c.564 0 1.02-.457 1.02-1.02 0-.564-.456-1.02-1.02-1.02-.563 0-1.02.456-1.02 1.02 0 .563.457 1.02 1.02 1.02zM80.45 81.494c.563 0 1.02-.457 1.02-1.02 0-.564-.457-1.02-1.02-1.02s-1.02.456-1.02 1.02c0 .563.457 1.02 1.02 1.02zM26.71 84.974c.564 0 1.02-.457 1.02-1.02 0-.564-.456-1.02-1.02-1.02-.563 0-1.02.456-1.02 1.02 0 .563.457 1.02 1.02 1.02zM30.3 84.974c.564 0 1.02-.457 1.02-1.02 0-.564-.456-1.02-1.02-1.02-.563 0-1.02.456-1.02 1.02 0 .563.457 1.02 1.02 1.02zM69.7 84.974c.563 0 1.02-.457 1.02-1.02 0-.564-.457-1.02-1.02-1.02s-1.02.456-1.02 1.02c0 .563.457 1.02 1.02 1.02zM73.29 84.974c.564 0 1.02-.457 1.02-1.02 0-.564-.456-1.02-1.02-1.02-.563 0-1.02.456-1.02 1.02 0 .563.457 1.02 1.02 1.02zM30.3 88.464c.564 0 1.02-.457 1.02-1.02 0-.564-.456-1.02-1.02-1.02-.563 0-1.02.456-1.02 1.02 0 .563.457 1.02 1.02 1.02zM33.88 88.464c.564 0 1.02-.457 1.02-1.02 0-.564-.456-1.02-1.02-1.02-.563 0-1.02.456-1.02 1.02 0 .563.457 1.02 1.02 1.02zM37.46 88.464c.564 0 1.02-.457 1.02-1.02 0-.564-.456-1.02-1.02-1.02-.563 0-1.02.456-1.02 1.02 0 .563.457 1.02 1.02 1.02zM41.04 88.464c.564 0 1.02-.457 1.02-1.02 0-.564-.456-1.02-1.02-1.02-.563 0-1.02.456-1.02 1.02 0 .563.457 1.02 1.02 1.02zM44.63 88.464c.564 0 1.02-.457 1.02-1.02 0-.564-.456-1.02-1.02-1.02-.563 0-1.02.456-1.02 1.02 0 .563.457 1.02 1.02 1.02zM48.21 88.464c.564 0 1.02-.457 1.02-1.02 0-.564-.456-1.02-1.02-1.02-.563 0-1.02.456-1.02 1.02 0 .563.457 1.02 1.02 1.02zM51.79 88.464c.564 0 1.02-.457 1.02-1.02 0-.564-.456-1.02-1.02-1.02-.563 0-1.02.456-1.02 1.02 0 .563.457 1.02 1.02 1.02zM55.37 88.464c.564 0 1.02-.457 1.02-1.02 0-.564-.456-1.02-1.02-1.02-.563 0-1.02.456-1.02 1.02 0 .563.457 1.02 1.02 1.02zM58.96 88.464c.564 0 1.02-.457 1.02-1.02 0-.564-.456-1.02-1.02-1.02-.563 0-1.02.456-1.02 1.02 0 .563.457 1.02 1.02 1.02zM62.54 88.464c.564 0 1.02-.457 1.02-1.02 0-.564-.456-1.02-1.02-1.02-.563 0-1.02.456-1.02 1.02 0 .563.457 1.02 1.02 1.02zM66.12 88.464c.564 0 1.02-.457 1.02-1.02 0-.564-.456-1.02-1.02-1.02-.563 0-1.02.456-1.02 1.02 0 .563.457 1.02 1.02 1.02zM69.7 88.464c.563 0 1.02-.457 1.02-1.02 0-.564-.457-1.02-1.02-1.02s-1.02.456-1.02 1.02c0 .563.457 1.02 1.02 1.02zM37.46 91.944c.564 0 1.02-.457 1.02-1.02 0-.564-.456-1.02-1.02-1.02-.563 0-1.02.456-1.02 1.02 0 .563.457 1.02 1.02 1.02zM41.04 91.944c.564 0 1.02-.457 1.02-1.02 0-.564-.456-1.02-1.02-1.02-.563 0-1.02.456-1.02 1.02 0 .563.457 1.02 1.02 1.02zM44.63 91.944c.564 0 1.02-.457 1.02-1.02 0-.564-.456-1.02-1.02-1.02-.563 0-1.02.456-1.02 1.02 0 .563.457 1.02 1.02 1.02zM48.21 91.944c.564 0 1.02-.457 1.02-1.02 0-.564-.456-1.02-1.02-1.02-.563 0-1.02.456-1.02 1.02 0 .563.457 1.02 1.02 1.02zM51.79 91.944c.564 0 1.02-.457 1.02-1.02 0-.564-.456-1.02-1.02-1.02-.563 0-1.02.456-1.02 1.02 0 .563.457 1.02 1.02 1.02zM55.37 91.944c.564 0 1.02-.457 1.02-1.02 0-.564-.456-1.02-1.02-1.02-.563 0-1.02.456-1.02 1.02 0 .563.457 1.02 1.02 1.02zM58.96 91.944c.564 0 1.02-.457 1.02-1.02 0-.564-.456-1.02-1.02-1.02-.563 0-1.02.456-1.02 1.02 0 .563.457 1.02 1.02 1.02zM62.54 91.944c.564 0 1.02-.457 1.02-1.02 0-.564-.456-1.02-1.02-1.02-.563 0-1.02.456-1.02 1.02 0 .563.457 1.02 1.02 1.02zM44.63 95.424c.564 0 1.02-.457 1.02-1.02 0-.564-.456-1.02-1.02-1.02-.563 0-1.02.456-1.02 1.02 0 .563.457 1.02 1.02 1.02zM48.21 95.424c.564 0 1.02-.457 1.02-1.02 0-.564-.456-1.02-1.02-1.02-.563 0-1.02.456-1.02 1.02 0 .563.457 1.02 1.02 1.02zM51.79 95.424c.564 0 1.02-.457 1.02-1.02 0-.564-.456-1.02-1.02-1.02-.563 0-1.02.456-1.02 1.02 0 .563.457 1.02 1.02 1.02zM48.21 98.903c.564 0 1.02-.456 1.02-1.02 0-.563-.456-1.02-1.02-1.02-.563 0-1.02.457-1.02 1.02 0 .564.457 1.02 1.02 1.02zM51.79 98.903c.564 0 1.02-.456 1.02-1.02 0-.563-.456-1.02-1.02-1.02-.563 0-1.02.457-1.02 1.02 0 .564.457 1.02 1.02 1.02zM55.37 95.424c.564 0 1.02-.457 1.02-1.02 0-.564-.456-1.02-1.02-1.02-.563 0-1.02.456-1.02 1.02 0 .563.457 1.02 1.02 1.02z" fill="#D4D0CF"/><path d="M50 100.406l-34-19.86v-60.64l34-3.5 34 3.5v60.64l-34 19.86zm-31-21.56l31 18.09 31-18.09v-56.25l-31-3.19-31 3.19v56.25z" fill="#151841"/><path d="M32.822 32.885l-3.998-1.44 3.998-1.44v-1.398l-5.396 2.083v1.496l5.396 2.097v-1.398zM34.806 26.552v9.786h1.496v-4.445c.377-.546 1.02-1.12 1.873-1.12.895 0 1.566.518 1.566 1.61v3.955h1.497v-4.152c0-1.593-1.077-2.74-2.768-2.74-.91 0-1.68.42-2.168.923V26.55h-1.496zM42.605 32.983c0 2.363 1.748 3.537 3.803 3.537.936 0 1.79-.168 2.404-.46V34.77c-.573.28-1.314.476-2.125.476-1.23 0-2.404-.503-2.572-1.706h5.047c.433-1.943-.49-4.096-3.16-4.096-1.552 0-3.397 1.104-3.397 3.537zm5.215-.56H44.1c.057-1.132.966-1.733 1.972-1.733 1.468 0 1.832 1.147 1.748 1.734zM56.4 34.786v-2.404c0-2.027-1.2-2.936-3.102-2.936-1.077 0-2.04.266-2.573.447v1.37c.602-.265 1.426-.517 2.42-.517 1.145 0 1.76.587 1.76 1.426v.238c-.53-.112-1.174-.196-1.747-.196-1.398 0-2.992.53-2.992 2.25 0 1.385 1.133 2.056 2.35 2.056 1.047 0 1.872-.336 2.53-.867.237.545.726.783 1.34.783.337 0 .672-.056.952-.168v-1.076c-.14.042-.294.084-.447.084-.265 0-.49-.112-.49-.49zm-2.948-1.523c.475 0 1.048.084 1.453.167v1.133c-.53.53-1.23.797-1.943.797-.67 0-1.258-.336-1.258-.993 0-.84.895-1.104 1.748-1.104zM63.696 26.552v3.943c-.46-.532-1.244-1.05-2.418-1.05-2.027 0-3.328 1.61-3.328 3.538 0 1.93 1.3 3.537 3.328 3.537 1.258 0 2.055-.587 2.572-1.244v1.062h1.342v-9.786h-1.496zm-.014 5.606v1.636c-.32.74-1.09 1.412-2.14 1.412-1.2 0-2.082-.91-2.082-2.223 0-1.314.88-2.223 2.083-2.223 1.05 0 1.818.67 2.14 1.398zM72.574 32.186V30.69l-5.396-2.083v1.398l4.012 1.44-4.012 1.44v1.398l5.396-2.097zM32.255 55.55l-3.998-1.44 3.998-1.44v-1.397l-5.396 2.083v1.495l5.395 2.098V55.55zM34.24 49.218v9.785h1.327v-1.062c.53.658 1.328 1.245 2.586 1.245 2.014 0 3.328-1.608 3.328-3.537 0-1.93-1.313-3.537-3.327-3.537-1.174 0-1.957.533-2.418 1.05v-3.942H34.24zm5.717 6.43c0 1.314-.867 2.223-2.083 2.223-1.035 0-1.818-.67-2.14-1.41v-1.636c.322-.727 1.105-1.398 2.14-1.398 1.216 0 2.083.908 2.083 2.222zM42.516 55.648c0 2.32 1.762 3.537 3.635 3.537 1.888 0 3.636-1.216 3.636-3.537 0-2.32-1.748-3.537-3.635-3.537-1.872 0-3.634 1.218-3.634 3.538zm5.746 0c0 1.314-.867 2.167-2.11 2.167-1.26 0-2.126-.853-2.126-2.167 0-1.314.867-2.167 2.125-2.167 1.245 0 2.112.854 2.112 2.168zM56.562 49.218v3.942c-.46-.53-1.244-1.05-2.418-1.05-2.027 0-3.327 1.61-3.327 3.538 0 1.93 1.3 3.537 3.327 3.537 1.258 0 2.055-.587 2.572-1.244v1.064h1.342v-9.786h-1.496zm-.014 5.605v1.636c-.32.74-1.09 1.41-2.14 1.41-1.2 0-2.08-.908-2.08-2.222-.002-1.314.88-2.223 2.08-2.223 1.05 0 1.82.672 2.14 1.4zM62.952 57.354l-2.264-5.06h-1.594l3.187 6.765-.14.335c-.39 1.048-.935 1.566-1.662 1.566-.224 0-.462-.027-.685-.097v1.272c.293.07.587.112.88.112 1.02 0 1.972-.587 2.7-2.335l3.144-7.62H64.95l-1.998 5.062zM73.14 54.85v-1.494l-5.396-2.083v1.398l4.013 1.44-4.013 1.44v1.398l5.397-2.097zM39.068 80.176l-4-1.44 4-1.44v-1.398L33.67 77.98v1.497l5.398 2.097v-1.398zM46.378 73.843v3.942c-.462-.53-1.244-1.048-2.42-1.048-2.026 0-3.326 1.607-3.326 3.537s1.3 3.537 3.327 3.537c1.258 0 2.054-.587 2.572-1.244v1.063h1.342v-9.787h-1.496zm-.014 5.606v1.634c-.322.74-1.09 1.412-2.14 1.412-1.2 0-2.082-.908-2.082-2.222 0-1.315.88-2.223 2.083-2.223 1.048 0 1.817.672 2.14 1.4zM51.272 83.63v-6.712h-1.496v6.71h1.496zm.168-8.892c0-.588-.42-.88-.91-.88-.488 0-.922.292-.922.88 0 .615.434.894.923.894.49 0 .91-.28.91-.895zM58.096 76.918l-2.027 5.09-2.042-5.09h-1.622l2.866 6.71h1.58l2.88-6.71h-1.636zM66.328 79.477V77.98L60.932 75.9v1.398l4.012 1.44-4.012 1.44v1.398l5.396-2.097z" fill="#151841"/></g><defs><clipPath id="a"><path fill="#fff" d="M0 .406h100v100H0z"/></clipPath></defs></svg>
