<svg width="100" height="100" xmlns="http://www.w3.org/2000/svg" viewBox="0 0 100 100"><path fill="#d4d0cf" d="M18.11 78.69L50 97.32l31.89-18.63V20.74L50 17.45l-31.89 3.29zm49.11-62h.3"/><path fill="#4751a2" d="M26.75 29.3h27.13v5.11H26.75zM26.75 56.59h18.68v2.85H26.75z"/><path fill="#151841" d="M26.77 39.34h46.45v1.2H26.77zM26.77 43.5h46.45v1.2H26.77zM26.77 47.67h31.59v1.2H26.77z"/><path fill="#f15a2b" d="M26.73 64.47h2.31v1.2h-2.31zM26.73 68.63h2.31v1.2h-2.31zM26.73 72.89h2.31v1.2h-2.31z"/><path fill="#151841" d="M31.49 64.47h31.02v1.2H31.49zM31.49 68.63h27.89v1.2H31.49zM31.49 72.89h31.02v1.2H31.49z"/><path fill="#151841" d="M50 100L16 80.14V19.5L50 16l34 3.5v60.64zM19 78.44l31 18.09 31-18.09V22.19L50 19l-31 3.19z"/></svg>
