<svg width="100" height="100" viewBox="0 0 100 100" fill="none" xmlns="http://www.w3.org/2000/svg">
<path d="M21.6998 68.8999L49.8998 85.4999L78.1998 68.8999V17.5999L49.8998 14.3999L21.2998 17.3999L21.6998 68.8999Z" fill="#B8BCD1"/>
<path d="M50.1002 86.6L80.0002 68.9V59.4L49.8002 42L19.7002 59.9V68.7L50.1002 86.6Z" fill="#3A3F70"/>
<path d="M30.1001 64.5999L50.1001 75.9L49.8001 42.2L30.2001 32.2L30.1001 64.5999Z" fill="white"/>
<path d="M50.1001 76.3999C50.0001 76.3999 49.9001 76.3999 49.9001 76.2999L29.9001 64.9999C29.7001 64.8999 29.6001 64.6998 29.6001 64.5998L29.7001 32.1999C29.7001 31.9999 29.8001 31.8999 29.9001 31.7999C30.0001 31.6999 30.2001 31.6999 30.4001 31.7999L50.0001 41.7999C50.2001 41.8999 50.3001 42.0999 50.3001 42.1999L50.6001 75.8999C50.6001 76.0999 50.5001 76.1999 50.4001 76.2999C50.3001 76.3999 50.2001 76.3999 50.1001 76.3999ZM30.6001 64.2999L49.6001 74.9999L49.3001 42.4999L30.7001 32.9999L30.6001 64.2999Z" fill="#17193F"/>
<path d="M69.5998 65.9L50.0998 75.9L49.7998 42.2L69.5998 32.2V65.9Z" fill="#17193F"/>
<path d="M50.0998 76.4C49.9998 76.4 49.8998 76.4 49.7998 76.3C49.6998 76.2 49.5998 76.1 49.5998 75.9L49.2998 42.2C49.2998 42 49.3998 41.8 49.5998 41.7L69.3998 31.7C69.5998 31.6 69.6998 31.6 69.8998 31.7C69.9998 31.8 70.0998 32 70.0998 32.1V65.8C70.0998 66 69.9998 66.2 69.7998 66.2L50.2998 76.2C50.2998 76.4 50.1998 76.4 50.0998 76.4ZM50.2998 42.5L50.5998 75.1L69.0998 65.6V33L50.2998 42.5Z" fill="#17193F"/>
<path d="M35.8999 40.3999V48.4999L41.9999 51.6999V43.3999L35.8999 40.3999Z" fill="#B8BCD1"/>
<path d="M35.8999 55.8999V64.1999L41.9999 67.3999V58.9999L35.8999 55.8999Z" fill="#B8BCD1"/>
<path d="M63.3998 40.3999V48.4999L57.2998 51.6999V43.3999L63.3998 40.3999Z" fill="#3A3F70"/>
<path d="M63.3998 55.8999V64.0999L57.2998 67.2999V58.9999L63.3998 55.8999Z" fill="#3A3F70"/>
<path d="M42.0001 51.7L21.6001 63.8V56.5L35.9001 48.5L42.0001 51.7Z" fill="#F1662A"/>
<path d="M57.2998 51.7L78.0998 64.4V57.1L63.3998 48.5L57.2998 51.7Z" fill="#7780AA"/>
<path d="M57.2998 67.3999L70.1998 75.0999L75.6998 71.3999L63.3998 64.0999L57.2998 67.3999Z" fill="#7780AA"/>
<path d="M42.0002 67.3999L29.3002 75.2L23.2002 71.5999L35.9002 64.2L42.0002 67.3999Z" fill="#F1662A"/>
<path d="M49.9 88.5L19 70.4V15.2L50 12L81 15.2V70.4L49.9 88.5ZM21.7 68.9L49.9 85.4L78.1 68.9V17.6L49.8 14.7L21.6 17.6V18C21.7 18.1 21.7 68.9 21.7 68.9Z" fill="#17193F"/>
<path d="M49.7002 21.3999L49.8002 41.9999L30.2002 32.0999L49.7002 21.3999Z" fill="#F1662A"/>
<path d="M49.8002 42.4998C49.7002 42.4998 49.6002 42.4998 49.6002 42.3998L30.0002 32.4998C29.8002 32.3998 29.7002 32.1998 29.7002 32.0998C29.7002 31.8998 29.8002 31.6998 30.0002 31.6998L49.5002 20.9998C49.7002 20.8998 49.8002 20.8998 50.0002 20.9998C50.2002 21.0998 50.2002 21.2998 50.2002 21.3998L50.3002 41.9998C50.3002 42.1998 50.2002 42.2998 50.1002 42.3998C50.0002 42.4998 49.9002 42.4998 49.8002 42.4998ZM31.3002 32.0998L49.3002 41.1998L49.2002 22.2998L31.3002 32.0998Z" fill="#17193F"/>
<path d="M49.7002 21.3999L49.8002 41.9999L69.6002 32.1999L49.7002 21.3999Z" fill="#D0350B"/>
<path d="M49.8002 42.4998C49.7002 42.4998 49.6002 42.4998 49.5002 42.3998C49.4002 42.2998 49.3002 42.0998 49.3002 41.9998L49.2002 21.3998C49.2002 21.1998 49.3002 21.0998 49.4002 20.9998C49.6002 20.8998 49.7002 20.8998 49.9002 20.9998L69.8002 31.7998C70.0002 31.8998 70.1002 32.0998 70.1002 32.1998C70.1002 32.3998 70.0002 32.5998 69.8002 32.5998L50.0002 42.3998C50.0002 42.4998 49.9002 42.4998 49.8002 42.4998ZM50.2002 22.1998L50.3002 41.1998L68.5002 32.1998L50.2002 22.1998Z" fill="#17193F"/>
<path d="M60.2998 32.1998L56.7998 33.8998V25.4998L60.2998 23.9998V32.1998Z" fill="#D0350B"/>
<path d="M56.7998 34.3998C56.6998 34.3998 56.5998 34.3998 56.4998 34.2998C56.3998 34.1998 56.2998 33.9998 56.2998 33.8998V25.4998C56.2998 25.2998 56.3998 25.0998 56.5998 24.9998L60.0998 23.4998C60.2998 23.3998 60.3998 23.3998 60.5998 23.4998C60.6998 23.5998 60.7998 23.6998 60.7998 23.8998V32.0998C60.7998 32.2998 60.6998 32.4998 60.4998 32.4998L56.9998 34.2998C56.8998 34.3998 56.8998 34.3998 56.7998 34.3998ZM57.2998 25.7998V33.0998L59.7998 31.8998V24.7998L57.2998 25.7998Z" fill="#17193F"/>
<path d="M54.1001 29.0001L56.8001 33.9001V25.5001L54.1001 24.1001V29.0001Z" fill="#F1662A"/>
<path d="M56.8001 34.4C56.6001 34.4 56.5001 34.3 56.4001 34.1L53.7001 29.2C53.7001 29.1 53.6001 29 53.6001 29V24.1C53.6001 23.9 53.7001 23.8 53.8001 23.7C54.0001 23.6 54.1001 23.6 54.3001 23.7L57.0001 25.1C57.2001 25.2 57.3001 25.4 57.3001 25.5V33.9C57.3001 34.1 57.1001 34.3 56.9001 34.4H56.8001ZM54.6001 28.9L56.3001 32V25.8L54.6001 24.9V28.9Z" fill="#17193F"/>
<path d="M57.4001 22.7L54.1001 24.1L57.0001 25.5L60.3001 24L57.4001 22.7Z" fill="#17193F"/>
<path d="M57.0001 25.9999C56.9001 25.9999 56.9001 25.9999 56.8001 25.9999L53.9001 24.5999C53.7001 24.4999 53.6001 24.2999 53.6001 24.0999C53.6001 23.8999 53.7001 23.6999 53.9001 23.6999L57.2001 22.2999C57.3001 22.1999 57.5001 22.1999 57.6001 22.2999L60.5001 23.5999C60.7001 23.6999 60.8001 23.8999 60.8001 24.0999C60.8001 24.2999 60.7001 24.4999 60.5001 24.5999L57.2001 26.0999C57.1001 25.9999 57.1001 25.9999 57.0001 25.9999ZM55.3001 24.0999L57.0001 24.8999L59.1001 23.9999L57.4001 23.1999L55.3001 24.0999Z" fill="#17193F"/>
</svg>
