<svg width="100" height="100" xmlns="http://www.w3.org/2000/svg" viewBox="0 0 100 100"><path fill="#d4d0cf" d="M18.11 78.69L50 97.32l31.89-18.63V20.74L50 17.45l-31.89 3.29zm49.11-62h.3"/><path fill="#151841" d="M50 100L16 80.14V19.5L50 16l34 3.5v60.64zM19 78.44l31 18.09 31-18.09V22.19L50 19l-31 3.19z"/><path fill="#4751a2" d="M26.78 66.07h46.45v1.2H26.78zM26.77 61.9h46.45v1.2H26.77zM26.77 57.4h46.45v1.2H26.77zM26.78 70.23h46.45v1.2H26.78zM26.78 74.4h31.59v1.2H26.78z"/><path fill="#f15a29" d="M54.15 31.33h-.41c.13.5.33.3.41 0zM41.8 32.44a3.77 3.77 0 0 0 .06-1.11h-2.54a14 14 0 0 0 .76 1.6c.86 1.51 1.47 1.16 1.72-.49zM36.57 50c.36-.82 2-1.41 3.06-1.53a23.43 23.43 0 0 1 5.32.76.47.47 0 0 1 .19-.15.41.41 0 0 1 .34 0 14.72 14.72 0 0 1 .5-5.65s.07-.22.19-.55l-1.56-.11c-.61-.46-1.21.12-2 .36a8 8 0 0 1-3.43.58c-8.09-.13-8.21-8.95-8.09-9.19a3.34 3.34 0 0 1 2.58-2.13 19.67 19.67 0 0 1 2.82.11c0-.25-.05-.66-.06-1.11h-9.05v18.4c.25.52.51 1 .79 1.54h8.19a2.37 2.37 0 0 1 .21-1.33zm-4.81-2.12a8 8 0 0 1-3.91-4.24c-.49-1.29 1.72-1.88 2.19-.58A6.07 6.07 0 0 0 32.86 46a1.09 1.09 0 0 1-1.1 1.84zM72.62 32.09l-.54-.76h-9.5a12.85 12.85 0 0 1-.19 1.44 23 23 0 0 1 2.82.12 3.14 3.14 0 0 1 2.45 2.24c.12.24.62 3.3.22 3.47C66.66 42.37 63 44 58.81 44a11.17 11.17 0 0 1-4-1.31 1.44 1.44 0 0 0-1.23.18 25.79 25.79 0 0 1 1.14 6.26h-.1.15c.25-.12.48-.11.59.09a24.21 24.21 0 0 1 4.89-.47 4 4 0 0 1 2.93 1.64 2.26 2.26 0 0 1 .2.9h8.39c.31-.62.61-1.25.89-1.88zm-4.71 15.76a1.18 1.18 0 0 1-1.58-.35 1.08 1.08 0 0 1 .36-1.5 8.68 8.68 0 0 0 2.94-2.48c.73-1.29 2.71-.12 2 1.06-.9 1.51-2.37 2.33-3.72 3.27zM57 32.56c.14 1.64.75 2 1.72.58a13.86 13.86 0 0 0 1-1.81H57a6.27 6.27 0 0 0 0 1.23zM49.74 31.33h-.68c.15.62.27 1.14.33 1.47.09-.35.21-.86.35-1.47z"/><path fill="#151841" d="M72.62 51.33v-1.88c-.28.63-.58 1.26-.89 1.88zM27.38 51.33h.79c-.28-.51-.54-1-.79-1.54z"/><path fill="#efa75b" d="M33.71 32.33a3.34 3.34 0 0 0-2.58 2.13c-.12.24 0 9.06 8.09 9.19a8 8 0 0 0 3.43-.58c.75-.24 1.35-.82 2-.36l1.56.11c.41-1.1 1.49-3.53 3-3.8 2.25-.42 3.58 1.56 4.38 3.87a1.44 1.44 0 0 1 1.23-.18 11.17 11.17 0 0 0 4 1.31c4.17 0 7.85-1.65 9.07-5.42.4-.17-.1-3.23-.22-3.47a3.14 3.14 0 0 0-2.45-2.24 23 23 0 0 0-2.82-.12 12.85 12.85 0 0 0 .19-1.44h-2.85a13.86 13.86 0 0 1-1 1.81c-1 1.42-1.58 1.06-1.72-.58a6.27 6.27 0 0 1 0-1.23h-2.87c-.08.3-.28.5-.41 0h-4c-.14.61-.26 1.12-.35 1.47-.06-.33-.18-.85-.33-1.47h-7.2a3.77 3.77 0 0 1-.06 1.11c-.25 1.65-.86 2-1.72.49a14 14 0 0 1-.76-1.6h-2.85c0 .45.06.86.06 1.11a19.67 19.67 0 0 0-2.82-.11zM56 40.07a6.22 6.22 0 0 1 3.43-3.54 9.06 9.06 0 0 1 2.21-.24 43.84 43.84 0 0 1 4.53.35l.49.12-.11.48s-1.22 4.82-5.63 5.06h-.38a10 10 0 0 1-2.31-.3l-2.43-.81zm-15.51-3.89C43.79 37.35 43.8 41 43.8 41s-2 .47-2.33.58a25.52 25.52 0 0 1-2.82.13c-4.41-.47-5.38-5.3-5.38-5.3v-.48h.49c.11 0 1.71-.12 3.43-.12a9.7 9.7 0 0 1 3.3.37z"/><path fill="#fff" d="M56.89 40.43c.61.22 1.22.46 1.47.58a8.19 8.19 0 0 0 2.07.35c.12 0 3.3-.34 4-2.24.25-.71.74-1.16.87-1.64a31.41 31.41 0 0 0-3.77-.24c.07 1 .09 3.25-.77 3.07s-1.07-1.91-1.1-2.83a5.33 5.33 0 0 0-2.77 2.95zM35.2 38.43a4.53 4.53 0 0 0 3.68 2.35 8.1 8.1 0 0 0 2.33-.24 7.9 7.9 0 0 0 1.58-.46 5.54 5.54 0 0 0-2.69-3.17l-.16-.06c-.06.91-.29 2.73-1.2 2.89s-.77-2.24-.66-3.17h-.8c-1.22.12-2.21.24-2.83.24a5.72 5.72 0 0 0 .75 1.62z"/><path fill="#f47741" d="M49.16 39c-1.5.27-2.58 2.7-3 3.8-.12.33-.19.55-.19.55a14.72 14.72 0 0 0-.5 5.65l.11.07c.95-.38 4.69.28 4.69.28s3.14-.73 4.3-.18h.1a25.79 25.79 0 0 0-1.14-6.26c-.79-2.33-2.12-4.31-4.37-3.91z"/><path fill="#efa75b" d="M60.21 48.79a24.21 24.21 0 0 0-4.89.47c.11.11.36.58-.61 1.64-.11.12-.25.24-.37.12a6.28 6.28 0 0 0-1.72.11 1.18 1.18 0 0 0-.11.18h10.83a2.26 2.26 0 0 0-.2-.9 4 4 0 0 0-2.93-1.62zM47.09 51.15c-.49 0-1 .12-1.23-.11a2.69 2.69 0 0 1-1-1.42.38.38 0 0 1 .06-.43 23.43 23.43 0 0 0-5.32-.76c-1.1.12-2.7.71-3.06 1.53a2.37 2.37 0 0 0-.21 1.37H48a1 1 0 0 0-.09-.18z"/><path fill="#cf4a27" d="M52 50.48c.37-.35 1.47-.35 2.21-.35.12-.24.26-.36.26-.48s0-.32.16-.43h-.06c-1.16-.55-4.3.18-4.3.18s-3.74-.66-4.69-.28a.51.51 0 0 1 .16.19 1.5 1.5 0 0 0 .61.94h.74c.61 0 1.1-.12 1.47.24a1.87 1.87 0 0 1 .53.87h2.4a1.84 1.84 0 0 1 .51-.88z"/><path fill="#151841" d="M60.56 42.31h.38c4.41-.24 5.63-5.06 5.63-5.06l.11-.48-.49-.12a43.84 43.84 0 0 0-4.53-.35 9.06 9.06 0 0 0-2.21.24A6.22 6.22 0 0 0 56 40.07l-.22 1.08 2.43.81a10 10 0 0 0 2.35.35zm.24-2c.86.18.84-2.09.77-3.07a31.41 31.41 0 0 1 3.77.24c-.13.48-.62.93-.87 1.64-.74 1.9-3.92 2.24-4 2.24a8.19 8.19 0 0 1-2.11-.36c-.25-.12-.86-.36-1.47-.58a5.33 5.33 0 0 1 2.81-3c.03.98.22 2.71 1.1 2.89zM33.27 35.94v.48s1 4.83 5.38 5.3a25.52 25.52 0 0 0 2.82-.13c.37-.11 2.33-.58 2.33-.58s0-3.66-3.31-4.83a9.7 9.7 0 0 0-3.3-.36c-1.72 0-3.32.12-3.43.12zm4.81.63c-.11.93-.32 3.35.66 3.17s1.14-2 1.2-2.89l.16.06a5.54 5.54 0 0 1 2.69 3.17 7.9 7.9 0 0 1-1.58.46 8.1 8.1 0 0 1-2.33.24 4.53 4.53 0 0 1-3.68-2.35 5.72 5.72 0 0 1-.75-1.65c.62 0 1.61-.12 2.83-.24.3 0 .56.02.8.03zM54.36 51c.12.12.26 0 .37-.12 1-1.06.72-1.53.61-1.64-.11-.2-.34-.21-.59-.09h-.09c-.15.11-.16.22-.16.43s-.14.24-.26.48c-.74 0-1.84 0-2.21.35a1.84 1.84 0 0 0-.51.85h1a1.18 1.18 0 0 1 .11-.18 6.28 6.28 0 0 1 1.73-.08zM47.1 50.22h-.74a1.5 1.5 0 0 1-.61-.94.51.51 0 0 0-.16-.19l-.11-.09a.41.41 0 0 0-.34 0 .47.47 0 0 0-.19.15.38.38 0 0 0-.06.43 2.69 2.69 0 0 0 1 1.42c.26.23.74.11 1.23.11H48a1 1 0 0 1 .09.18h1.01a1.87 1.87 0 0 0-.53-.87c-.37-.32-.86-.2-1.47-.2z"/><path fill="#efa75b" d="M32.86 46A6.07 6.07 0 0 1 30 43c-.47-1.3-2.68-.71-2.19.58a8 8 0 0 0 3.91 4.24A1.09 1.09 0 0 0 32.86 46zM69.63 43.49A8.68 8.68 0 0 1 66.69 46a1.08 1.08 0 0 0-.36 1.53 1.18 1.18 0 0 0 1.58.35c1.35-.94 2.82-1.76 3.68-3.3.75-1.21-1.23-2.38-1.96-1.09z"/><path fill="#151841" d="M72.62 31.33h-.54l.54.76z"/><path fill="#fff" d="M55.28 73.52V73a1.38 1.38 0 0 1 1.38-1.38A1.38 1.38 0 0 1 58.05 73v5.92s.3 3.47-3.08 3.47h-6.43s-4.69-6.09-5.31-6.93-.69-1.9.24-2.45 1.66.23 2.24.87S47 75.42 47 75.42v-7.18a1.38 1.38 0 0 1 1.38-1.39 1.38 1.38 0 0 1 1.38 1.39v4.37"/><path fill="#151841" d="M55 82.85h-6.71l-.15-.2c-.19-.24-4.7-6.1-5.31-6.94a2.5 2.5 0 0 1-.52-1.95 1.87 1.87 0 0 1 .9-1.22c1.3-.77 2.28.32 2.87 1l.41.47v-5.77a1.88 1.88 0 1 1 3.76 0v4.37h-1v-4.37a.88.88 0 1 0-1.76 0v8.69l-.91-1.21s-.68-.92-1.24-1.54c-.71-.78-1.12-1.08-1.62-.78a.85.85 0 0 0-.43.56 1.54 1.54 0 0 0 .35 1.16c.54.75 4.33 5.68 5.14 6.73H55a2.44 2.44 0 0 0 1.9-.71 3.34 3.34 0 0 0 .68-2.21V73a.88.88 0 0 0-1.76 0v.56h-1V73a1.88 1.88 0 0 1 3.76 0v5.92a4.19 4.19 0 0 1-.93 2.94 3.41 3.41 0 0 1-2.65.99z"/><path fill="#fff" d="M52.52 73.69V72a1.38 1.38 0 0 0-1.39-1.38A1.38 1.38 0 0 0 49.75 72v1.66"/><path fill="#151841" d="M53 73.69h-1V72a.89.89 0 0 0-1.77 0v1.66h-1V72A1.89 1.89 0 0 1 53 72z"/><path fill="#fff" d="M55.28 73.69v-1.17a1.38 1.38 0 0 0-1.38-1.38 1.37 1.37 0 0 0-1.38 1.38v1"/><path fill="#151841" d="M55.78 73.69h-1v-1.17a.88.88 0 1 0-1.76 0v1H52v-1a1.88 1.88 0 0 1 3.76 0zM73.12 51.83H26.88v-21h46.24zm-45.24-1h44.24v-19H27.88z"/></svg>
