<svg width="100" height="100" xmlns="http://www.w3.org/2000/svg" viewBox="0 0 100 100"><defs><clipPath id="clip-path"><path fill="#3e4a8d" d="M50 75.92h-1.06a39.55 39.55 0 0 1-4.93-2c-1-.74-7.26-2.32-7.45-1.77S30.46 85.74 31 86.31c.29.28 15 8.57 15.78 8.75A34.82 34.82 0 0 1 50 97.24z"/></clipPath><clipPath id="clip-path-2"><path fill="#4751a2" d="M50 38.15a1.3 1.3 0 0 0-.31-.06c-.57 0-1.16.74-1.93.74a4.93 4.93 0 0 1-3.39-1.3 16.66 16.66 0 0 1-1.84 2.32c-3.39-1.3-6.1-5.86-8.81-8.28-5.65-5.93-8.81-5.21-8.81-5.21-2.81 3.54-1.07 10.33-.2 14.52.5 2.79 1.16 5.67 1.75 8.47A13 13 0 0 0 28.1 53c1.06 2.05 1.26 4.28 2.13 6.33l.68 2.61c.28 1.39 4.25 9.12 6.77 10 2.14.74 5.62 1 7.07 2.42A12.81 12.81 0 0 0 50 76.94z"/></clipPath></defs><title>icns</title><path fill="#d4d0cf" d="M17.46 78.9l31.9 18.63L81.25 78.9V21l-31.89-3.34L17.46 21z"/><path fill="#cf4a27" d="M70 81.65c-1-2.23-2.81-5-4-7.27-.87-1.58-.39-3.35-2.32-3.16 0 0-2.81.84-3.88 1s-4.65 3-5.91 3.44c-1.55.56-3.29.19-4.93.19a39.55 39.55 0 0 1-4.93-2c-1-.74-7.26-2.32-7.45-1.77S30.46 85.74 31 86.31c.29.28 15 8.57 15.78 8.75A34.82 34.82 0 0 1 50 97.24c.48.56 12.47-6 12.47-6.93 0 0 7.94-4.19 8.52-4.38 2.1-.74-.31-2.88-1-4.28z"/><path fill="#f1662a" d="M56.26 73.9c-.57-.47-1.06.46-.29 1 3.19 2.37 5.86 5.87 6.17 9.84-1.69-.55-3.44-.74-5.14-1.34a.53.53 0 0 0-.77.56 16.56 16.56 0 0 1-.07 4.56 12 12 0 0 1-4.29-2.88c-.29-.36-.87 0-.87.38-.17 1.7-.06 3.25-.9 4.72l-.15.15-.17-.17c-.82-1.46-.71-3-.88-4.68 0-.38-.59-.74-.87-.38a12.11 12.11 0 0 1-4.29 2.88A16.56 16.56 0 0 1 43.7 84a.53.53 0 0 0-.77-.56c-1.67.64-3.42.8-5.11 1.37.31-4 3-7.48 6.17-9.84.77-.56.29-1.49-.29-1-3.77 2.7-6.68 6.8-6.77 11.46a.51.51 0 0 0 .77.46c1.55-.71 3.33-.82 5-1.35-.15 1.61.13 3.14.13 4.79a.54.54 0 0 0 .77.46 21.65 21.65 0 0 0 4.47-2.6 9.28 9.28 0 0 0 1.09 4.4 2.32 2.32 0 0 0 .43.62l.1.06h.07a.59.59 0 0 0 .61-.1 2.1 2.1 0 0 0 .47-.72 9.49 9.49 0 0 0 1-4.31 22.19 22.19 0 0 0 4.48 2.6.54.54 0 0 0 .77-.46c0-1.65.28-3.17.13-4.79 1.68.53 3.45.64 5 1.35a.51.51 0 0 0 .77-.46c-.11-4.67-3-8.77-6.79-11.47z"/><path fill="#3e4a8d" d="M50 75.92h-1.06a39.55 39.55 0 0 1-4.93-2c-1-.74-7.26-2.32-7.45-1.77S30.46 85.74 31 86.31c.29.28 15 8.57 15.78 8.75A34.82 34.82 0 0 1 50 97.24z"/><g clip-path="url(#clip-path)"><path fill="#a9a09f" d="M19.82 68.9v2.58c0 .78-.54.92-1 .9V74c.5 0 1 .14 1 .91v2.57c0 1.51 1.06 2.32 2.94 1.91v-1.62c-.81.13-1.05-.28-1.05-1.08v-2a1.33 1.33 0 0 0-1.15-1.48 1.33 1.33 0 0 0 1.15-1.49v-2c0-.8.24-1.22 1.05-1.08V67c-1.88-.42-2.94.39-2.94 1.9zM27.4 77.51v-2.57c0-.77.51-.92 1-.91v-1.65c-.46 0-1-.12-1-.9V68.9c0-1.51-1.06-2.32-2.94-1.9v1.65c.81-.14 1.05.28 1.05 1.08v2a1.33 1.33 0 0 0 1.15 1.49 1.33 1.33 0 0 0-1.15 1.48v2c0 .8-.24 1.21-1.05 1.08v1.65c1.88.4 2.94-.43 2.94-1.92zM38.3 68.9v2.58c0 .78-.54.92-1 .9V74c.5 0 1 .14 1 .91v2.57c0 1.51 1.07 2.32 3 1.91v-1.62c-.81.13-1.06-.28-1.06-1.08v-2a1.32 1.32 0 0 0-1.14-1.48 1.32 1.32 0 0 0 1.14-1.49v-2c0-.8.25-1.22 1.06-1.08V67c-1.93-.42-3 .39-3 1.9zM45.89 77.51v-2.57c0-.77.51-.92 1-.91v-1.65c-.46 0-1-.12-1-.9V68.9c0-1.51-1.07-2.32-2.94-1.9v1.65c.81-.14 1 .28 1 1.08v2a1.32 1.32 0 0 0 1.15 1.49 1.32 1.32 0 0 0-1.1 1.47v2c0 .8-.24 1.21-1 1.08v1.65c1.82.41 2.89-.42 2.89-1.91zM19.82 83.59v2.58c0 .78-.54.91-1 .9v1.65c.5 0 1 .13 1 .9v2.58c0 1.51 1.06 2.32 2.94 1.9v-1.64c-.81.13-1.05-.29-1.05-1.08v-2a1.34 1.34 0 0 0-1.15-1.49 1.32 1.32 0 0 0 1.15-1.48v-2c0-.79.24-1.21 1.05-1.08v-1.64c-1.88-.42-2.94.39-2.94 1.9zM27.4 92.2v-2.58c0-.77.51-.92 1-.9v-1.65c-.46 0-1-.12-1-.9v-2.58c0-1.51-1.06-2.32-2.94-1.9v1.64c.81-.13 1.05.29 1.05 1.08v2a1.32 1.32 0 0 0 1.15 1.48 1.34 1.34 0 0 0-1.15 1.49v2c0 .79-.24 1.21-1.05 1.08v1.64c1.88.42 2.94-.39 2.94-1.9zM19.82 97.39V100c0 .78-.54.92-1 .91v1.64c.5 0 1 .14 1 .91V106c0 1.52 1.06 2.33 2.94 1.91v-1.65c-.81.14-1.05-.28-1.05-1.08v-2a1.33 1.33 0 0 0-1.15-1.48 1.33 1.33 0 0 0 1.15-1.49v-2c0-.8.24-1.22 1.05-1.08v-1.64c-1.88-.42-2.94.39-2.94 1.9zM27.4 100v-2.61c0-1.51-1.06-2.32-2.94-1.9v1.65c.81-.14 1.05.28 1.05 1.08v2a1.33 1.33 0 0 0 1.15 1.49 1.33 1.33 0 0 0-1.15 1.48v2c0 .8-.24 1.22-1.05 1.08v1.65c1.88.42 2.94-.39 2.94-1.91v-2.57c0-.77.51-.92 1-.91v-1.64c-.46 0-1-.14-1-.89zM38.3 83.32v2.58c0 .78-.54.92-1 .9v1.65c.5 0 1 .14 1 .91v2.57c0 1.51 1.07 2.32 3 1.91v-1.65c-.81.13-1.06-.28-1.06-1.08v-2c0-1-.59-1.46-1.14-1.48a1.33 1.33 0 0 0 1.14-1.49v-2c0-.8.25-1.22 1.06-1.08v-1.64c-1.93-.42-3 .39-3 1.9zM45.89 91.93v-2.57c0-.77.51-.92 1-.91V86.8c-.46 0-1-.12-1-.9v-2.58c0-1.51-1.07-2.32-2.94-1.9v1.65c.81-.14 1 .28 1 1.08v2a1.33 1.33 0 0 0 1.15 1.49 1.31 1.31 0 0 0-1.1 1.47v2c0 .8-.24 1.21-1 1.08v1.65c1.82.41 2.89-.4 2.89-1.91zM38.3 97.44V100c0 .78-.54.92-1 .91v1.64c.5 0 1 .14 1 .91v2.57c0 1.51 1.07 2.32 3 1.91v-1.65c-.81.13-1.06-.28-1.06-1.08v-2a1.32 1.32 0 0 0-1.14-1.48 1.32 1.32 0 0 0 1.14-1.49v-2c0-.8.25-1.22 1.06-1.08v-1.62c-1.93-.42-3 .39-3 1.9zM45.89 100v-2.56c0-1.51-1.07-2.32-2.94-1.9v1.65c.81-.14 1 .28 1 1.08v2a1.32 1.32 0 0 0 1.15 1.49 1.32 1.32 0 0 0-1.1 1.47v2c0 .8-.24 1.21-1 1.08V108c1.87.41 2.94-.4 2.94-1.91v-2.57c0-.77.51-.92 1-.91v-1.64c-.51-.03-1.05-.17-1.05-.97zM56.8 68.9v2.58c0 .78-.54.92-1 .9V74c.49 0 1 .14 1 .91v2.57c0 1.51 1.07 2.32 3 1.91v-1.62c-.81.13-1.06-.28-1.06-1.08v-2a1.32 1.32 0 0 0-1.14-1.48 1.32 1.32 0 0 0 1.14-1.49v-2c0-.8.25-1.22 1.06-1.08V67c-1.93-.42-3 .39-3 1.9zM64.39 71.48V68.9c0-1.51-1.07-2.32-2.94-1.9v1.65c.81-.14 1 .28 1 1.08v2a1.32 1.32 0 0 0 1.15 1.49 1.32 1.32 0 0 0-1.15 1.48v2c0 .8-.24 1.21-1 1.08v1.65c1.87.41 2.94-.4 2.94-1.91v-2.58c0-.77.51-.92 1-.91v-1.65c-.46.02-1-.12-1-.9zM56.8 83.59v2.58c0 .78-.54.91-1 .9v1.65c.49 0 1 .13 1 .9v2.58c0 1.51 1.07 2.32 3 1.9v-1.64c-.81.13-1.06-.29-1.06-1.08v-2a1.33 1.33 0 0 0-1.14-1.49c.55 0 1.14-.51 1.14-1.48v-2c0-.79.25-1.21 1.06-1.08v-1.64c-1.93-.42-3 .39-3 1.9zM64.39 86.17v-2.58c0-1.51-1.07-2.32-2.94-1.9v1.64c.81-.13 1 .29 1 1.08v2a1.31 1.31 0 0 0 1.15 1.48 1.33 1.33 0 0 0-1.15 1.49v2c0 .79-.24 1.21-1 1.08v1.64c1.87.42 2.94-.39 2.94-1.9v-2.58c0-.77.51-.92 1-.9v-1.65c-.46.01-1-.07-1-.9zM29.13 76.19v2.58c0 .78-.54.92-1 .91v1.64c.5 0 1 .14 1 .91v2.57c0 1.51 1.07 2.32 2.94 1.91v-1.65c-.81.13-1.07-.28-1.07-1.06v-2a1.32 1.32 0 0 0-1.15-1.48A1.32 1.32 0 0 0 31 79v-2c0-.8.24-1.22 1.05-1.08v-1.63c-1.85-.42-2.92.39-2.92 1.9zM36.71 84.8v-2.57c0-.77.52-.92 1-.91v-1.64c-.46 0-1-.13-1-.91v-2.58c0-1.51-1.06-2.32-2.94-1.9v1.65c.81-.14 1.06.28 1.06 1.08v2A1.32 1.32 0 0 0 36 80.5a1.32 1.32 0 0 0-1.17 1.5v2c0 .8-.25 1.21-1.06 1.08v1.65c1.88.39 2.94-.42 2.94-1.93zM47.62 76.19v2.58c0 .78-.54.92-1 .91v1.64c.5 0 1 .14 1 .91v2.57c0 1.51 1.07 2.32 2.94 1.91v-1.65c-.81.13-1.05-.28-1.05-1.08V82a1.32 1.32 0 0 0-1.15-1.48A1.32 1.32 0 0 0 49.51 79v-2c0-.8.24-1.22 1.05-1.08v-1.63c-1.87-.42-2.94.39-2.94 1.9zM55.2 84.8v-2.57c0-.77.52-.92 1-.91v-1.64c-.46 0-1-.13-1-.91v-2.58c0-1.51-1.06-2.32-2.94-1.9v1.65c.81-.14 1.06.28 1.06 1.08v2a1.32 1.32 0 0 0 1.14 1.49A1.32 1.32 0 0 0 53.32 82v2c0 .8-.25 1.21-1.06 1.08v1.65c1.88.39 2.94-.42 2.94-1.93zM29.13 90.78v2.58c0 .78-.54.92-1 .91v1.64c.5 0 1 .14 1 .91v2.57c0 1.51 1.07 2.32 2.94 1.91v-1.65c-.81.13-1.05-.28-1.05-1.08v-2a1.32 1.32 0 0 0-1.15-1.48A1.32 1.32 0 0 0 31 93.6v-2c0-.8.24-1.22 1.05-1.08v-1.64c-1.85-.42-2.92.39-2.92 1.9zM37.71 94.27c-.46 0-1-.13-1-.91v-2.58c0-1.51-1.06-2.32-2.94-1.9v1.65c.81-.14 1.06.28 1.06 1.08v2A1.32 1.32 0 0 0 36 95.09a1.32 1.32 0 0 0-1.14 1.48v2c0 .8-.25 1.21-1.06 1.08v1.65c1.88.41 2.94-.4 2.94-1.91v-2.57c0-.77.52-.92 1-.91zM47.62 90.78v2.58c0 .78-.54.92-1 .91v1.64c.5 0 1 .14 1 .91v2.57c0 1.51 1.07 2.32 2.94 1.91v-1.65c-.81.13-1.05-.28-1.05-1.08v-2a1.32 1.32 0 0 0-1.15-1.48 1.32 1.32 0 0 0 1.15-1.49v-2c0-.8.24-1.22 1.05-1.08v-1.64c-1.87-.42-2.94.39-2.94 1.9zM55.2 93.36v-2.58c0-1.51-1.06-2.32-2.94-1.9v1.65c.81-.14 1.06.28 1.06 1.08v2a1.32 1.32 0 0 0 1.14 1.49 1.32 1.32 0 0 0-1.14 1.48v2c0 .8-.25 1.21-1.06 1.08v1.65c1.88.41 2.94-.4 2.94-1.91v-2.58c0-.77.52-.92 1-.91v-1.64c-.46.01-1-.13-1-.91zM29.13 61.52v2.58c0 .78-.54.92-1 .9v1.65c.5 0 1 .13 1 .9v2.58c0 1.51 1.07 2.32 2.94 1.9v-1.64c-.81.13-1.05-.29-1.05-1.08v-2a1.31 1.31 0 0 0-1.15-1.48A1.33 1.33 0 0 0 31 64.34v-2c0-.79.24-1.21 1.05-1.08v-1.64c-1.85-.42-2.92.38-2.92 1.9zM36.71 70.13v-2.58c0-.77.52-.91 1-.9V65c-.46 0-1-.12-1-.9v-2.58c0-1.51-1.06-2.32-2.94-1.9v1.64c.81-.13 1.06.29 1.06 1.08v2A1.33 1.33 0 0 0 36 65.83c-.55 0-1.14.51-1.14 1.48v2c0 .79-.25 1.21-1.06 1.08V72c1.85.45 2.91-.36 2.91-1.87zM47.62 61.52v2.58c0 .78-.54.92-1 .9v1.65c.5 0 1 .13 1 .9v2.58c0 1.51 1.07 2.32 2.94 1.9v-1.64c-.81.13-1.05-.29-1.05-1.08v-2a1.31 1.31 0 0 0-1.15-1.48 1.33 1.33 0 0 0 1.15-1.49v-2c0-.79.24-1.21 1.05-1.08v-1.64c-1.87-.42-2.94.38-2.94 1.9zM55.2 70.13v-2.58c0-.77.52-.91 1-.9V65c-.46 0-1-.12-1-.9v-2.58c0-1.51-1.06-2.32-2.94-1.9v1.64c.81-.13 1.06.29 1.06 1.08v2a1.33 1.33 0 0 0 1.14 1.49c-.55 0-1.14.51-1.14 1.48v2c0 .79-.25 1.21-1.06 1.08V72c1.88.45 2.94-.36 2.94-1.87zM19.82 25.34v2.57c0 .79-.54.92-1 .91v1.65c.5 0 1 .13 1 .9V34c0 1.51 1.06 2.32 2.94 1.9v-1.7c-.81.14-1.05-.28-1.05-1.08v-2a1.33 1.33 0 0 0-1.15-1.49 1.33 1.33 0 0 0 1.15-1.48v-2c0-.8.24-1.21 1.05-1.08v-1.64c-1.88-.43-2.94.4-2.94 1.91zM27.4 34v-2.63c0-.77.51-.92 1-.9v-1.65c-.46 0-1-.12-1-.91v-2.57c0-1.51-1.06-2.32-2.94-1.91v1.65c.81-.13 1.05.28 1.05 1.08v2a1.33 1.33 0 0 0 1.15 1.48 1.33 1.33 0 0 0-1.15 1.49v2c0 .8-.24 1.22-1.05 1.08v1.65c1.88.41 2.94-.4 2.94-1.86zM38.3 25.34v2.57c0 .79-.54.92-1 .91v1.65c.5 0 1 .13 1 .9V34c0 1.51 1.07 2.32 3 1.9v-1.7c-.81.14-1.06-.28-1.06-1.08v-2a1.32 1.32 0 0 0-1.14-1.49 1.32 1.32 0 0 0 1.14-1.48v-2c0-.8.25-1.21 1.06-1.08v-1.64c-1.93-.43-3 .4-3 1.91zM45.89 34v-2.63c0-.77.51-.92 1-.9v-1.65c-.46 0-1-.12-1-.91v-2.57c0-1.51-1.07-2.32-2.94-1.91v1.65c.81-.13 1 .28 1 1.08v2a1.32 1.32 0 0 0 1.15 1.48 1.32 1.32 0 0 0-1.1 1.49v2c0 .8-.24 1.22-1 1.08v1.65c1.82.41 2.89-.4 2.89-1.86zM19.82 40v2.6c0 .78-.54.92-1 .9v1.65c.5 0 1 .14 1 .91v2.57c0 1.51 1.06 2.32 2.94 1.91v-1.65c-.81.13-1.05-.28-1.05-1.08v-2a1.32 1.32 0 0 0-1.15-1.48 1.33 1.33 0 0 0 1.15-1.49v-2c0-.8.24-1.22 1.05-1.08v-1.64c-1.88-.42-2.94.39-2.94 1.88zM27.4 48.63v-2.57c0-.77.51-.92 1-.91V43.5c-.46 0-1-.12-1-.9V40c0-1.51-1.06-2.32-2.94-1.9v1.65c.81-.14 1.05.28 1.05 1.08v2a1.33 1.33 0 0 0 1.15 1.49 1.32 1.32 0 0 0-1.15 1.48v2c0 .8-.24 1.21-1.05 1.08v1.65c1.88.47 2.94-.39 2.94-1.9zM19.82 54.71v2.58c0 .78-.54.91-1 .9v1.65c.5 0 1 .13 1 .9v2.58c0 1.51 1.06 2.32 2.94 1.9v-1.64c-.81.13-1.05-.29-1.05-1.08v-2a1.34 1.34 0 0 0-1.15-1.5 1.32 1.32 0 0 0 1.15-1.48v-2c0-.79.24-1.21 1.05-1.08v-1.63c-1.88-.42-2.94.39-2.94 1.9zM27.4 63.32v-2.58c0-.77.51-.92 1-.9v-1.65c-.46 0-1-.12-1-.9v-2.58c0-1.51-1.06-2.32-2.94-1.9v1.64c.81-.13 1.05.29 1.05 1.08v2A1.32 1.32 0 0 0 26.66 59a1.34 1.34 0 0 0-1.15 1.49v2c0 .79-.24 1.21-1.05 1.08v1.64c1.88.43 2.94-.38 2.94-1.89zM38.3 39.76v2.57c0 .79-.54.92-1 .91v1.64c.5 0 1 .14 1 .91v2.58c0 1.51 1.07 2.32 3 1.9v-1.65c-.81.14-1.06-.28-1.06-1.08v-2a1.32 1.32 0 0 0-1.14-1.49 1.32 1.32 0 0 0 1.14-1.48v-2c0-.8.25-1.21 1.06-1.08v-1.64c-1.93-.41-3 .4-3 1.91zM45.89 48.37v-2.58c0-.77.51-.92 1-.91v-1.64c-.46 0-1-.12-1-.91v-2.57c0-1.51-1.07-2.32-2.94-1.91v1.65c.81-.13 1 .28 1 1.08v2a1.32 1.32 0 0 0 1.15 1.48 1.32 1.32 0 0 0-1.1 1.49v2c0 .8-.24 1.22-1 1.08v1.65c1.82.41 2.89-.4 2.89-1.91zM38.3 54.76v2.58c0 .78-.54.91-1 .9v1.65c.5 0 1 .13 1 .9v2.58c0 1.51 1.07 2.32 3 1.9v-1.65c-.81.14-1.06-.28-1.06-1.08v-2a1.33 1.33 0 0 0-1.14-1.49c.55 0 1.14-.51 1.14-1.48v-2c0-.79.25-1.21 1.06-1.08v-1.63c-1.93-.42-3 .39-3 1.9zM45.89 63.37v-2.58c0-.77.51-.92 1-.9v-1.65c-.46 0-1-.12-1-.9v-2.58c0-1.51-1.07-2.32-2.94-1.9v1.64c.81-.13 1 .29 1 1.08v2a1.31 1.31 0 0 0 1.15 1.48 1.33 1.33 0 0 0-1.1 1.49v2c0 .8-.24 1.22-1 1.08v1.65c1.82.41 2.89-.4 2.89-1.91zM56.8 25.34v2.57c0 .79-.54.92-1 .91v1.65c.49 0 1 .13 1 .9V34c0 1.51 1.07 2.32 3 1.9v-1.7c-.81.14-1.06-.28-1.06-1.08v-2a1.32 1.32 0 0 0-1.14-1.49 1.32 1.32 0 0 0 1.14-1.48v-2c0-.8.25-1.21 1.06-1.08v-1.64c-1.93-.43-3 .4-3 1.91zM64.39 27.91v-2.57c0-1.51-1.07-2.32-2.94-1.91v1.65c.81-.13 1 .28 1 1.08v2a1.32 1.32 0 0 0 1.15 1.48 1.32 1.32 0 0 0-1.15 1.49v2c0 .8-.24 1.22-1 1.08v1.65c1.87.42 2.94-.39 2.94-1.9v-2.59c0-.77.51-.92 1-.9v-1.65c-.46.01-1-.12-1-.91zM56.8 40v2.6c0 .78-.54.92-1 .9v1.65c.49 0 1 .14 1 .91v2.57c0 1.51 1.07 2.32 3 1.91v-1.65c-.81.13-1.06-.28-1.06-1.08v-2c0-1-.59-1.46-1.14-1.48a1.32 1.32 0 0 0 1.14-1.49v-2c0-.8.25-1.22 1.06-1.08v-1.64c-1.93-.42-3 .39-3 1.88zM64.39 42.6V40c0-1.51-1.07-2.32-2.94-1.9v1.65c.81-.14 1 .28 1 1.08v2a1.32 1.32 0 0 0 1.15 1.49 1.31 1.31 0 0 0-1.15 1.48v2c0 .8-.24 1.21-1 1.08v1.65c1.87.41 2.94-.4 2.94-1.91v-2.56c0-.77.51-.92 1-.91V43.5c-.46.02-1-.12-1-.9zM29.13 32.63v2.57c0 .79-.54.92-1 .91v1.65c.5 0 1 .13 1 .9v2.58c0 1.51 1.07 2.32 2.94 1.9v-1.65c-.81.14-1.05-.28-1.05-1.08v-2a1.33 1.33 0 0 0-1.15-1.49A1.31 1.31 0 0 0 31 35.45v-2c0-.8.24-1.21 1.05-1.08v-1.65c-1.85-.41-2.92.4-2.92 1.91zM36.71 41.24v-2.58c0-.77.52-.92 1-.9v-1.65c-.46 0-1-.12-1-.91v-2.57c0-1.51-1.06-2.32-2.94-1.91v1.65c.81-.13 1.06.28 1.06 1.08v2c0 1 .59 1.46 1.14 1.48a1.33 1.33 0 0 0-1.14 1.49v2c0 .8-.25 1.22-1.06 1.08v1.65c1.88.41 2.94-.4 2.94-1.91zM47.62 32.63v2.57c0 .79-.54.92-1 .91v1.65c.5 0 1 .13 1 .9v2.58c0 1.51 1.07 2.32 2.94 1.9v-1.65c-.81.14-1.05-.28-1.05-1.08v-2a1.33 1.33 0 0 0-1.15-1.49 1.31 1.31 0 0 0 1.15-1.48v-2c0-.8.24-1.21 1.05-1.08v-1.64c-1.87-.41-2.94.4-2.94 1.91zM55.2 41.24v-2.58c0-.77.52-.92 1-.9v-1.65c-.46 0-1-.12-1-.91v-2.57c0-1.51-1.06-2.32-2.94-1.91v1.65c.81-.13 1.06.28 1.06 1.08v2c0 1 .59 1.46 1.14 1.48a1.33 1.33 0 0 0-1.14 1.49v2c0 .8-.25 1.22-1.06 1.08v1.65c1.88.41 2.94-.4 2.94-1.91zM29.13 47.22v2.57c0 .79-.54.92-1 .91v1.65c.5 0 1 .13 1 .9v2.58c0 1.51 1.07 2.32 2.94 1.9v-1.65C31.26 56.22 31 55.8 31 55v-2a1.33 1.33 0 0 0-1.15-1.49A1.31 1.31 0 0 0 31 50v-2c0-.8.24-1.21 1.05-1.08v-1.61c-1.85-.41-2.92.4-2.92 1.91zM36.71 55.83v-2.58c0-.77.52-.92 1-.9V50.7c-.46 0-1-.12-1-.91v-2.57c0-1.51-1.06-2.32-2.94-1.91V47c.81-.13 1.06.28 1.06 1.08v2c0 1 .59 1.46 1.14 1.48A1.33 1.33 0 0 0 34.83 53v2c0 .8-.25 1.22-1.06 1.08v1.65c1.88.42 2.94-.39 2.94-1.9zM47.62 47.22v2.57c0 .79-.54.92-1 .91v1.65c.5 0 1 .13 1 .9v2.58c0 1.51 1.07 2.32 2.94 1.9v-1.65c-.81.14-1.05-.28-1.05-1.08v-2a1.33 1.33 0 0 0-1.15-1.49A1.31 1.31 0 0 0 49.51 50v-2c0-.8.24-1.21 1.05-1.08v-1.61c-1.87-.41-2.94.4-2.94 1.91zM55.2 55.83v-2.58c0-.77.52-.92 1-.9V50.7c-.46 0-1-.12-1-.91v-2.57c0-1.51-1.06-2.32-2.94-1.91V47c.81-.13 1.06.28 1.06 1.08v2c0 1 .59 1.46 1.14 1.48A1.33 1.33 0 0 0 53.32 53v2c0 .8-.25 1.22-1.06 1.08v1.65c1.88.42 2.94-.39 2.94-1.9zM29.13 18v2.58c0 .79-.54.92-1 .91v1.64c.5 0 1 .14 1 .91v2.57c0 1.52 1.07 2.33 2.94 1.91v-1.7c-.81.18-1.07-.28-1.07-1.08v-2a1.32 1.32 0 0 0-1.15-1.48A1.32 1.32 0 0 0 31 20.78v-2c0-.8.24-1.22 1.05-1.08v-1.65c-1.85-.42-2.92.39-2.92 1.95zM36.71 26.56V24c0-.77.52-.92 1-.91v-1.65c-.46 0-1-.12-1-.91V18c0-1.51-1.06-2.32-2.94-1.9v1.6c.81-.14 1.06.28 1.06 1.08v2A1.32 1.32 0 0 0 36 22.26a1.32 1.32 0 0 0-1.14 1.48v2c0 .8-.25 1.22-1.06 1.08v1.65c1.85.42 2.91-.39 2.91-1.91zM47.62 18v2.58c0 .79-.54.92-1 .91v1.64c.5 0 1 .14 1 .91v2.57c0 1.52 1.07 2.33 2.94 1.91v-1.7c-.81.14-1.05-.28-1.05-1.08v-2a1.32 1.32 0 0 0-1.15-1.48 1.32 1.32 0 0 0 1.15-1.48v-2c0-.8.24-1.22 1.05-1.08v-1.65c-1.87-.42-2.94.39-2.94 1.95zM55.2 26.56V24c0-.77.52-.92 1-.91v-1.65c-.46 0-1-.12-1-.91V18c0-1.51-1.06-2.32-2.94-1.9v1.6c.81-.14 1.06.28 1.06 1.08v2a1.32 1.32 0 0 0 1.14 1.48 1.32 1.32 0 0 0-1.14 1.48v2c0 .8-.25 1.22-1.06 1.08v1.65c1.88.42 2.94-.39 2.94-1.91z"/></g><path d="M50.19 81.19s5-.38 6-1.49c4.65-5.4 9.1-6.7 9.1-6.7l-.68-1.39-14.53 2.8-13.37-2.7v1.49s3.49 1.21 8.29 6.61c1 1.1 5.14 1.38 5.24 1.38" opacity="0.17" isolation="isolate"/><path fill="#f15a29" d="M71.49 52.23c-.09 5-.77 10.24-3.39 14.62-1.16 2-1.64 3.44-3.49 4.84-1.55 1.12-5 .46-7.56 2.51 0 0-3.49 3-6.49 2.8s-5.81-2.61-5.81-2.61C43.3 73 39.82 72.71 37.68 72c-2.52-.93-6.49-8.66-6.77-10l-.68-2.61C29.36 57.26 29.16 55 28.1 53a13 13 0 0 1-1.64-3.63c-.59-2.8-1.25-5.68-1.75-8.47-.87-4.19-2.61-11 .2-14.52 0 0 3.16-.72 8.81 5.21 2.71 2.42 5.42 7 8.81 8.28a16.66 16.66 0 0 0 1.84-2.32 4.93 4.93 0 0 0 3.39 1.3c.77 0 1.36-.74 1.93-.74a9 9 0 0 1 1.45.46c2 .84 1.93-.93 3.09-.84s1.16 2.23 3.68.84l1.25-.09c3.2-3.35 9.58-11.92 15-10.71C79 29 73.3 47.68 71.65 52.24"/><path fill="#efa75b" d="M64.71 53.07a2.48 2.48 0 0 0-1.93-1.77 17.24 17.24 0 0 0-2.23-.09c.09-.65.59-2.7-.87-2.51-.77 0-1.55 2.23-2 2.8-.77 1.12-1.25.84-1.36-.46s.48-3.07-.59-3.35c-.77-.09-1.36 1.39-1.64 2.32-.09.46-.59.84-.39-2.42 0-.84 0-3.07-.48-3.16H53c-1.36.09-2.32 5.31-2.71 6.8-.29-1.49-1.84-7.82-3-6.43a7.93 7.93 0 0 0-.2 2.05c0 .46-.09 3.63-.48 3.07-.2-.93-1.25-2.8-1.84-2.51-1.07.93-.2 2.23-.48 3.54s-.68 1.58-1.36.38c-.39-.56-1.07-2.8-1.84-2.89-1.36-.19-1 1.86-1 2.51a16 16 0 0 0-2.23-.09 2.65 2.65 0 0 0-2 1.68c-.09.19 0 7.17 6.4 7.27a6.39 6.39 0 0 0 2.71-.46c.59-.19 1.07-.65 1.55-.28l6.58.46c.48-.38 1-.65 1.45-.46a9 9 0 0 0 3.2 1c3.29 0 6.2-1.3 7.17-4.28.28-.11-.11-2.53-.21-2.72z"/><path fill="#fff" d="M38 54.1s4.07-.38 5.13.19a5 5 0 0 1 2.42 3.07 9 9 0 0 1-1.64.46 19.35 19.35 0 0 1-2 .19C38.57 57.63 38 54.1 38 54.1zm25.38.55s-4-.56-5.13-.09a5 5 0 0 0-2.61 3l1.55.56a6.81 6.81 0 0 0 2 .28c3.4-.21 4.17-3.75 4.17-3.75zm-7.56 2.8c.29.09 1.25.46 1.55.56a7.14 7.14 0 0 0 1.75.28h.2c2.91-.09 3.88-3.07 4-3.54a23.08 23.08 0 0 0-3.39-.28 5 5 0 0 0-1.55.19 4.37 4.37 0 0 0-2.58 2.79z"/><path fill="#f47741" d="M47.18 64.06a11.54 11.54 0 0 1 .39-4.47s1-3.16 2.52-3.44c4-.74 4.36 8 4.36 8-4.66 2.05-7.27-.09-7.27-.09z"/><path fill="#efa75b" d="M61.14 65.17a3.19 3.19 0 0 0-2.32-1.3c-1.84-.19-8.13 1.21-8.13 1.21v.07c-.83-.22-6.43-1.72-8.13-1.56-.87.09-2.13.56-2.42 1.21-.48.93.09 2.15.59 3.16A10.58 10.58 0 0 0 44 71.59a3.17 3.17 0 0 0 1.75.56c4.84.09 5.14-2.78 5.14-2.69L51 69c.2 0-.39 3 4.36 3a3.71 3.71 0 0 0 1.75-.09 10.69 10.69 0 0 0 3.39-3.54c.44-1.05 1.12-2.17.64-3.2z"/><path fill="#151841" d="M46.9 72.35a.41.41 0 0 1-.39-.38.35.35 0 0 1 .39-.38c3.49-.28 3.77-2.32 3.88-2.42s.2-.38.39-.28a.41.41 0 0 1 .39.38c0 .09 0 2 3.68 2.15a.41.41 0 0 1 .39.38.42.42 0 0 1-.39.38 4.8 4.8 0 0 1-3.88-1.49.74.74 0 0 1-.2-.38 5.7 5.7 0 0 1-4.26 2.04z"/><path fill="#cf4a27" d="M47.09 64.24c.2-.56 3.88.09 3.88.09s3.2-.74 3.68.09c.09.19-.39.84-.39.84s-1.36-.09-1.64.19a4 4 0 0 0-.48 2.15c.09 0-.68.93-1.07.93s-1.16-.65-1.07-.74-.09-2-.59-2.32c-.29-.28-1.36.09-1.75-.09-.19-.3-.57-1.14-.57-1.14zm7.45.28c.09.19-.39.84-.39.84s-1.36-.09-1.64.19A4 4 0 0 0 52 67.7c.09 0-.68.93-1.07.93s-1.16-.65-1.07-.74-.09-2-.59-2.32c-.29-.28-1.36.09-1.75-.09s-.59-.93-.59-.93"/><path fill="#151841" d="M51 69c-.48 0-1.55-1.21-1.45-1.3a6.5 6.5 0 0 0-.39-2h-.68c-.39 0-.77.09-1-.09a2.12 2.12 0 0 1-.77-1.12.33.33 0 0 1 .2-.46.35.35 0 0 1 .48.19 1.21 1.21 0 0 0 .48.74h.59c.48 0 .87-.09 1.16.19.59.46.68 2 .68 2.15v.38a2.48 2.48 0 0 0 .68.46 4.08 4.08 0 0 0 .68-.65 4.41 4.41 0 0 1 .09-.93c.2-1 .48-1.3.59-1.39.29-.28 1.16-.28 1.75-.28.09-.19.2-.28.2-.38s0-.28.2-.38.39-.09.48.09.29.46-.48 1.3c-.09.09-.2.19-.29.09a4.78 4.78 0 0 0-1.36.09 4.2 4.2 0 0 0-.39 1.68v.19c-.14.31-.91 1.33-1.45 1.43zm-7.77-15.1a7.7 7.7 0 0 0-2.61-.28c-1.36 0-2.62.09-2.71.09h-.39v.38s.77 3.82 4.26 4.19a20.83 20.83 0 0 0 2.23-.1c.29-.09 1.84-.46 1.84-.46a4.21 4.21 0 0 0-2.62-3.82zm.57 3.45a6.37 6.37 0 0 1-1.84.19 3.58 3.58 0 0 1-2.91-1.86 4.41 4.41 0 0 1-.59-1.3c.49 0 1.27-.1 2.23-.19h.64c-.09.74-.26 2.65.52 2.51s.9-1.57.95-2.29h.12A4.39 4.39 0 0 1 45.05 57a6.37 6.37 0 0 1-1.25.35zm19.75-3.08A34 34 0 0 0 60 54a7 7 0 0 0-1.75.19A4.93 4.93 0 0 0 55.51 57l-.17.85 1.92.64a7.91 7.91 0 0 0 1.84.28h.3c3.49-.19 4.45-4 4.45-4l.09-.38zm-1.36 2C61.61 57.73 59.09 58 59 58a6.48 6.48 0 0 1-1.64-.28c-.2-.09-.68-.28-1.16-.46a4.2 4.2 0 0 1 2.22-2.33c0 .73.17 2.1.87 2.24s.66-1.65.61-2.43a25.86 25.86 0 0 1 3 .19c-.12.38-.51.74-.71 1.3z"/><path fill="#efa75b" d="M33.24 59.77a6.28 6.28 0 0 0 3.09 3.35.86.86 0 0 0 .87-1.49 4.82 4.82 0 0 1-2.2-2.32c-.4-1.03-2.15-.56-1.76.46zm31.67 3.36a8.36 8.36 0 0 0 2.91-2.61c.59-.93-1-1.86-1.55-.84a6.79 6.79 0 0 1-2.32 2 .86.86 0 0 0-.29 1.21.93.93 0 0 0 1.25.24z"/><path fill="#f1662a" d="M36.82 71.6c-1.75 5.5-5.33 8.66-6 14.34"/><path fill="#151841" d="M36.24 71.51c-1.64 5-5.33 9.12-6 14.43-.09.65.64 2 1.07 0 .68-5.21 4.45-9.31 6-14.16.19-.65-.87-.92-1.07-.27zm28.08.55c2 4.57 5.13 8.57 6.4 13.4.2.65 1.4.35 1.31-.29-1.25-4.93-4.7-9-6.83-13.67-.2-.56-1.2-.09-.88.56z"/><path fill="#fff" d="M29.76 52.42c1.64-1.49 2.61-4.74 3-7.35-.09.38 2.81.46 4.45-1.3 1.16-1.21.48-2.15-.2-3.63-1.84-3.82-4.93-6.8-7.94-9.59-.77-.74-1.55-2.61-2.91-2.15-1.07.38-1 3.44-.77 4.38 1.17 8.01 4.37 19.64 4.37 19.64zM70 51.58a13.42 13.42 0 0 1-3.49-7.08c0 .38-2.81.38-4.36-1.39-1.07-1.21-.39-2 .39-3.35 2-3.44 5.23-6.15 8.33-8.75.87-.65 1.75-1.58 3-1 1.07.46.77 2.51.59 3.35A171.39 171.39 0 0 1 70 51.58z"/><path fill="#f1662a" d="M70.13 39.48c-2.13.55-4.45 1.76-5.49 3.75-.46-2.36 1.77-5 3.65-6.27a.55.55 0 0 0-.59-.96c-2.32 1.68-4.75 4.84-4.07 7.73a.52.52 0 0 0 .66.35l-.08.3c-.09.65 1 .93 1.07.28.48-2.32 2.91-3.63 5.13-4.19a.53.53 0 1 0-.28-.99zM31.3 37c-.59-.38-1.07.46-.59.93 1.54 1.08 3.42 3.28 3.65 5.33-1-2-3.28-3.2-5.49-3.75a.54.54 0 0 0-.29 1c2.23.56 4.65 1.86 5.13 4.19a.55.55 0 0 0 .84.28.52.52 0 0 0 .8-.28c.79-2.9-1.72-6.15-4.05-7.7z"/><path fill="#151841" d="M36.63 38.55a35.33 35.33 0 0 0-6.29-7.35l-2.52-2.8a1.55 1.55 0 0 0-2-.09c-1.25 1.12-1 3.54-.77 5a84.47 84.47 0 0 0 1.64 8.47c.77 3.63 1.64 7.17 2.61 10.71a.31.31 0 0 0 .29.28c.09.09.29 0 .48-.09 1.84-1.77 2.61-4.47 3-7a7.35 7.35 0 0 0 3.58-.93c2.79-1.55 1.24-4.15-.02-6.2zM36 44.32a5.06 5.06 0 0 1-1.64.56c-.2 0-1.07 0-1.07.09a.46.46 0 0 0-.87 0c-.39 2.23-1 4.74-2.42 6.51A178.59 178.59 0 0 1 25.89 33c-.2-1-.29-5.58 1.64-3.63l1.84 2.15c.87.84 1.75 1.77 2.61 2.61a24.67 24.67 0 0 1 4.55 6.33 5.51 5.51 0 0 1 .68 1.58c.48.96-.48 1.81-1.21 2.28zm36.79-15a4.16 4.16 0 0 0-2.23 1.3c-1.16 1-2.32 2-3.49 3a29 29 0 0 0-5.33 6.51c-1.16 2-.2 3.54 1.84 4.47a6.37 6.37 0 0 0 2.61.56 13.31 13.31 0 0 0 3.49 6.7.93.93 0 0 0 .48.09c.09 0 .2-.09.29-.28 1.07-3.35 1.93-6.8 2.81-10.24A86.19 86.19 0 0 0 75 32.75c.08-1.57 0-3.51-2.25-3.42zM74 32.59a80.74 80.74 0 0 1-2.7 12.57c-.48 1.86-1 3.73-1.55 5.5a12.8 12.8 0 0 1-2.91-6.33c-.09-.46-.77-.38-.87 0 .09-.28.2-.19-.2-.09a4.69 4.69 0 0 1-1.16-.19c-1.07-.28-2.61-1-2.71-2.23-.09-.84.87-2 1.36-2.7a31.69 31.69 0 0 1 2.23-2.89A48.42 48.42 0 0 1 70.14 32a14 14 0 0 1 2.23-1.68c1.74-.99 1.74 1.34 1.63 2.27z"/><path fill="#151841" d="M50 16l-34 3.5v60.64L50 100l34-19.86V19.5zm31 62.44L50 96.53 19 78.44V22.19L50 19l31 3.19z"/><path fill="#4751a2" d="M50 38.15a1.3 1.3 0 0 0-.31-.06c-.57 0-1.16.74-1.93.74a4.93 4.93 0 0 1-3.39-1.3 16.66 16.66 0 0 1-1.84 2.32c-3.39-1.3-6.1-5.86-8.81-8.28-5.65-5.93-8.81-5.21-8.81-5.21-2.81 3.54-1.07 10.33-.2 14.52.5 2.79 1.16 5.67 1.75 8.47A13 13 0 0 0 28.1 53c1.06 2.05 1.26 4.28 2.13 6.33l.68 2.61c.28 1.39 4.25 9.12 6.77 10 2.14.74 5.62 1 7.07 2.42A12.81 12.81 0 0 0 50 76.94z"/><g clip-path="url(#clip-path-2)"><path fill="#a9a09f" d="M19.82 68.9v2.58c0 .78-.54.92-1 .9V74c.5 0 1 .14 1 .91v2.57c0 1.51 1.06 2.32 2.94 1.91v-1.62c-.81.13-1.05-.28-1.05-1.08v-2a1.33 1.33 0 0 0-1.15-1.48 1.33 1.33 0 0 0 1.15-1.49v-2c0-.8.24-1.22 1.05-1.08V67c-1.88-.42-2.94.39-2.94 1.9zM27.4 77.51v-2.57c0-.77.51-.92 1-.91v-1.65c-.46 0-1-.12-1-.9V68.9c0-1.51-1.06-2.32-2.94-1.9v1.65c.81-.14 1.05.28 1.05 1.08v2a1.33 1.33 0 0 0 1.15 1.49 1.33 1.33 0 0 0-1.15 1.48v2c0 .8-.24 1.21-1.05 1.08v1.65c1.88.4 2.94-.43 2.94-1.92zM38.3 68.9v2.58c0 .78-.54.92-1 .9V74c.5 0 1 .14 1 .91v2.57c0 1.51 1.07 2.32 3 1.91v-1.62c-.81.13-1.06-.28-1.06-1.08v-2a1.32 1.32 0 0 0-1.14-1.48 1.32 1.32 0 0 0 1.14-1.49v-2c0-.8.25-1.22 1.06-1.08V67c-1.93-.42-3 .39-3 1.9zM45.89 77.51v-2.57c0-.77.51-.92 1-.91v-1.65c-.46 0-1-.12-1-.9V68.9c0-1.51-1.07-2.32-2.94-1.9v1.65c.81-.14 1 .28 1 1.08v2a1.32 1.32 0 0 0 1.15 1.49 1.32 1.32 0 0 0-1.1 1.47v2c0 .8-.24 1.21-1 1.08v1.65c1.82.41 2.89-.42 2.89-1.91zM19.82 83.59v2.58c0 .78-.54.91-1 .9v1.65c.5 0 1 .13 1 .9v2.58c0 1.51 1.06 2.32 2.94 1.9v-1.64c-.81.13-1.05-.29-1.05-1.08v-2a1.34 1.34 0 0 0-1.15-1.49 1.32 1.32 0 0 0 1.15-1.48v-2c0-.79.24-1.21 1.05-1.08v-1.64c-1.88-.42-2.94.39-2.94 1.9zM27.4 92.2v-2.58c0-.77.51-.92 1-.9v-1.65c-.46 0-1-.12-1-.9v-2.58c0-1.51-1.06-2.32-2.94-1.9v1.64c.81-.13 1.05.29 1.05 1.08v2a1.32 1.32 0 0 0 1.15 1.48 1.34 1.34 0 0 0-1.15 1.49v2c0 .79-.24 1.21-1.05 1.08v1.64c1.88.42 2.94-.39 2.94-1.9zM19.82 97.39V100c0 .78-.54.92-1 .91v1.64c.5 0 1 .14 1 .91V106c0 1.52 1.06 2.33 2.94 1.91v-1.65c-.81.14-1.05-.28-1.05-1.08v-2a1.33 1.33 0 0 0-1.15-1.48 1.33 1.33 0 0 0 1.15-1.49v-2c0-.8.24-1.22 1.05-1.08v-1.64c-1.88-.42-2.94.39-2.94 1.9zM27.4 100v-2.61c0-1.51-1.06-2.32-2.94-1.9v1.65c.81-.14 1.05.28 1.05 1.08v2a1.33 1.33 0 0 0 1.15 1.49 1.33 1.33 0 0 0-1.15 1.48v2c0 .8-.24 1.22-1.05 1.08v1.65c1.88.42 2.94-.39 2.94-1.91v-2.57c0-.77.51-.92 1-.91v-1.64c-.46 0-1-.14-1-.89zM38.3 83.32v2.58c0 .78-.54.92-1 .9v1.65c.5 0 1 .14 1 .91v2.57c0 1.51 1.07 2.32 3 1.91v-1.65c-.81.13-1.06-.28-1.06-1.08v-2c0-1-.59-1.46-1.14-1.48a1.33 1.33 0 0 0 1.14-1.49v-2c0-.8.25-1.22 1.06-1.08v-1.64c-1.93-.42-3 .39-3 1.9zM45.89 91.93v-2.57c0-.77.51-.92 1-.91V86.8c-.46 0-1-.12-1-.9v-2.58c0-1.51-1.07-2.32-2.94-1.9v1.65c.81-.14 1 .28 1 1.08v2a1.33 1.33 0 0 0 1.15 1.49 1.31 1.31 0 0 0-1.1 1.47v2c0 .8-.24 1.21-1 1.08v1.65c1.82.41 2.89-.4 2.89-1.91zM38.3 97.44V100c0 .78-.54.92-1 .91v1.64c.5 0 1 .14 1 .91v2.57c0 1.51 1.07 2.32 3 1.91v-1.65c-.81.13-1.06-.28-1.06-1.08v-2a1.32 1.32 0 0 0-1.14-1.48 1.32 1.32 0 0 0 1.14-1.49v-2c0-.8.25-1.22 1.06-1.08v-1.62c-1.93-.42-3 .39-3 1.9zM45.89 100v-2.56c0-1.51-1.07-2.32-2.94-1.9v1.65c.81-.14 1 .28 1 1.08v2a1.32 1.32 0 0 0 1.15 1.49 1.32 1.32 0 0 0-1.1 1.47v2c0 .8-.24 1.21-1 1.08V108c1.87.41 2.94-.4 2.94-1.91v-2.57c0-.77.51-.92 1-.91v-1.64c-.51-.03-1.05-.17-1.05-.97zM56.8 68.9v2.58c0 .78-.54.92-1 .9V74c.49 0 1 .14 1 .91v2.57c0 1.51 1.07 2.32 3 1.91v-1.62c-.81.13-1.06-.28-1.06-1.08v-2a1.32 1.32 0 0 0-1.14-1.48 1.32 1.32 0 0 0 1.14-1.49v-2c0-.8.25-1.22 1.06-1.08V67c-1.93-.42-3 .39-3 1.9zM64.39 71.48V68.9c0-1.51-1.07-2.32-2.94-1.9v1.65c.81-.14 1 .28 1 1.08v2a1.32 1.32 0 0 0 1.15 1.49 1.32 1.32 0 0 0-1.15 1.48v2c0 .8-.24 1.21-1 1.08v1.65c1.87.41 2.94-.4 2.94-1.91v-2.58c0-.77.51-.92 1-.91v-1.65c-.46.02-1-.12-1-.9zM56.8 83.59v2.58c0 .78-.54.91-1 .9v1.65c.49 0 1 .13 1 .9v2.58c0 1.51 1.07 2.32 3 1.9v-1.64c-.81.13-1.06-.29-1.06-1.08v-2a1.33 1.33 0 0 0-1.14-1.49c.55 0 1.14-.51 1.14-1.48v-2c0-.79.25-1.21 1.06-1.08v-1.64c-1.93-.42-3 .39-3 1.9zM64.39 86.17v-2.58c0-1.51-1.07-2.32-2.94-1.9v1.64c.81-.13 1 .29 1 1.08v2a1.31 1.31 0 0 0 1.15 1.48 1.33 1.33 0 0 0-1.15 1.49v2c0 .79-.24 1.21-1 1.08v1.64c1.87.42 2.94-.39 2.94-1.9v-2.58c0-.77.51-.92 1-.9v-1.65c-.46.01-1-.07-1-.9zM29.13 76.19v2.58c0 .78-.54.92-1 .91v1.64c.5 0 1 .14 1 .91v2.57c0 1.51 1.07 2.32 2.94 1.91v-1.65c-.81.13-1.07-.28-1.07-1.06v-2a1.32 1.32 0 0 0-1.15-1.48A1.32 1.32 0 0 0 31 79v-2c0-.8.24-1.22 1.05-1.08v-1.63c-1.85-.42-2.92.39-2.92 1.9zM36.71 84.8v-2.57c0-.77.52-.92 1-.91v-1.64c-.46 0-1-.13-1-.91v-2.58c0-1.51-1.06-2.32-2.94-1.9v1.65c.81-.14 1.06.28 1.06 1.08v2A1.32 1.32 0 0 0 36 80.5a1.32 1.32 0 0 0-1.17 1.5v2c0 .8-.25 1.21-1.06 1.08v1.65c1.88.39 2.94-.42 2.94-1.93zM47.62 76.19v2.58c0 .78-.54.92-1 .91v1.64c.5 0 1 .14 1 .91v2.57c0 1.51 1.07 2.32 2.94 1.91v-1.65c-.81.13-1.05-.28-1.05-1.08V82a1.32 1.32 0 0 0-1.15-1.48A1.32 1.32 0 0 0 49.51 79v-2c0-.8.24-1.22 1.05-1.08v-1.63c-1.87-.42-2.94.39-2.94 1.9zM55.2 84.8v-2.57c0-.77.52-.92 1-.91v-1.64c-.46 0-1-.13-1-.91v-2.58c0-1.51-1.06-2.32-2.94-1.9v1.65c.81-.14 1.06.28 1.06 1.08v2a1.32 1.32 0 0 0 1.14 1.49A1.32 1.32 0 0 0 53.32 82v2c0 .8-.25 1.21-1.06 1.08v1.65c1.88.39 2.94-.42 2.94-1.93zM29.13 90.78v2.58c0 .78-.54.92-1 .91v1.64c.5 0 1 .14 1 .91v2.57c0 1.51 1.07 2.32 2.94 1.91v-1.65c-.81.13-1.05-.28-1.05-1.08v-2a1.32 1.32 0 0 0-1.15-1.48A1.32 1.32 0 0 0 31 93.6v-2c0-.8.24-1.22 1.05-1.08v-1.64c-1.85-.42-2.92.39-2.92 1.9zM37.71 94.27c-.46 0-1-.13-1-.91v-2.58c0-1.51-1.06-2.32-2.94-1.9v1.65c.81-.14 1.06.28 1.06 1.08v2A1.32 1.32 0 0 0 36 95.09a1.32 1.32 0 0 0-1.14 1.48v2c0 .8-.25 1.21-1.06 1.08v1.65c1.88.41 2.94-.4 2.94-1.91v-2.57c0-.77.52-.92 1-.91zM47.62 90.78v2.58c0 .78-.54.92-1 .91v1.64c.5 0 1 .14 1 .91v2.57c0 1.51 1.07 2.32 2.94 1.91v-1.65c-.81.13-1.05-.28-1.05-1.08v-2a1.32 1.32 0 0 0-1.15-1.48 1.32 1.32 0 0 0 1.15-1.49v-2c0-.8.24-1.22 1.05-1.08v-1.64c-1.87-.42-2.94.39-2.94 1.9zM55.2 93.36v-2.58c0-1.51-1.06-2.32-2.94-1.9v1.65c.81-.14 1.06.28 1.06 1.08v2a1.32 1.32 0 0 0 1.14 1.49 1.32 1.32 0 0 0-1.14 1.48v2c0 .8-.25 1.21-1.06 1.08v1.65c1.88.41 2.94-.4 2.94-1.91v-2.58c0-.77.52-.92 1-.91v-1.64c-.46.01-1-.13-1-.91zM29.13 61.52v2.58c0 .78-.54.92-1 .9v1.65c.5 0 1 .13 1 .9v2.58c0 1.51 1.07 2.32 2.94 1.9v-1.64c-.81.13-1.05-.29-1.05-1.08v-2a1.31 1.31 0 0 0-1.15-1.48A1.33 1.33 0 0 0 31 64.34v-2c0-.79.24-1.21 1.05-1.08v-1.64c-1.85-.42-2.92.38-2.92 1.9zM36.71 70.13v-2.58c0-.77.52-.91 1-.9V65c-.46 0-1-.12-1-.9v-2.58c0-1.51-1.06-2.32-2.94-1.9v1.64c.81-.13 1.06.29 1.06 1.08v2A1.33 1.33 0 0 0 36 65.83c-.55 0-1.14.51-1.14 1.48v2c0 .79-.25 1.21-1.06 1.08V72c1.85.45 2.91-.36 2.91-1.87zM47.62 61.52v2.58c0 .78-.54.92-1 .9v1.65c.5 0 1 .13 1 .9v2.58c0 1.51 1.07 2.32 2.94 1.9v-1.64c-.81.13-1.05-.29-1.05-1.08v-2a1.31 1.31 0 0 0-1.15-1.48 1.33 1.33 0 0 0 1.15-1.49v-2c0-.79.24-1.21 1.05-1.08v-1.64c-1.87-.42-2.94.38-2.94 1.9zM55.2 70.13v-2.58c0-.77.52-.91 1-.9V65c-.46 0-1-.12-1-.9v-2.58c0-1.51-1.06-2.32-2.94-1.9v1.64c.81-.13 1.06.29 1.06 1.08v2a1.33 1.33 0 0 0 1.14 1.49c-.55 0-1.14.51-1.14 1.48v2c0 .79-.25 1.21-1.06 1.08V72c1.88.45 2.94-.36 2.94-1.87zM19.82 25.34v2.57c0 .79-.54.92-1 .91v1.65c.5 0 1 .13 1 .9V34c0 1.51 1.06 2.32 2.94 1.9v-1.7c-.81.14-1.05-.28-1.05-1.08v-2a1.33 1.33 0 0 0-1.15-1.49 1.33 1.33 0 0 0 1.15-1.48v-2c0-.8.24-1.21 1.05-1.08v-1.64c-1.88-.43-2.94.4-2.94 1.91zM27.4 34v-2.63c0-.77.51-.92 1-.9v-1.65c-.46 0-1-.12-1-.91v-2.57c0-1.51-1.06-2.32-2.94-1.91v1.65c.81-.13 1.05.28 1.05 1.08v2a1.33 1.33 0 0 0 1.15 1.48 1.33 1.33 0 0 0-1.15 1.49v2c0 .8-.24 1.22-1.05 1.08v1.65c1.88.41 2.94-.4 2.94-1.86zM38.3 25.34v2.57c0 .79-.54.92-1 .91v1.65c.5 0 1 .13 1 .9V34c0 1.51 1.07 2.32 3 1.9v-1.7c-.81.14-1.06-.28-1.06-1.08v-2a1.32 1.32 0 0 0-1.14-1.49 1.32 1.32 0 0 0 1.14-1.48v-2c0-.8.25-1.21 1.06-1.08v-1.64c-1.93-.43-3 .4-3 1.91zM45.89 34v-2.63c0-.77.51-.92 1-.9v-1.65c-.46 0-1-.12-1-.91v-2.57c0-1.51-1.07-2.32-2.94-1.91v1.65c.81-.13 1 .28 1 1.08v2a1.32 1.32 0 0 0 1.15 1.48 1.32 1.32 0 0 0-1.1 1.49v2c0 .8-.24 1.22-1 1.08v1.65c1.82.41 2.89-.4 2.89-1.86zM19.82 40v2.6c0 .78-.54.92-1 .9v1.65c.5 0 1 .14 1 .91v2.57c0 1.51 1.06 2.32 2.94 1.91v-1.65c-.81.13-1.05-.28-1.05-1.08v-2a1.32 1.32 0 0 0-1.15-1.48 1.33 1.33 0 0 0 1.15-1.49v-2c0-.8.24-1.22 1.05-1.08v-1.64c-1.88-.42-2.94.39-2.94 1.88zM27.4 48.63v-2.57c0-.77.51-.92 1-.91V43.5c-.46 0-1-.12-1-.9V40c0-1.51-1.06-2.32-2.94-1.9v1.65c.81-.14 1.05.28 1.05 1.08v2a1.33 1.33 0 0 0 1.15 1.49 1.32 1.32 0 0 0-1.15 1.48v2c0 .8-.24 1.21-1.05 1.08v1.65c1.88.47 2.94-.39 2.94-1.9zM19.82 54.71v2.58c0 .78-.54.91-1 .9v1.65c.5 0 1 .13 1 .9v2.58c0 1.51 1.06 2.32 2.94 1.9v-1.64c-.81.13-1.05-.29-1.05-1.08v-2a1.34 1.34 0 0 0-1.15-1.5 1.32 1.32 0 0 0 1.15-1.48v-2c0-.79.24-1.21 1.05-1.08v-1.63c-1.88-.42-2.94.39-2.94 1.9zM27.4 63.32v-2.58c0-.77.51-.92 1-.9v-1.65c-.46 0-1-.12-1-.9v-2.58c0-1.51-1.06-2.32-2.94-1.9v1.64c.81-.13 1.05.29 1.05 1.08v2A1.32 1.32 0 0 0 26.66 59a1.34 1.34 0 0 0-1.15 1.49v2c0 .79-.24 1.21-1.05 1.08v1.64c1.88.43 2.94-.38 2.94-1.89zM38.3 39.76v2.57c0 .79-.54.92-1 .91v1.64c.5 0 1 .14 1 .91v2.58c0 1.51 1.07 2.32 3 1.9v-1.65c-.81.14-1.06-.28-1.06-1.08v-2a1.32 1.32 0 0 0-1.14-1.49 1.32 1.32 0 0 0 1.14-1.48v-2c0-.8.25-1.21 1.06-1.08v-1.64c-1.93-.41-3 .4-3 1.91zM45.89 48.37v-2.58c0-.77.51-.92 1-.91v-1.64c-.46 0-1-.12-1-.91v-2.57c0-1.51-1.07-2.32-2.94-1.91v1.65c.81-.13 1 .28 1 1.08v2a1.32 1.32 0 0 0 1.15 1.48 1.32 1.32 0 0 0-1.1 1.49v2c0 .8-.24 1.22-1 1.08v1.65c1.82.41 2.89-.4 2.89-1.91zM38.3 54.76v2.58c0 .78-.54.91-1 .9v1.65c.5 0 1 .13 1 .9v2.58c0 1.51 1.07 2.32 3 1.9v-1.65c-.81.14-1.06-.28-1.06-1.08v-2a1.33 1.33 0 0 0-1.14-1.49c.55 0 1.14-.51 1.14-1.48v-2c0-.79.25-1.21 1.06-1.08v-1.63c-1.93-.42-3 .39-3 1.9zM45.89 63.37v-2.58c0-.77.51-.92 1-.9v-1.65c-.46 0-1-.12-1-.9v-2.58c0-1.51-1.07-2.32-2.94-1.9v1.64c.81-.13 1 .29 1 1.08v2a1.31 1.31 0 0 0 1.15 1.48 1.33 1.33 0 0 0-1.1 1.49v2c0 .8-.24 1.22-1 1.08v1.65c1.82.41 2.89-.4 2.89-1.91zM56.8 25.34v2.57c0 .79-.54.92-1 .91v1.65c.49 0 1 .13 1 .9V34c0 1.51 1.07 2.32 3 1.9v-1.7c-.81.14-1.06-.28-1.06-1.08v-2a1.32 1.32 0 0 0-1.14-1.49 1.32 1.32 0 0 0 1.14-1.48v-2c0-.8.25-1.21 1.06-1.08v-1.64c-1.93-.43-3 .4-3 1.91zM64.39 27.91v-2.57c0-1.51-1.07-2.32-2.94-1.91v1.65c.81-.13 1 .28 1 1.08v2a1.32 1.32 0 0 0 1.15 1.48 1.32 1.32 0 0 0-1.15 1.49v2c0 .8-.24 1.22-1 1.08v1.65c1.87.42 2.94-.39 2.94-1.9v-2.59c0-.77.51-.92 1-.9v-1.65c-.46.01-1-.12-1-.91zM56.8 40v2.6c0 .78-.54.92-1 .9v1.65c.49 0 1 .14 1 .91v2.57c0 1.51 1.07 2.32 3 1.91v-1.65c-.81.13-1.06-.28-1.06-1.08v-2c0-1-.59-1.46-1.14-1.48a1.32 1.32 0 0 0 1.14-1.49v-2c0-.8.25-1.22 1.06-1.08v-1.64c-1.93-.42-3 .39-3 1.88zM64.39 42.6V40c0-1.51-1.07-2.32-2.94-1.9v1.65c.81-.14 1 .28 1 1.08v2a1.32 1.32 0 0 0 1.15 1.49 1.31 1.31 0 0 0-1.15 1.48v2c0 .8-.24 1.21-1 1.08v1.65c1.87.41 2.94-.4 2.94-1.91v-2.56c0-.77.51-.92 1-.91V43.5c-.46.02-1-.12-1-.9zM29.13 32.63v2.57c0 .79-.54.92-1 .91v1.65c.5 0 1 .13 1 .9v2.58c0 1.51 1.07 2.32 2.94 1.9v-1.65c-.81.14-1.05-.28-1.05-1.08v-2a1.33 1.33 0 0 0-1.15-1.49A1.31 1.31 0 0 0 31 35.45v-2c0-.8.24-1.21 1.05-1.08v-1.65c-1.85-.41-2.92.4-2.92 1.91zM36.71 41.24v-2.58c0-.77.52-.92 1-.9v-1.65c-.46 0-1-.12-1-.91v-2.57c0-1.51-1.06-2.32-2.94-1.91v1.65c.81-.13 1.06.28 1.06 1.08v2c0 1 .59 1.46 1.14 1.48a1.33 1.33 0 0 0-1.14 1.49v2c0 .8-.25 1.22-1.06 1.08v1.65c1.88.41 2.94-.4 2.94-1.91zM47.62 32.63v2.57c0 .79-.54.92-1 .91v1.65c.5 0 1 .13 1 .9v2.58c0 1.51 1.07 2.32 2.94 1.9v-1.65c-.81.14-1.05-.28-1.05-1.08v-2a1.33 1.33 0 0 0-1.15-1.49 1.31 1.31 0 0 0 1.15-1.48v-2c0-.8.24-1.21 1.05-1.08v-1.64c-1.87-.41-2.94.4-2.94 1.91zM55.2 41.24v-2.58c0-.77.52-.92 1-.9v-1.65c-.46 0-1-.12-1-.91v-2.57c0-1.51-1.06-2.32-2.94-1.91v1.65c.81-.13 1.06.28 1.06 1.08v2c0 1 .59 1.46 1.14 1.48a1.33 1.33 0 0 0-1.14 1.49v2c0 .8-.25 1.22-1.06 1.08v1.65c1.88.41 2.94-.4 2.94-1.91zM29.13 47.22v2.57c0 .79-.54.92-1 .91v1.65c.5 0 1 .13 1 .9v2.58c0 1.51 1.07 2.32 2.94 1.9v-1.65C31.26 56.22 31 55.8 31 55v-2a1.33 1.33 0 0 0-1.15-1.49A1.31 1.31 0 0 0 31 50v-2c0-.8.24-1.21 1.05-1.08v-1.61c-1.85-.41-2.92.4-2.92 1.91zM36.71 55.83v-2.58c0-.77.52-.92 1-.9V50.7c-.46 0-1-.12-1-.91v-2.57c0-1.51-1.06-2.32-2.94-1.91V47c.81-.13 1.06.28 1.06 1.08v2c0 1 .59 1.46 1.14 1.48A1.33 1.33 0 0 0 34.83 53v2c0 .8-.25 1.22-1.06 1.08v1.65c1.88.42 2.94-.39 2.94-1.9zM47.62 47.22v2.57c0 .79-.54.92-1 .91v1.65c.5 0 1 .13 1 .9v2.58c0 1.51 1.07 2.32 2.94 1.9v-1.65c-.81.14-1.05-.28-1.05-1.08v-2a1.33 1.33 0 0 0-1.15-1.49A1.31 1.31 0 0 0 49.51 50v-2c0-.8.24-1.21 1.05-1.08v-1.61c-1.87-.41-2.94.4-2.94 1.91zM55.2 55.83v-2.58c0-.77.52-.92 1-.9V50.7c-.46 0-1-.12-1-.91v-2.57c0-1.51-1.06-2.32-2.94-1.91V47c.81-.13 1.06.28 1.06 1.08v2c0 1 .59 1.46 1.14 1.48A1.33 1.33 0 0 0 53.32 53v2c0 .8-.25 1.22-1.06 1.08v1.65c1.88.42 2.94-.39 2.94-1.9zM29.13 18v2.58c0 .79-.54.92-1 .91v1.64c.5 0 1 .14 1 .91v2.57c0 1.52 1.07 2.33 2.94 1.91v-1.7c-.81.18-1.07-.28-1.07-1.08v-2a1.32 1.32 0 0 0-1.15-1.48A1.32 1.32 0 0 0 31 20.78v-2c0-.8.24-1.22 1.05-1.08v-1.65c-1.85-.42-2.92.39-2.92 1.95zM36.71 26.56V24c0-.77.52-.92 1-.91v-1.65c-.46 0-1-.12-1-.91V18c0-1.51-1.06-2.32-2.94-1.9v1.6c.81-.14 1.06.28 1.06 1.08v2A1.32 1.32 0 0 0 36 22.26a1.32 1.32 0 0 0-1.14 1.48v2c0 .8-.25 1.22-1.06 1.08v1.65c1.85.42 2.91-.39 2.91-1.91zM47.62 18v2.58c0 .79-.54.92-1 .91v1.64c.5 0 1 .14 1 .91v2.57c0 1.52 1.07 2.33 2.94 1.91v-1.7c-.81.14-1.05-.28-1.05-1.08v-2a1.32 1.32 0 0 0-1.15-1.48 1.32 1.32 0 0 0 1.15-1.48v-2c0-.8.24-1.22 1.05-1.08v-1.65c-1.87-.42-2.94.39-2.94 1.95zM55.2 26.56V24c0-.77.52-.92 1-.91v-1.65c-.46 0-1-.12-1-.91V18c0-1.51-1.06-2.32-2.94-1.9v1.6c.81-.14 1.06.28 1.06 1.08v2a1.32 1.32 0 0 0 1.14 1.48 1.32 1.32 0 0 0-1.14 1.48v2c0 .8-.25 1.22-1.06 1.08v1.65c1.88.42 2.94-.39 2.94-1.91z"/></g><path fill="#151841" d="M50.41 97.9a.6.6 0 0 1-.6-.6V39A.6.6 0 1 1 51 39v58.3a.6.6 0 0 1-.59.6z"/><path fill="#151841" d="M76.43 29.89c-1-4-5.61-2.51-8.13-.84a32 32 0 0 0-5.91 5.4c-.77.84-1.55 1.77-2.42 2.7l-1 1.12c.09-.09-.68.09-1 .09-.68.09-1.16.65-1.84.38a4.14 4.14 0 0 1-1-.84 1.68 1.68 0 0 0-2 0c-.48.46-.77.84-1.55.65a12.41 12.41 0 0 0-1.75-.65 2.46 2.46 0 0 0-1.45.46c-1.16.74-2.71-.28-3.58-.93a.62.62 0 0 0-.87.09 15.51 15.51 0 0 1-1.45 2c-2.61-1.3-4.45-3.73-6.2-5.86A53.54 53.54 0 0 0 31 28.5a11.2 11.2 0 0 0-3-2 6.38 6.38 0 0 0-2.91-.38c-.87 0-1.25 1.3-1.55 2a11.33 11.33 0 0 0-.68 4A42.36 42.36 0 0 0 24 40.5c.39 1.68.59 3.44 1 5.12a28.06 28.06 0 0 0 1.36 5.58 49.48 49.48 0 0 1 2.32 5.21c.39 1.3.87 2.61 1.16 3.91a23.07 23.07 0 0 0 1.36 3.91 29.51 29.51 0 0 0 4.65 7.17c1.84 2 4.93 1.58 7.26 2.7 2.23 1.58 4.65 3.16 7.36 3.54s5.41-1.64 7.74-3.44c1.84-.84 3.88-.84 5.81-1.49s3-2.8 3.88-4.38A28.75 28.75 0 0 0 71 61a33.31 33.31 0 0 0 .92-6.82 12.8 12.8 0 0 1 .24-1.38 84.09 84.09 0 0 0 3.2-10.89c.89-4 2-8.29 1.08-12zm-1 4.93a54.53 54.53 0 0 1-1.16 6.8 93.05 93.05 0 0 1-2.87 10.15 5.75 5.75 0 0 0-.46 2.09 38.57 38.57 0 0 1-.8 6.19 27.28 27.28 0 0 1-2.91 7.17c-1 1.77-1.93 3.91-4.16 4.47-1 .28-1.93.38-2.81.56a.47.47 0 0 0-.77-.38 29 29 0 0 0-2.81 2c-1.84 1.3-3.88 2.51-6.1 2.42A9.87 9.87 0 0 1 46 74.48c-.39-.19-1.55-1.12-1.75-1.21-.77-.56-1.45-1-2.23-1.58-.39-.28-.77.09-.77.56-.77-.19-1.45-.28-2.13-.46-2-.46-3.09-2-4.26-3.63a28.62 28.62 0 0 1-4-8.66c-.29-1-.68-2-1-3.16a13.66 13.66 0 0 0-1.75-4.28 15.4 15.4 0 0 1-1.64-5c-.39-1.68-.77-3.44-1.07-5.21-.4-2.64-.98-5.15-1.27-7.85-.2-2.32-.2-4.93 1.16-7a6.47 6.47 0 0 1 1.84.09 7.46 7.46 0 0 1 2.61 1.58c1.36 1 2.52 2.23 3.77 3.35 2.91 2.51 5.91 8 9.2 8.57a10.57 10.57 0 0 0 1.93-2.23 6.11 6.11 0 0 0 2.81 1.12 2.22 2.22 0 0 0 1.55-.36c.87-.46 1.07-.38 1.93.09a2.1 2.1 0 0 0 2.32-.09c.29-.19.59-.65 1-.65s.77.65 1 .74a2.43 2.43 0 0 0 2.23.38c.48-.09.68-.28 1.16-.38a1.63 1.63 0 0 0 1-.19c1.64-1.77 3.2-3.63 4.84-5.31A18.79 18.79 0 0 1 71 28.78c1.55-.65 3.58-.84 4.26.93a11 11 0 0 1 .21 5.11z"/></svg>
