<svg width="100" height="100" xmlns="http://www.w3.org/2000/svg" viewBox="0 0 100 100"><path fill="#d4d0cf" d="M17.46 78.9l31.9 18.63L81.25 78.9V21l-31.89-3.34L17.46 21z"/><path fill="#f15a29" d="M50.46 55.65h-33v-34.7l32.96-3.29.04 37.99z"/><path fill="#fff" d="M50.04 55.71h32.58v-34.7l-32.54-3.29-.04 37.99z"/><path fill="#4751a2" d="M50.04 55.65h32.58v22.89L50.08 97.53l-.04-41.88z"/><path fill="#151841" d="M50 16l-34 3.5v60.64L50 100l34-19.86V19.5zm31 62.44L50 96.53 19 78.44V22.19L50 19l31 3.19z"/><path d="M28.24 46.42V32.15h5.06v5h1.13l3.12-5h5.65l-4.64 7 4.94 7.26h-5.62L34.37 41H33.3v5.41z"/><path fill="#4751a2" d="M63.86 31.82c5.32 0 7.08 4.52 6.43 8H58c.18 4.13 3.39 5.83 6.81 5.83a9.59 9.59 0 0 0 4.64-1.13v1.13a10.48 10.48 0 0 1-4.79 1.07c-4.07 0-7.79-2.26-7.79-7.47 0-4.81 3.48-7.43 6.99-7.43zm.06 1.07a5.79 5.79 0 0 0-5.92 6h11.3a5.15 5.15 0 0 0-5.38-6z"/><path fill="#fff" d="M65.17 62.14a8.1 8.1 0 0 1 4.41 1.16v2.32a6.84 6.84 0 0 0-4.11-1.28c-2.76 0-5.65 1.55-5.65 5.29s2.8 5.3 5.59 5.3a8.63 8.63 0 0 0 4.31-1.16v2.38a10.35 10.35 0 0 1-4.63 1c-3.75 0-7.65-2.35-7.65-7.44s4.02-7.57 7.73-7.57z"/><path fill="#f15a29" d="M36.68 73.61a4.21 4.21 0 0 0-.74-2.14 2.31 2.31 0 0 0-1.88-.69H33l-1.1 7h-2.83L31 65.58a.71.71 0 0 1 0-.14.69.69 0 0 0 0-.13q0-.63-.42-.63a.9.9 0 0 0-.65.4c-.22.27-.44.57-.66.88s-.47.78-.71 1.25l-.6-.29a13.48 13.48 0 0 1 1.08-2.15 7.17 7.17 0 0 1 1.24-1.48A2.45 2.45 0 0 1 32 62.6a1.74 1.74 0 0 1 1.37.57 2.34 2.34 0 0 1 .5 1.63v.78l-.62 3.86h1.1a2.07 2.07 0 0 0 1.4-.5 5.49 5.49 0 0 0 1-1.27 15.85 15.85 0 0 0 .81-1.67 10.18 10.18 0 0 1 .93-1.65 5.34 5.34 0 0 1 1.25-1.26 3 3 0 0 1 1.79-.51 2.74 2.74 0 0 1 .64.08 4.63 4.63 0 0 1 .55.16l.47.21-1.3 3.12h-.81l-.59-2.08a2.6 2.6 0 0 0-1.06 1.13c-.29.53-.57 1.11-.86 1.71s-.6 1.18-.94 1.74a3.18 3.18 0 0 1-1.28 1.22v.15a7.46 7.46 0 0 1 1.36.31 3 3 0 0 1 .93.52 2 2 0 0 1 .58.82 5 5 0 0 1 .29 1.17l.17 1.49a4.7 4.7 0 0 0 .32 1.34c.11.21.23.32.37.32a.94.94 0 0 0 .63-.39 6.31 6.31 0 0 0 .66-.86c.22-.36.44-.79.68-1.28l.66.3a13.3 13.3 0 0 1-1.08 2.17 6.65 6.65 0 0 1-1.26 1.47 2.52 2.52 0 0 1-1.71.67 2.39 2.39 0 0 1-.79-.12 1.27 1.27 0 0 1-.59-.45 2.6 2.6 0 0 1-.42-.9 10.89 10.89 0 0 1-.28-1.51z"/></svg>
