<svg width="100" height="100" viewBox="0 0 100 100" xmlns="http://www.w3.org/2000/svg"><path fill="#A9A09F" d="M18.11 78.69L50 97.32l31.89-18.63V20.74L50 17.45l-31.89 3.29zm49.11-62.01h.3m5.42 5.89"/><path fill="#151841" d="M50 100L16 80.14V19.5L50 16l34 3.5v60.64L50 100zM19.04 78.44L50 96.53l30.96-18.09V22.19L50 19l-30.96 3.19v56.25z"/><path fill="#292E59" d="M64.99 52.58c-.64-.46-1.19-.37-1.93-.55-.18-.09-.55-1.82-.91-2.56-.91-1.65-2.93-2.64-4.49-3.65-11.02-6.3-27.11-18.97-27.11-18.97l-4.58 6.84c.34.23 3.78 3.22 5.42 4.96 1.03 1.11.48 1.24.76 1.33 1.19.37 4.08 2.91 4.99 3.27.64.82 1.16 1.96.37 3.47-.73 1.09-1.01 2.37-1.01 3.65 0 .73 1.19.91 1.19.09 0-1.09.64-1.65 1.19-2.64 0-.09.91-1.01.91-1.01s1.64-.37 2.1-.01c1.37 1.18 3.76 2.65 3.12 3.38-.84 3.37-3.94 3.74-4.03 3.74-.64.09 2.28 1.73 2.84 2 .18.08-3.49 15.04-3.67 14.96-.64-.27-.8 1.39-.26 1.84.09.09 8.04 4.64 8.68 4.91.64.37 2.11 1.36 2.84.82.83-.64 3.02-10.3 3.02-10.3.37-1.01 10.99-6.57 8.52-7.76-3.23-3.63-1.83-5.66-1.83-5.74.09-.82 1.19-1.28 1.83-1.28.46 0 .83.27 1.37.27.94.03 1.12-.79.67-1.06z"/><path fill="#fff" d="M52.07 81.04c1.65.91 2.57 2.28 3.75 3.74.46.55.83 1.09 1.19 1.65l-2.57 2.1 1.1 1.73c.18.18 17.13-9.48 15.85-10.94-.27-.27-1.01-1.82-1.37-2.1l-1.74-.09c-.73-.73-2.31-2.71-2.39-2.89-1.01-1.36-1.09-3.43-1.36-5.07-.27-1.73-.71-3.41-1.44-4.96-.73-1.55-2.58-3.91-3.95-4.92-.64-.46-1.88-.2-5.61-2.24-1.01-.27-8.98-.37-9.53-.82 0 0-4.21-2.19-3.85 2.19-.62 1.3 1.56 2.46 1.28 2.37-1.01-.64-2.11-.91-2.57.27-.91 2.1-.27 3.39 1.29 4.3 0 0-1.01.43-1.38 1.17-.83 1.46-.46 2.64.83 3.65 5.99 2.54 7.05.46 7.05.46 0-.09.91-1.28.46-2.1 0 0 1.73.54 2.19-.15.46-.37 1.23-1.22 1.04-1.77l-1.13-1.99c1.79.37 1.37-1.65 1.83-2.28-.18.55 3.21.09 3.11 1.82-.09 1.01-.91 4.01-.91 4.83 0 .73-.51 2.65.03 3.75-.55 2-1.23 4.87-1.77 5.22 0 0-.22 1-1.13.81l-3.6-1.91c.09.18.29.94.39 1.12.64.91 3.06 2.31 3.53 2.39-.09-.07 1.11.48 1.38.66zm-7.79-32.2c-.09-.37-.46-.64-.83-.46l-.64.27c-.73-.18-1.47.18-1.93.82-.73.82-1.01 1.82-.37 2.74.18.27.73 1.01.91 1.01.64 0 1.47 0 1.83-.46.46-.18.83-1.01 1.1-1.46.49-.54.03-2.37-.07-2.46z"/><path fill="#818385" d="M50.15 64.43c.46-.18.64-1.09.46-1.65-.18-.64-.64-.91-1.28-1.18-1.1-.37-1.93-.73-2.93-1.36-.37-.46-.83-.46-.73-1.01.09-.64-.83-1.09-1.1-.46-.37.82-.73 2.37-1.65 2.83-.46.18-.83.55-1.19.91-.18.18-.37.46-.46.82 0 .09-.09 1.01.09 1.36.18.27.27.55.55.73-.64 1.28-1.65 2.74-1.47 4.29.18 1.18 4.77 1.82 4.95 1.82 1.19-.46 2.49-.83 2.31-2.29 0-.18-1.48-1.18-1.66-1.08.09-.09 1.01.27 1.28.27 0 0 .83.91 2.38-.09 2.49-2.28-1.37-3.65-1.56-3.65.08-.08 1.55.02 2.01-.26z" opacity=".4"/><path fill="#292E59" d="M76.25 81.32c-.73-.55-2.01-1.92-3.02-2.1-.64-.09-17.59 11.13-18.23 11.77-.35.36.71 2.09 1.34 1.91l19.91-11.58z"/><path fill="#818385" d="M57.01 75.38c-.91-.18-1.83-.46-2.66-1.01-.37-.18-.91-1.09-1.01-.73-.09.27-.37.96-.47 1.24-.09.18-.45 1.73-.63 2.19-2.5 2.7.21 1.66.48 1.02.18-.37 1.16-.98 1.43-1.35.83-.09 1.65-.09 2.57-.18.76-.08 1.03-1.09.29-1.18z" opacity=".4"/><path fill="none" d="M42.73 22.84H43m24.1 0h.27"/><path fill="#151841" d="M30.64 27.31l-4.4-2.91-.55.73-1.56 2.19-.55.82 4.4 2.91c.09.09.18.09.27.09.18 0 .27 0 .37-.18l2.01-3.01c.09-.09.09-.27.09-.37.1-.09.01-.18-.08-.27z"/><path fill="none" d="M42.08 52.95c.27-.09.64-.27.91-.55.18-.18.37-.27.46-.46l.55-.82.27-.64v-.27c0-.18 0-.27.09-.37v-.55l-.26-.19h-.09c-.91-.27-1.93-.37-2.57.37-.46.46-.73 1.09-.83 1.73.09.09.09.18.09.37-.08.64.84 1.28 1.38 1.38zm.74.99c-.37.09-.64.09-1.01 0l-.46.09c.18.09.37.27.46.37 1.74.64 3.02-.55 3.48-1.18.91-1.01 1.1-2.1.91-2.28-.09-.09-.09-.09-.09-.18l-.91-.73v.18c0 .73-.46 1.36-.83 2-.27.64-.73 1.55-1.55 1.73zm1-15.69c0 .09 0 .18.09.18l3.48 2.56c.09.09.18.09.27.09l.64-.27-4.21-3.2-.27.64zm-4.21 12.86c.09-.91.46-1.82 1.19-2.46.55-.46 1.1-.64 1.65-.73l-.55-.46c-.46-.37-1.37-.55-1.83-.27l-.18.09-.09.18c-.91.64-1.83 2.28-1.37 3.47.18.64.73 1.01 1.28 1.46-.09-.37-.18-.64-.09-1.09l-.01-.19zm13.75-4.74l-.37-.27c-.46.73-.91 1.36-1.28 2.1 0 .09-.09.09-.18.18l.37.27 1.37-2.19.09-.09z"/><path fill="#151841" d="M41.44 71.01c-.09.18-.09.37-.18.46-.1.09-.09.09-.09.18-.09.09 0 .27 0 .37 0 .18 8.61 4.11 8.61 4.11.48.22.73 0 .91-.27l2.93-12.68c-.27-.18-.64-.27-1.01-.37l-2.84 12.32-7.51-3.55.09-.37c-.17-.03-.54-.11-.91-.2zm12.1-4.29c0 .27 0 .64-.09.91l.27-1.36c-.09.08-.18.26-.18.45zm-12.64-1.1h.09v-.09h-.09v.09z"/><path fill="#292E59" d="M29.72 27.76l-3.58-2.56-1.64 2.37 3.75 2.37 1.47-2.18z"/><path fill="#4751A2" d="M22.58 28.4L9.66 19.28c-.37-.27-.46-.73-.18-1.09l2.75-3.92c.37-.37.91-.46 1.19-.18l12.92 9.12c.37.27.46.73.18 1.09l-2.75 3.92c-.28.37-.82.46-1.19.18z"/><path fill="#151841" d="M26.43 22.56L13.6 13.44c-.27-.18-.55-.27-.83-.27-.37 0-.64.18-.91.37-.18-.37-.83-.46-1.1 0-.91 1.18-1.74 2.37-2.66 3.65-.37.46.09.91.55.82-.09.27-.18.55-.09.82.09.37.37.73.64.91l12.92 9.12c.27.18.55.27.83.27.55 0 1.01-.27 1.19-.64l2.75-3.92c.35-.64.17-1.55-.46-2.01zm-.64 1.28l-1.37 2c.18-.55-.09-1.18-.73-1.18-1.1 0-1.1 1.73 0 1.73.18 0 .37-.09.55-.18l-1.1 1.65c0 .09-.09.09-.09.09h-.09l-1.19-.82c.91-.18.91-1.73-.18-1.73-.64.09-.91.55-.83 1.01l-1.19-.91c.91-.18.83-1.73-.18-1.73-.64.09-.91.55-.83 1.01l-1.65-1.09c1.01-.09 1.01-1.73-.09-1.73-.64 0-.91.64-.83 1.09l-1.28-.91c1.01-.09.91-1.73-.09-1.73-.64 0-.91.64-.83 1.09l-1.19-.82c.91-.18.83-1.73-.18-1.73-.64 0-.83.55-.73 1.01l-1.01-.73c1.1 0 1.1-1.73 0-1.73l1.37-1.92c.09.27.37.37.73.37.55 0 .83-.37.83-.82l.91.64c-.73.37-.55 1.65.37 1.65.55 0 .83-.37.83-.82l1.19.82c-.91.18-.83 1.73.18 1.73.64 0 .91-.55.83-1.01l1.47 1.01c-1.01 0-1.01 1.73 0 1.73.64 0 .91-.64.73-1.18l1.28.91c-1.01.18-.91 1.73.09 1.73.64 0 .91-.55.83-1.09l1.47 1.01c-.91.18-.91 1.73.18 1.73.64 0 .91-.55.83-1.01l1.1.73c-.11.05-.11.05-.11.13zm-4.31-.82c-1.1.09-1.1 1.73 0 1.73s1.1-1.73 0-1.73zm-8.71-6.48c-1.1 0-1.1 1.73 0 1.73s1.1-1.73 0-1.73zM14.88 18c-1.1 0-1.1 1.73 0 1.73s1.1-1.73 0-1.73zm2.1 1.65c-1.1 0-1.1 1.73 0 1.73s1.1-1.73 0-1.73zm2.39 1.64c-1.1 0-1.1 1.73 0 1.73s1.1-1.73 0-1.73zM40.07 73.28l5.78 3.43c.22 2.87 3.21 3.95 4.85 4.59l.46.18c2.75 1.13 4.3 4.47 4.61 5.23l-1.86 1.34c-.09 0-.09.09-.18.18-.18.18-.27.55 0 .73.46.37.83.73 1.1 1.28l.09.18c-.09.09-.18.18-.27.18-.27.18-.27.46-.18.73.09.66.31 1.66.74 2.16l1.13-.61c-.29-.35-.63-1.2-.69-1.64 5.41-3.65 17.41-11.4 17.58-11.5.9.77 1.75 1.54 2.62 2.31l1.05-.56-3.3-2.85c-.27-.27-.64-.18-.83 0 0 0-.09 0-.09.09l-.55.37-1.74-2.37c-.18-.37-.64-.37-.91-.09l-.39.29-3.28-3.76c0-1.25-.32-5.7-3.17-10.83l.04-.02c.37-.18.64-.37.83-.73.27-.55.27-1.28-.18-1.73l-1.37-1.55-.64-1.01v-.73c-.09-.64.09-1.36.46-1.92.27-.37.64-.55 1.1-.55l1.93-.09c.55 0 1.01-.46 1.01-1.01s-.27-1.09-.83-1.28l-1.56-.64c-.18-.09-.27-.27-.37-.46l-.27-1.09c-.18-.64-.55-1.18-1.1-1.55l-11.45-7.84c-.09-.09-.27-.09-.46 0l-.37.18-4.95-3.74v-.09c.09-.18 0-.46-.18-.55L31.21 26.5c-.05-.34-1.12-.39-1.49-.02-.18-.27-.73-.37-1.01 0-.83 1.18-1.74 2.46-2.47 3.74-.27.37 0 .73.27.82l-1.1 1.65-.03.05-.07.04c-.18.27-.27.91-.09 1.09l5.86 5.2.09.55c0 .09.09.18.18.27l5.04 3.65c1.47 1.09 1.1 2 .73 2.56l-.46.73c-.27.46-.46.91-.64 1.46-.46 1.46.09 3.01 1.28 3.92l.37.27c1.19.91 2.28 1.73 3.11 2.28 0 .03.17.15.38.29-.49.22-.9.55-1.2.99-.73 1.09-.55 2.28-.27 3.47-.55.18-1.37 1.09-1.37 1.18-.83 1.82-.46 3.37.73 4.56-1.1.46-1.65 1.28-1.74 2.56 0 1.18.27 2.28 1.37 2.91l.58.26-.03.11c-.26.83.1 1.74.84 2.19zm6.95 3.19c-.09-.18-6.51-3.84-6.51-3.84-.36-.26-.45-.71-.36-1.08l.07-.18c1.66.63 3.49 1.07 5.16.73 1.28-.27 2.38-1.46 2.38-2.74h.27c1.1-.27 2.28-.91 2.47-2.19.09-.73-.18-1.46-.64-2 .73-.37 1.28-1.09 1.47-2.1l1.65.46c-.09.18.64.73.73.82.09.73-.27 1.36-.46 2.1-.37 1.28-.55 2.83-.55 4.19 0 .56.04 1.14.15 1.69-.52 3.27-1.35 5.61-2.17 6.06 0 .09-.18.09-.46-.09l-3.2-1.83zm22.82 1.19c.46.64 1.01 1.28 1.37 1.92-5.21 3.28-10.34 6.74-15.45 10.11l-.03-.08c-.27-.37-.46-.73-.83-1.09.41-.29.83-.59 1.23-.88l.01-.01c4.55-3.27 9.16-6.62 13.7-9.97zm-5.16-4.46v.37l3.1 3.88-10.99 8.21c-.73-1.36-2.46-4.18-5.3-5.28-.08-.08-3.19-1.25-4.34-2.73.66.34 3.19 1.66 3.26 1.66.27 0 .46-.09.73-.18.37-.18.64-.46.91-.91.49-.9.99-2.75 1.41-4.24.16.27.37.53.6.77.91 1.01 2.38 1.65 3.75 1.55.73 0 .73-1.09 0-1.09-1.37 0-2.75-.73-3.48-1.92-.73-1.09-.55-3.01-.37-4.29.09-1.01.18-2.19.64-3.1.18-.37.37-.91.37-1.46.73 0 1.37-.37 1.74-1.18.27-.64-.64-1.18-.91-.55-.18.46-.55.64-1.01.64-1.01-1.65-3.67-1.28-5.22-1.73-.73-.18-1.37-.46-2.11-.73-.83-.37-1.37-1.28-1.83-2-.46-.73-.46-1.55.46-1.92.55-.18 2.28.18 2.28.18.55.09 1.19.27 1.83.27h.91c.91-.09 2.57.37 2.66.27 1.01.37 1.83.91 2.75 1.46.64.37 1.62-.1 2.2.37 5.35 4.24 5.96 13.59 5.96 13.68zM47.45 56.03c.6-1.77 1.18-3.34 1.52-4.27l.18-.09c.73-.18 2.84.64 4.4 1.73.62.44 1.09 1.81.72 2.72l-.17.71c-.22-.06-.44-.12-.64-.16-.18 0-1.74-.37-2.57-.18-.83.18-1.74 0-2.47-.27-.19.01-.8-.15-.97-.19zm-3.63-17.78l.27-.64 4.21 3.2-.64.27c-.09 0-.18 0-.27-.09l-3.48-2.56c-.09.01-.09-.08-.09-.18zm-14.43-9.18l12.51 8.92c.09.09.18.09.27.09.18 0 .27-.09.46-.18.2-.27.1-.54-.09-.73l-12.52-8.92c.22-.28.42-.57.63-.86l12.72 9.13-.55 1.46v.09c-.09.46.09.91.46 1.18l3.48 2.56c.37.27.83.37 1.19.27l1.83-.82 11.28 7.77c.37.18.64.55.73 1.01l.27 1.09c.09.46.46.91.91 1.09l1.56.64c.18 0 .27.18.27.37l-1.93.09c-.73.09-1.37.37-1.83 1.01l-.37.55-7.69-5.47v-.09l1.37-2.19 6.69 4.75c.09.09.18.09.27.09.18 0 .27-.09.46-.18.18-.27.09-.55-.09-.73l-12.64-9.03c-.27-.18-.55-.09-.73.09-.18.27-.09.55.09.73l3.57 2.56-1.37 2.19v.09L34.4 36.27c.18-1.01-.55-1.82-1.19-2.56-.27-.18-1.74-1.55-3.48-2.91l-.91-.73-.12-.06c.22-.33.46-.63.69-.94zm22.58 19.58l-.37-.27.18-.18c.46-.73.91-1.36 1.28-2.1l.37.27-.09.09c-.44.73-.9 1.47-1.37 2.19zm-14.74 2.11v.09c-.46-.64-.55-1.46-.27-2.19.09-.46 1.01-2 1.01-2 .55-.82 1.1-2.37-.91-3.92l-4.85-3.47s-.18-.73-.27-.82l-5.71-5.07.12-.13c.52-.8 1.13-1.63 1.75-2.46.02.03.53.46.99.82 1.1.91 3.11 2.64 3.38 2.91.73.73 1.01 1.28.91 1.82-.09.18 0 .37.18.55L60.4 55.78v1.01s.18.91.18 1.01c.18.37.55.82.83 1.18l1.28 1.82c.18.18.18.46.09.64 0 .09-.09.18-.18.18-.09.09-.18.09-.27 0l-.17-.11-.12-.21c-.27-.51-.8-1.11-1.07-1.42-.91-1.01-1.93-1.36-3.21-1.46-.83-.09-1.19-.46-1.93-.82a6.51 6.51 0 0 0-.74-.39l.18-.8c.46-1.18-.09-3.01-1.1-3.74-1.47-1.01-4.03-2.19-5.31-1.82-.55.18-.73.46-.83.73-.42 1.01-.91 2.55-1.57 4.36-.37 0-.74.05-1.09.21-.09-.09-1.18-.49-1.59-.74.83-.23 1.64-.79 2.33-1.55.91-1.09 1.65-2.74 1.01-3.55 0-.09-.09-.18-.18-.27l-4.67-3.47c-.46-.35-1.16-.57-1.85-.57-.41 0-1.34.53-1.51.73-.2.22-.39.43-.39.49-.92.98-1.56 2.26-1.29 3.54zm4.68 3.63l-.46-.37c.17.02 1.19.02 1.46-.08.83-.18 1.28-1.09 1.65-1.73.37-.64.83-1.28.83-2v-.18l.91.73c0 .09.35.89-.91 2.46-.55.54-1.83 1.81-3.48 1.17zm-2.21-2c-.55-.37-1.01-.82-1.28-1.46-.76-1.73 1.65-3.74 1.65-3.74.46-.27 1.37-.09 1.83.27l.64.46c-.55.09-1.1.27-1.65.73-.83.64-1.19 1.55-1.28 2.46 0 .1-.09.91.09 1.28zm.92-1.18c0-.64.27-1.28.83-1.73.64-.73 1.65-.64 2.57-.37.09 0 .37.18.37.18 0 .18.18.55-.37 1.73-.55.82-.83 1.18-1.01 1.28-.27.27-.55.55-.91.64-.56.01-1.56.08-1.48-1.73zm.19 5.76c.36-.65 1.09-.92 1.73-.92.55.46 1.19.82 1.93 1.01-.46.73-.37 1.55 0 2.37.83 1.18 1.83 2.28 3.3 2.83.83.27 1.74.46 2.57.64-.27 3.1-3.75.55-5.04-.18-1.74-.64-4.77-3.37-4.85-3.37-.28-.83-.1-1.56.36-2.38zm-1.83 6.02c.08-2.48 1.36-2.48 1.36-2.57.37.09 1.83 1.46 2.93 2.1 1.37.73 2.66 1.65 3.94 2.37.27.18.91.37 1.01.37.73.18 1.28.91 1.28 1.65.18.73-.55 1.01-1.19 1.28-.18.09-1.01-.18-1.19-.18-.73-.27-1.65-.73-1.83-.82-1.01-.37-2.01-.82-3.02-1.18-1.46-.65-3.1-1.56-3.29-3.02zm-.29 4.92c.01-1.11.47-1.65 1.57-1.92.18.18.46.27.73.46 1.47.73 3.11 1.28 4.67 1.92.37.18.83.37 1.28.64.18.73-.46 1.28-1.01 1.65-.64.46-1.28.37-2.01.27-1.56-.18-3.02-.64-4.4-1.28-.73-.38-.83-1.02-.83-1.74z"/></svg>