<svg width="100" height="100" viewBox="0 0 100 100" xmlns="http://www.w3.org/2000/svg"><path fill="#A9A09F" d="M18.11 79.07L50 97.7l31.89-18.63V21.11L50 17.83l-31.89 3.28z"/><path fill="#fff" d="M82.6 79.07c0-.2 0-4.91-.1-6.24-.1-2.66.41-13.29-.41-15.64-.2-.2-19.83-1.11-19.83.32.1 7.67-.57 8.78-.57 8.78-.31-4.19-3.69-7.26-7.69-7.26s-7.48 3.17-7.79 7.05h-.31c-.31-3.99-3.69-7.05-7.79-7.05s-7.48 3.17-7.79 7.05v1.73c-.1 0-7.69-.4-10.97-.5-1.13 0-1.23 10.22-.61 12.06.31.93 18.86 10.84 18.86 10.84l13.12 7.67 11.07-6.34s11.79-6.75 13.43-7.67c.82-.51 7.38-4.08 7.38-4.8z"/><path fill="#151841" d="M50 100L16 80.14V19.5L50 16l34 3.5v60.64L50 100zM19.04 78.44L50 96.53l30.96-18.09V22.19L50 19l-30.96 3.19v56.25z"/><path fill="#fff" d="M45.9 66.09c-.31-3.99-3.69-7.05-7.79-7.05s-7.48 3.17-7.79 7.05v15.44H45.9V66.09z"/><path fill="none" stroke="#29323C" stroke-width=".625" stroke-miterlimit="10" d="M74.4 60.67"/><path fill="#4751A2" d="M31.56 51.68s9.01 6.12 9.01 6.22c.51.63.86 1.29 1.09 1.96 2.36 1.18 4.04 3.48 4.24 6.22h.31c.31-3.88 3.79-7.05 7.79-7.05 3.61 0 6.73 2.51 7.51 6.08.1 0 .17-.01.17-.05.1-2.15.2-3.78 0-5.83l-.2-1.12c.41-.31 0-.51-.41-.82-.72-.41-2.15-1.12-2.25-1.23-.2-.31-3.28-6.85-4.3-6.65-2.87-.92-8.61-2.25-22.24.31-.52.01-1.53 2.06-.72 1.96z"/><path fill="#151841" d="M62.72 89.64V57.19h-1.33v28.12H37.4c-.92 0-.92 1.33 0 1.33h23.99v2.66c-8.06 0-16.02.1-23.99.1-.92 0-.92 1.33 0 1.33 8.06 0 16.03-.1 23.99-.1v.2h1.33v-.55c.1-.19.1-.45 0-.64zm-5.34 3.74l-12.51.1c-.92 0-.92 1.33 0 1.33l12.51-.1c.82 0 .82-1.33 0-1.33z"/><path fill="#F15A29" d="M69.79 33.57c-1.64 2.45-3.28 4.81-5.74 6.44C62 41.34 59.54 42.16 58 44c-1.54 1.74-2.25 4.29-1.95 6.54.31 2.35 1.74 4.5 3.69 5.83.61.41 1.23.72 1.95.82.82.2 7.38-.41 10.15-.41 0 0 6.15.41 8.71.72.72.1 1.33-.41 1.95-.82 1.95-1.33 3.38-3.48 3.69-5.83.31-2.35-.41-4.81-1.95-6.54-1.54-1.84-3.89-2.66-5.95-3.99a18.453 18.453 0 0 1-6.05-6.75"/><path fill="#151841" d="M85.68 45.43c-1.23-2.45-6.25-5.21-6.46-5.32-4.77-3.21-5.95-5.83-6.46-6.85.31-.41.51-.92.51-1.43 0-1.02-.82-1.94-1.84-2.15v-1.43c.2-.1.51-.2.72-.41.72-.31.41-1.23-.31-1.02l-.41.31v-.82h.72c.72 0 .72-1.12 0-1.12h-.72v-.72c0-.72-1.23-.72-1.23 0v.72h-.92c-.72 0-.72 1.12 0 1.12h.92v1.23c-.31.1-.51.2-.72.31-.82.31-.41 1.23.2 1.02.2-.1.41-.1.51-.2v1.02c-.92.31-1.54 1.12-1.54 2.15 0 .51.2.92.41 1.33l-.1.1c-1.02 1.53-2.05 2.97-3.28 4.29-1.33 1.43-2.97 2.35-4.72 3.27-2.05 1.02-3.69 2.45-4.82 4.29V39.5c.51-.1 1.02-.51 1.64-1.02 1.23-.92 2.36-1.94 3.07-3.27 2.25-4.09.92-9.3-2.56-12.17l-6.56-4.19c-2.15-1.64-3.79-3.88-5.13-6.24v-.1c.41-.51.72-1.12.61-1.74 0-1.23-.92-2.35-2.15-2.56V6.48l.94-.41c.92-.31.51-1.53-.41-1.23l-.51.31v-.92h.82c.82 0 .82-1.33 0-1.33h-.82v-.82c0-.92-1.43-.92-1.43 0v.82h-1.13c-.82 0-.82 1.33 0 1.33h1.13c0 .51 0 .92.1 1.43-.31.1-.61.2-.92.41-.93.41-.52 1.53.3 1.23l.61-.2v1.23c-1.13.31-1.84 1.33-1.84 2.56 0 .82.31 1.53.92 2.05-2.15 3.07-4.3 5.73-7.79 7.57-3.07 1.64-5.54 3.27-6.87 6.65-1.13 3.07-.41 6.54 1.64 9.2 1.02 1.23 2.56 2.66 4.2 2.97v9.41l-3.07.61-.82-1.33c.51-.51.82-1.12.82-1.94 0-1.23-.92-2.35-2.15-2.56v-1.74l.92-.41c.92-.31.51-1.53-.41-1.23l-.51.31v-.95h.82c.82 0 .82-1.33 0-1.33h-.82v-.82c0-.92-1.43-.92-1.43 0v.82h-1.13c-.82 0-.82 1.33 0 1.33h1.13c0 .51 0 .92.1 1.43-.31.1-.61.2-.92.41-.92.41-.51 1.53.31 1.23l.61-.2v1.23c-1.13.31-1.84 1.33-1.84 2.56 0 .72.31 1.33.72 1.84-.92 1.43-1.95 2.66-3.07 3.88-1.33 1.33-3.07 2.15-4.82 3.07-2.87 1.64-4.51 4.5-4.3 7.77.2 3.07 2.25 5.73 5.13 6.85.82.31 1.74.31 2.56.31 1.43.1 2.87.2 4.3.2h5.13c1.95 0 4.2.31 6.15-.2 2.97-.82 4.82-4.09 5.13-6.85.41-3.37-1.74-6.24-4.41-7.87-1.54-.92-3.07-1.74-4.51-2.86-.61-.51-1.13-1.12-1.64-1.74 7.59-1.74 15.58-2.45 23.06-.41.2 2.45 1.43 4.7 3.28 6.34 1.95 1.64 3.79 1.53 6.25 1.43h.41c2.25-.1 4.41-.41 6.66-.31 2.25.1 4.51.31 6.77.51 1.23.1 3.01.2 4.2 0 1.43-.82 1.68-1.84 2.6-3.17 3.12-3.89 1.05-8.3.47-9.52zm-2.36-1.02c.72.61 1.23 1.43 1.54 2.25l-.92 1.12c-.51-.82-1.02-1.64-1.43-2.56l.81-.81zm-1.13-.92l-.31.31c-.1-.2-.2-.41-.2-.72.1.21.31.31.51.41zm.92 5.32c-.41.51-.82 1.02-1.23 1.64-.61-.82-1.13-1.74-1.64-2.56l1.33-1.64c.52.92 1.03 1.74 1.54 2.56zm-3.79-7.06l.61.31c.31.92.72 1.84 1.13 2.76l-1.54 1.74-1.84-3.07c.51-.51 1.02-1.12 1.64-1.74zm-.72 5.93c-.41.51-.72 1.02-1.02 1.53l-.72 1.12c-.72-1.02-1.43-2.15-2.05-3.27.61-.82 1.23-1.64 1.95-2.45l1.84 3.07zm-2.87-8.48c.72.61 1.54 1.23 2.36 1.84-.41.41-.82.82-1.13 1.23-.51-.93-.92-1.95-1.23-3.07zm-.92 1.12c.41 1.02.82 2.05 1.33 2.97-.72.82-1.33 1.64-1.95 2.56-.51-.92-1.02-1.84-1.54-2.86.62-.93 1.34-1.85 2.16-2.67zm-1.54 6.75l-.61.92-1.43 2.35c-.41-.72-.82-1.43-1.13-2.15l-.51-.92c.61-1.02 1.33-2.05 2.05-2.97.51.93 1.02 1.85 1.63 2.77zm-.31-11.04l.92 1.23c.1.51.2 1.02.41 1.64-.82.92-1.54 1.84-2.25 2.76-.2-.51-.51-1.02-.72-1.64-.2-.51-.41-1.02-.51-1.53l2.15-2.46zm-1.97-5.32c.72 0 1.13.51 1.13 1.12 0 .61-.51 1.12-1.13 1.12-.61 0-1.13-.51-1.13-1.12 0-.61.52-1.12 1.13-1.12zm-.59 3.27c.2.1.51.1.72.1.2 0 .41 0 .61-.1.1.31.31.51.51.82l-1.95 2.15c-.2-.72-.31-1.43-.41-2.05v-.1c.21-.2.32-.51.52-.82zm-.72 5.73c.1.2.2.41.31.72.31.82.61 1.64 1.02 2.45-.72.92-1.43 1.94-2.05 2.97-.51-1.12-.92-2.25-1.33-3.48l2.05-2.66zm-1.64-2.35l.61-.82c.1.61.31 1.12.51 1.74-.61.82-1.33 1.64-1.95 2.35l-.31-2.05c.42-.3.83-.71 1.14-1.22zm.11 9.81c-.72 1.12-1.33 2.25-1.95 3.37l-.61-1.33c-.31-.82-.61-1.64-.82-2.56.61-1.02 1.33-2.05 2.05-2.97.3 1.14.81 2.37 1.33 3.49zm-4-6.23c.51-.31 1.02-.72 1.54-1.12.1.72.31 1.43.41 2.25-.72.92-1.33 1.84-1.95 2.76-.2-1.02-.41-2.05-.51-3.07 0-.37.51-.72.51-.82zm-3.22 1.8l.33-.16-.33.49v-.33zm-.37 2.8l1.95-2.45c.2 1.12.41 2.25.61 3.27-.72 1.12-1.43 2.25-2.05 3.48-.41-1.34-.61-2.87-.51-4.3zm-1.13-1.84l-.2 1.23c-.1.1-.2.2-.31.41-.92 1.23-1.64 2.56-2.25 3.99.1-2.16 1.12-4.2 2.76-5.63zM58 53.82a6.65 6.65 0 0 1-.92-1.94c.72-1.53 1.33-3.07 2.15-4.4.1 1.43.51 2.76 1.02 3.99l-1.54 3.27-.71-.92zm5.33 2.55v.2H62.1c-.82 0-1.54-.41-2.25-.92l1.23-2.76c.61 1.12 1.43 2.25 2.36 3.27-.01.11-.11.21-.11.21zm.72-1.43c-.82-1.02-1.64-2.15-2.15-3.37l1.84-3.37c.2.61.41 1.23.72 1.84.31.72.61 1.33 1.02 1.94-.61.92-1.02 1.94-1.43 2.96zm4.4 1.33l-2.97.2c-.2-.2-.41-.31-.51-.51l1.23-2.76c.72 1.02 1.54 1.94 2.36 2.76 0 .21 0 .31-.11.31zm-1.53-4.39l1.84-3.37c.51 1.02 1.13 2.15 1.74 3.27-.51 1.02-.92 1.94-1.33 2.97-.82-.93-1.64-1.85-2.25-2.87zm5.12 4.39h-1.43l-.1-.1-.31-.31c.41-.92.82-1.84 1.23-2.66.72 1.12 1.54 2.25 2.46 3.17-.62-.1-1.23-.1-1.85-.1zm0-4.5c.51-1.02 1.13-2.05 1.74-3.07l.2-.31 2.15 3.37c-.61 1.12-1.13 2.35-1.54 3.48-.91-1.11-1.83-2.24-2.55-3.47zm6.77 4.91c-1.02-.1-1.95-.2-2.97-.2l-.2-.2c.41-1.12.92-2.25 1.43-3.37.2.2.41.51.51.72.51.61 1.02 1.23 1.74 1.84l-.51 1.21zm-.31-4.19c-.2-.31-.51-.61-.72-.82.2-.51.51-.92.82-1.33l.82-1.23 1.74 2.66c-.51.82-.92 1.64-1.23 2.56-.51-.71-1.02-1.33-1.43-1.84zm1.74 4.29l.2-.51c.31.2.51.31.82.41-.3.21-.71.21-1.02.1zm3.28-1.84c-.31.41-1.02 1.12-1.64.61l-.92-.51c.31-.72.72-1.53 1.02-2.15.62.62 1.13 1.34 1.54 2.05zm.92-1.12c-.61-.72-1.13-1.43-1.64-2.15.31-.61.72-1.12 1.13-1.64.41.61.92 1.23 1.43 1.84-.2.62-.51 1.33-.92 1.95zm.31-4.91l.61-.82c.1.51.2 1.02.2 1.53v.41c-.3-.3-.5-.71-.81-1.12zM36.99 82.34h25.42l-.1-16.97c-.61-3.99-4.2-7.05-8.41-7.05-3.59 0-6.66 2.25-7.89 5.32a8.419 8.419 0 0 0-4.41-4.6c.31.61.41 1.23.51 1.94 1.74 1.12 2.87 2.97 3.07 5.21v14.72h-8.3m24.3-14.42l.1 14.43H46.83V66.19c.41-3.58 3.48-6.44 7.18-6.44s6.87 2.76 7.18 6.44l-.01.3zm15.89-3.47c-.1-1.94-1.33-3.07-2.66-3.07-1.43 0-2.97 1.12-2.77 3.37v11.35h5.43V63.02zm-1.34 10.22h-2.66V63.02s.1-1.58 1.28-1.58c.72 0 1.28.35 1.28 1.89v9.92h.1z"/><path fill="#fff" d="M60.4 28.67c.2.82.31 1.74.2 2.66h-.2c-4.41 1.02-8.92 2.86-12.61 5.73-1.84-.1-3.69-.1-5.54 0 2.36-2.25 5.54-3.68 8.41-5.11 2.97-1.33 6.36-2.97 9.64-3.37.1-.02.1.09.1.09z"/><path fill="#F15A29" d="M44.2 13.53h.41l.92-.1c.41.72.72 1.33 1.23 1.94-1.74.51-3.59 1.12-5.23 1.94a68.8 68.8 0 0 0 2.67-3.78z"/><path fill="#fff" d="M31.8 24.27c.61-.51 5.23-3.27 5.43-3.37 3.28-1.84 6.77-3.48 10.35-4.29l1.13 1.33c-4.3 1.12-7.38 3.07-11.28 5.32-2.87 1.74-5.64 3.58-8.1 5.83.33-1.86 1.13-3.49 2.47-4.82z"/><path fill="#F15A29" d="M30.05 33.88c-.51-.92-.72-1.75-.82-2.77.1-.15.31-.3.51-.5 2.46-2.45 5.43-4.5 8.41-6.24 3.79-2.25 7.69-4.09 11.99-5.21.72.61 1.43 1.12 2.15 1.64-3.18.82-5.54 2.25-8.61 3.68-5.02 2.55-9.62 5.62-13.63 9.4z"/><path fill="#fff" d="M33.95 37.25c-.1.1-.18.17-.28.34-1.13-.41-1.88-1.26-2.7-2.39l.24-.24c3.76-3.71 8.22-6.54 12.98-8.96 3.28-1.53 6.56-3.07 10.15-3.99L57 23.54c.31.2.61.41.82.61-4.72.61-9.12 3.07-13.22 5.32-3.78 2.16-7.77 4.61-10.65 7.78z"/><path fill="#F15A29" d="M44.93 30.81c4.2-2.56 8.92-5.11 13.94-5.42.41.51.82 1.23 1.13 1.84-3.28.51-6.56 1.94-9.64 3.37-3.59 1.64-7.48 3.68-10.15 6.65-1.43.1-2.87.31-4.2.61-.2 0-.41.1-.72.1 2.67-2.85 6.25-5.1 9.64-7.15zm9.62 7.16c-.61-.2-1.23-.31-1.84-.41-1.02-.1-1.95-.2-2.87-.31 3.07-2.15 6.87-3.58 10.46-4.5-.1.51-.31.92-.51 1.43-.72 1.74-2.15 2.56-3.48 3.68-.62.62-.94.31-1.76.11z"/><path fill="#151841" d="M36.58 69.26h1.33V89.6h-1.33V69.26z"/><path fill="#F15A29" d="M28.31 44.62c.82 0 1.33.61 1.33 1.33s-.61 1.33-1.33 1.33c-.72 0-1.33-.61-1.33-1.33.01-.72.63-1.33 1.33-1.33zm7.18 10.63c1.64.92 3.28 1.74 4.41 3.37 1.13 1.53 1.43 3.58 1.02 5.42s-1.64 3.27-3.28 4.19c-.92.51-2.05.51-3.07.51-1.95 0-4 0-5.95-.1-2.05-.1-4.2.1-6.25-.1-.92-.1-1.95-.1-2.77-.31-1.84-.51-3.28-2.45-3.79-4.19-.61-1.84-.31-3.78.61-5.52.92-1.64 2.56-2.45 4.2-3.27 3.07-1.53 4.92-3.88 6.97-6.65.2.1.41.1.72.1.2 0 .41 0 .61-.1 1.65 2.76 3.8 4.91 6.57 6.65z"/><path fill="#fff" d="M38.89 59.44c-.41-1.02-1.13-1.74-2.15-2.25-.31-.1-.72.1-.82.51s.1.72.51.82c.51.2 1.02.72 1.23 1.23.1.31.41.61.82.51.21 0 .52-.41.41-.82zm-5.53-2.76c.92 0 .92-1.33 0-1.33-.82.1-.82 1.33 0 1.33z"/><path fill="#4751A2" d="M75.73 73.24h-2.66l-.1-10.22c.1-.82.41-1.74 1.33-1.74.72 0 1.33.51 1.33 2.05v9.92h.1z"/><path fill="#F15A29" d="M70.99 30.71c.72 0 1.13.51 1.13 1.12 0 .61-.51 1.12-1.13 1.12-.61 0-1.13-.51-1.13-1.12 0-.61.52-1.12 1.13-1.12z"/><path fill="#fff" d="M54.64 48.5c-6.36-1.53-13.02-1.23-19.37-.2v-9.1c1.54-.2 2.87-.61 4.41-.72 2.36-.2 4.61-.31 6.97-.2 2.66.1 5.43.2 8 1.02h.1v9.2h-.11z"/><path fill="#F15A29" d="M44.61 9.44c.82 0 1.33.61 1.33 1.33s-.61 1.33-1.33 1.33-1.33-.61-1.33-1.33c.01-.71.63-1.33 1.33-1.33z"/></svg>