<svg width="100" height="100" viewBox="0 0 100 100" xmlns="http://www.w3.org/2000/svg"><path fill="#F15A29" d="M17.17 79.07l31.9 18.63 31.89-18.63V21.11l-31.9-3.28-31.89 3.28z"/><path fill="#A9A09F" stroke="#F15A29" stroke-width="4" stroke-miterlimit="10" d="M62.29 10.450000000000003"/><path fill="none" d="M21.4 62.59h.3"/><path fill="#151841" d="M50 100L16 80.14V19.5L50 16l34 3.5v60.64L50 100zM19.04 78.44L50 96.53l30.96-18.09V22.19L50 19l-30.96 3.19v56.25z"/><path fill="none" stroke="#29323B" stroke-width=".75" stroke-miterlimit="10" d="M51.46000000000001 45.74"/><path fill="none" d="M45.08 64.2l-1.12-.21-1.41.97c1.03.54 1.96.07 2.53-.76zm-5.47 4.48c1.27.67 2.44-.5 2.44-1.76 0-.48-.13-.91-.32-1.29l-.06-.06-2.48 1.71-.4.88c.22.14.44.28.64.44l.18.08zm-7.17 3.13l.26.88.16-.43c-.15-.15-.29-.3-.42-.45zm.59-.79c1.08 1.37 4.6 3.23 6.06 1.46 1.24-1.42.43-2.49-.73-3.37l-.65 1.43-4.15-1.23-1.7.49.41 1.4c.11-.31.49-.51.76-.18zM41.5 18.03h.19"/><path fill="#fff" d="M49.43 81.41c1.67 2.34 2.45 4.19 4.22 5.95 0 0 2.95 4.19 3.53 4.98l17.12-9.96c1.82-.05-.16-1.05-.75-1.36-1.18-.88-8.03-5.65-10.39-7.21-1.67-1.08-7.28-4.23-6.57-7.31-.09-1.46-.29-2.83-.69-4.28-.29-1.17-.49-7.14-5.38-6.83-1.96-.59-4.12-.88-6.08-.49.4-1.66-.69-3.31-2.35-3.99-.2-.09-.29-.09-.4-.09.2-1.17-3.29-4.07-5.18 1.08-.2.49-.09 1.56-.09 1.56h-.09c-.4-.09-.89 0-1.27 0-.78 0-1.47.2-2.06.68-.29.29-1.68 2.83-1.77 3.9 0 .29 0 .68.2.97-1.67 1.76-2 4.96-.14 6.61-.2.09-.05.21-.15.5-.4.68-2.46 5.14.72 5.69.78.78 2.12.46 3.29.75 1.67.68 6.65 2.33 5.08 5.06-.49.88 2.15 1.66 2.95 1.94 1.37.39 4.32.49 4.52.49.36.08 1.43 1.25 1.73 1.36z"/><path fill="#818285" d="M48.25 64.82c-.4 3.22 2.84 4.59 1.47 5.85-1.96 1.85-3.44 2.73-4.12 4.1-1.47 3.11-.49 5.65-3.53 4.48-5.79-2.25-11.76-6.82-8.43-14.14 2.55-5.65 2.95-16.28 9.32-13.46 2.26.97 1.77 2.63 1.57 2.73-.89.49-1.67-.2-2.45.59-1.27 1.17-5.79 5.07-4.22 6.24 2.35 1.76 4.22 1.85 6.28.09.69-.59 0-1.46 1.27-2.43.89-.68 2.45.78 3.24.39 2.55-1.45-.09 3.53-.4 5.56z" opacity=".6"/><path fill="#4751A2" d="M44.14 72.54l-.2.49v.09c-.09.09.4-.89.2-.58zm-1.66-6.84c-.17.21-.6 2.31-1.48 2.84-.67.4-2.13-.15-2.52-.34-1.06-.52 2.76 1.68 1.07 3.57-3.06 3.42-6.86-.52-6.96-.52-.2 0-.42-.18-.51.01-.29 0-.27.38-.27.67 0 .88-.4 3.22 0 3.99 0 .97 3.73 3.02 4.11 2.92 1.27.49 1.77 0 3.04-.49.4 0 2.55-1.56 2.64-1.75.98-.97 1.49-.98 3.04-8.77l.44-1.27c.09-.55.58-1.89-.12-2.06-.79-.17-2.43 1.05-2.48 1.2zm31.57-52.73c-3.67-6.82-8.63-8.67-14.11-7.12-2.75.78-5.99 2.63-7.65 4.97C48.78 15.21 44 33.17 44 33.65c-.59 5.56-1.72 11.58-1.92 12.85-.49.6-1.08 1.37-1.08 2.06 0 .29 0 .68.29.88.09.09.89 1.37.98 1.76.09.49 1.67 1.37 1.77 1.46v.09c.49 1.56 1.96 1.56 3.24 1.56 1.86.09 2.45 1.34 3.53-.42 1.96-3.51 5.31-6.5 7.65-10.8.2-.29 10.14-9.5 12.1-11.93 2.15-2.73 2.7-6.79 3.79-10 .19-.2 1.36-1.87-.3-8.19z"/><path fill="#151841" d="M38.65 68.92c2.15 1.17 4.12-.97 3.92-3.11-.09-1.26-1.27-2.34-2.15-3.11a59.922 59.922 0 0 1-3.62-3.31c-1.57-1.56-4.9-2.14-6.37 0-1.37 1.94-.89 5.27.69 7.02.4.49 1.08-.2.69-.68-1.18-1.26-1.47-3.8-.78-5.36.89-2.05 3.82-1.46 5.1-.29.69.59 1.27 1.37 1.96 1.94.69.58 1.47 1.17 2.26 1.85.78.68 1.37 1.46 1.37 2.43 0 1.26-1.18 2.43-2.45 1.76-.62-.31-1.11.57-.62.86zm5.78-8.18c0 .88.78 1.46 1.57 1.66 1.57.29 3.13-.88 4.12-1.85.49-.39-.2-1.08-.69-.68-.78.78-1.86 1.56-3.04 1.66-.4 0-1.08-.2-1.08-.68.1-.8-.88-.8-.88-.11zm1.09 1.06c-.69 2.34-1.27 5.07.09 7.31.89 1.46 2.75 1.94 4.31 1.85.59 0 .59-.97 0-.97-1.47.09-2.84-.39-3.62-1.66-1.08-1.76-.4-4.48.2-6.24.19-.58-.78-.87-.98-.29zm-.79-3.6c-.09.39 0 .68 0 .97.2 1.17-.59 1.94-1.57 2.43-.98.59-2.26.88-3.33.68-1.47-.2-2.06-1.66-1.27-2.93.69-1.17 2.06-1.94 3.04-2.83.4-.29.69-.68.98-1.08.4-.49.98-.49 1.57-.39l5.3.29c1.96.09 3.62.68 4.7 2.34.98 1.46 1.27 3.51 1.47 5.16.29 2.63.09 5.75 2.15 7.8 1.27 1.17 2.95 2.14 4.31 3.11 4.31 3.02 8.72 5.95 12.94 9.07.49.39.98-.49.49-.88-4.31-3.31-8.92-6.33-13.43-9.46-.69-.49-1.37-1.08-2.06-1.46-1.67-1.08-2.55-2.05-2.95-4.1-.69-3.42-.29-7.02-2.26-10.14-1.77-2.73-5.48-2.63-8.43-2.73-1.08 0-2.64-.49-3.73 0-.98.39-1.67 1.56-2.45 2.25-1.67 1.37-3.82 3.11-2.55 5.45 1.08 1.85 3.73 1.46 5.39.78.89-.29 1.77-.88 2.26-1.66.2-.29.49-.78.49-1.26 0-.49-.2-1.08-.09-1.46.11-.34-.87-.63-.97.05zm-4.41 20.28c1.57 1.37 3.04 2.05 5.19 1.94 2.55-.09 3.82 1.26 5.1 3.22 1.77 2.83 4.24 6.8 6.02 9.73.29.49 1.18 0 .89-.49-1.77-2.83-4.34-6.8-6.02-9.73-.78-1.37-1.86-2.93-3.44-3.42-.98-.29-1.86-.29-2.84-.29-1.67.09-2.84-.59-4.02-1.66-.58-.37-1.27.3-.88.7zm-8.93-7.61c1.57 1.85 5.3 3.51 7.55 2.14.98-.59 1.47-1.76 1.37-2.93-.09-1.46-1.27-2.25-2.45-2.93-2.06-1.26-4.81-4.1-6.96-1.37-.78.88-.98 2.05-1.08 3.22-.09 1.66.59 2.43 1.67 3.51.4.49 1.08-.2.69-.68-.78-.88-1.37-1.37-1.37-2.54 0-.88.2-1.66.59-2.43 1.27-2.43 3.62-.39 5.1.68.89.68 2.06 1.08 2.64 2.05.59 1.08 0 2.25-.98 2.83-.89.49-2.26.09-3.13-.2-1.18-.39-2.26-.97-2.95-1.94-.38-.58-1.07.1-.69.59zm10.6-21.64c1.27-6.33 2.45-12.67 3.73-19.01.4-1.85.69-3.51 1.27-5.16 1.08-3.02 2.45-6.04 3.24-9.16.49-1.85 2.15-3.42 3.24-4.88 1.27-1.56 2.35-3.11 4.12-4.1 1.67-.88 4.02-.78 5.88-.97 2.55-.29 4.81.39 6.48 2.43 1.47 1.76 3.13 3.31 3.62 5.56.4 1.56.78 3.31.78 4.97s-.98 3.6-1.47 5.07c-.59 1.66-1.18 3.31-1.86 4.97-.98 2.63-3.92 4.68-5.88 6.62-1.96 1.85-4.12 3.6-5.79 5.75l-9.9 13.46c-.49.68.78.4 1.08.68l5.1-7.02c1.77-2.43 3.44-5.07 5.39-7.21 2.15-2.43 4.7-4.48 7.06-6.73.89-.88 1.86-1.66 2.64-2.63 1.08-1.26 1.57-2.93 2.15-4.39l1.96-5.36c.69-1.76.78-3.42.4-5.27-.4-2.14-.59-4.19-1.86-6.04a52 52 0 0 0-2.84-3.42c-3.04-3.59-7.65-2.62-11.77-2.03-3.82.59-6.28 4.78-8.43 7.5-.98 1.26-1.37 2.63-1.96 4.1l-1.86 5.27c-.69 1.94-1.47 3.8-1.86 5.85-1.37 6.82-2.64 13.65-4.02 20.47 0 .2-.09.39-.09.49.07.68 1.34.97 1.45.19zm-2.26 7.12c-1.37-.39-3.13-2.83-2.95-4.19.2-1.37 1.27-2.34 2.55-2.73 1.37-.39 1.77.68 2.26 1.76.2.59 1.18.29.98-.29-.49-1.08-.89-2.34-2.26-2.54-1.57-.2-3.04.88-3.92 2.14-.78 1.26-.69 2.63 0 3.9.69 1.08 1.77 2.54 3.04 2.83.7.19.99-.69.3-.88zm1.86-5.07c1.18.88 2.26 1.76 2.75 3.11.2.59 1.18.29.98-.29-.59-1.66-1.77-2.73-3.13-3.71-.6-.38-1.09.5-.6.89zm-9.41 7.12c-.49-.88.4-2.54.78-3.22.78-1.46 2.15-2.05 3.53-.88.49.39.8-.31.31-.71-1.67-1.46-3.16-1.15-4.44.6-.78 1.08-1.77 3.31-1.08 4.68.31.59 1.19.1.9-.47zm9.22 6.62c2.35 1.66 4.7-.59 4.81-3.11 0-.59-.98-.59-.98 0-.09 1.76-1.67 3.51-3.44 2.25-.39-.31-.88.57-.39.86zm20.88-38.41c.29.09.69.29.98.39-.2.39-.4.68-.69.97-.29.39-.69.78-1.08 1.08-.69.68-1.67.68-2.06-.39-.29-.68.09-1.66.4-2.25.78-1.85 2.35-3.42 4.22-3.99 1.96-.59 2.26 1.56 1.96 2.93-.2 1.08-.69 2.14-1.27 3.11-.59.97-1.18 1.85-2.06 2.43-1.18.68-2.35 1.46-3.44 2.14-.69.39-.09 1.56.69 1.08 1.86-1.17 4.12-2.14 5.3-3.9 1.27-1.85 2.35-4.1 2.15-6.44-.2-1.76-1.37-3.22-3.33-2.73-1.96.49-3.44 1.66-4.61 3.31-.89 1.26-2.06 3.51-1.08 5.07.98 1.66 2.64 1.56 4.02.39 1.18-1.08 2.95-2.93 1.67-4.48-.98-1.37-2.84-.49-3.13.78-.11.89 1.17 1.29 1.36.5zm4.9-8.87c1.96.88 1.77 3.31 1.47 5.07-.09.78 1.08 1.17 1.27.39.4-2.34.49-5.36-2.06-6.53-.78-.39-1.46.68-.68 1.07zm-10.19-6.13c-2.64 1.66-4.22 4.39-4.51 7.41-.09.78 1.18.78 1.27 0a8.687 8.687 0 0 1 3.82-6.33c.69-.4.11-1.48-.58-1.08zm-2.95 13.25c-.78 1.76-1.18 3.51-1.18 5.36 0 .88 1.27.88 1.27 0 0-1.66.29-3.22.98-4.68.31-.78-.78-1.46-1.07-.68zm-1.66 16.38c-.4 1.26-.98 2.43-1.96 3.51-.59.59.4 1.56.89.88 1.08-1.17 1.86-2.54 2.26-4.1.27-.78-1-1.07-1.19-.29zm-5.4 3.31c-1.27 1.46-1.86 3.31-1.77 5.27 0 .78 1.37.88 1.27 0-.09-1.56.4-3.11 1.37-4.39.51-.58-.38-1.46-.87-.88zm1.47-12.58c-.49 1.26-.89 2.63-1.18 3.99-.09.78 1.08 1.17 1.27.39.2-1.37.59-2.73 1.18-3.99.3-.87-.87-1.16-1.27-.39z"/><path fill="#151841" d="M36.29 79.45c-.49 0-.98-.09-1.37-.29l-1.86-.88c-1.18-.59-1.96-1.85-1.96-3.22l.2-3.8h1.08l-.2 3.8c0 .97.49 1.76 1.37 2.25l1.86.88c.49.2.98.29 1.47.2l2.26-.59c.4-.09.69-.29.98-.59l2.35-2.43c.2-.2.4-.49.49-.68l1.96-8.87.78.15-1.76 8.92c-.09.39-.4.78-.69 1.17L40.9 77.9c-.4.39-.89.68-1.47.88l-2.26.59c-.39.08-.57.08-.88.08z"/><path fill="none" d="M67.57 18.03h.29"/><path fill="#fff" d="M41.3 60.83c0-.29-.09-.68-.4-.88-.2-.2-.59-.39-.89-.39h-.19.09a1.16 1.16 0 0 0-.78 0c-.29.09-.59.29-.78.59-.2.29-.2.68-.09.97l.09.29c.09.2.29.39.49.49.09.09.2.2.4.29.29.2.69.2.98.09.29-.09.49-.2.69-.39l.09-.09c.2-.29.3-.58.3-.97z"/><path fill="#151841" d="M39.73 73.89c-.2.59-.69.97-1.18 1.17-.78.29-.49 1.56.4 1.26.98-.29 1.77-1.08 2.15-2.05.09-.29-.09-.68-.49-.78s-.68.11-.88.4zm-6.96 1.96c.09.2.09.49.2.68.09.29.49.59.78.49.4-.09.59-.49.49-.78-.09-.2-.09-.49-.2-.68-.09-.29-.49-.59-.78-.49-.39-.01-.59.39-.49.78z"/></svg>