<svg width="100" height="100" viewBox="0 0 100 100" xmlns="http://www.w3.org/2000/svg"><path fill="#4751A2" d="M17.17 79.07l31.9 18.63 31.89-18.63V21.11l-31.9-3.28-31.89 3.28z"/><path fill="#A9A09F" stroke="#F15A29" stroke-width="4" stroke-miterlimit="10" d="M61.04 13.540000000000003"/><path fill="none" d="M21.4 62.59h.3"/><path fill="#151841" d="M50 100L16 80.14V19.5L50 16l34 3.5v60.64L50 100zM19.04 78.44L50 96.53l30.96-18.09V22.19L50 19l-30.96 3.19v56.25z"/><path fill="none" stroke="#29323B" stroke-width=".75" stroke-miterlimit="10" d="M50.61 47.53"/><path fill="none" d="M44.47 65.29l-1.08-.2-1.36.93c.99.53 1.89.08 2.44-.73zm-5.27 4.33c1.22.65 2.35-.48 2.35-1.7 0-.46-.12-.87-.31-1.24l-.05-.06-2.39 1.65-.38.85c.21.14.42.27.61.42l.17.08zm-6.9 3.01l.25.84.16-.41a5.33 5.33 0 0 1-.41-.43zm.56-.77c1.04 1.32 4.43 3.11 5.83 1.41 1.2-1.37.41-2.4-.7-3.24l-.62 1.37-4-1.18-1.64.47.39 1.35c.12-.3.49-.49.74-.18z"/><path fill="#CF4A27" d="M57.81 10.19l-4.73-5.1c-.89-.69-2.26-.2-2.36.98l-.49 6.97s-.2 2.16 4.53.49c4.63-1.58 3.05-3.34 3.05-3.34z"/><path fill="#151841" d="M51.8 14.9c-.89 0-1.48-.2-1.97-.69-.39-.49-.39-1.08-.39-1.28l.49-6.97C50.03 4.89 51.02 4 52.1 4c.49 0 .98.2 1.38.49l.1.1 4.73 5.1c.1.1.69.69.39 1.67-.3 1.08-1.48 2.06-3.74 2.85-1.19.49-2.27.69-3.16.69zm-.88-1.87c0 .2.39.39.98.39.69 0 1.58-.2 2.66-.59 2.36-.78 2.76-1.57 2.76-1.77.1-.2-.1-.39-.1-.39l-4.73-5.1c-.1-.1-.3-.1-.39-.1-.3 0-.69.2-.79.69l-.39 6.87z"/><path fill="#CF4A27" d="M72.68 17.74l6.99.78c1.08.29 1.48 1.77.59 2.45l-5.41 4.42s-1.67 1.37-3.15-3.34c-1.38-4.6.98-4.31.98-4.31z"/><path fill="#151841" d="M74.25 26.48c-1.28 0-2.36-1.37-3.25-4.12-.69-2.16-.69-3.63 0-4.61.49-.69 1.28-.78 1.58-.78h.2l7.09.88c.79.2 1.38.78 1.58 1.57.2.78-.1 1.57-.69 2.16L75.35 26c-.11.18-.51.48-1.1.48zm-1.67-7.95c-.1 0-.3 0-.39.2-.2.2-.49.98.2 3.24.69 2.45 1.48 3.04 1.87 3.04h.1l5.32-4.42c.3-.29.2-.59.2-.69 0-.1-.1-.39-.49-.49l-6.81-.88z"/><path fill="#CF4A27" d="M66.38 35.6l-.79 6.97c-.3 1.08-1.77 1.47-2.46.59l-4.43-5.4s-1.38-1.67 3.35-3.14c4.62-1.37 4.33.98 4.33.98z"/><path fill="#151841" d="M64.11 44.33c-.59 0-1.18-.29-1.67-.69l-4.43-5.4c-.1-.1-.59-.69-.3-1.57.3-1.08 1.67-1.96 4.04-2.75 2.46-.78 4.04-.59 4.92.29.59.59.49 1.37.49 1.47l-.98 7.06c-.2 1-1.08 1.59-2.07 1.59zm-.59-1.66c.2.2.39.2.49.2.3 0 .59-.2.69-.49l.79-6.87s0-.2-.1-.29c-.2-.2-.49-.29-.98-.29-.59 0-1.38.1-2.36.39-2.56.78-2.95 1.47-3.05 1.67v.29l4.52 5.39z"/><path fill="#CF4A27" d="M47.96 26.57l-5.12 4.71c-.69.88-.2 2.26.98 2.35l6.99.49s2.17.2.49-4.51c-1.56-4.71-3.33-3.04-3.34-3.04z"/><path fill="#151841" d="M50.82 34.91l-7.09-.49c-.79-.1-1.48-.59-1.77-1.37-.3-.78-.2-1.57.3-2.16l.1-.1 5.12-4.71c.1-.1.49-.49 1.28-.49 1.28 0 2.36 1.28 3.25 3.73.79 2.26.89 3.83.2 4.81-.41.69-1.19.79-1.39.78zm-6.89-1.96l6.99.49s.1 0 .2-.1c.1-.2.49-.98-.39-3.43-.89-2.65-1.77-2.85-1.87-2.85-.1 0-.3.1-.3.1l-5.12 4.71c-.2.29-.1.59-.1.69 0 .1.19.39.59.39z"/><path fill="#F15A29" d="M59.57 41.39c2.36-2.06-.79-3.04-.79-3.04v-.1c1.28-2.55.59-5.59-1.58-6.67s-5.02.1-6.4 2.65c0 0-2.26-1.86-2.76.88l-.1 4.71-8.07 16-8.46 16.58c-1.28 2.55-1.87 5.5.39 7.16 0 0 4.82 4.02 8.07-2.16l7.98-17.56 8.27-16.19 3.45-2.26z"/><path fill="#151841" d="M34.97 81.53c-2.07 0-3.64-1.28-3.94-1.47-2.17-1.57-2.36-4.51-.59-8.05l8.47-16.58 8.07-15.8.1-4.61c.3-1.77 1.38-2.06 1.97-2.06.49 0 .89.2 1.18.29 1.18-1.67 2.95-2.75 4.82-2.75.79 0 1.48.2 2.07.49 1.28.59 2.17 1.77 2.46 3.24.3 1.28.2 2.55-.3 3.83.59.29 1.18.78 1.38 1.57.2.78-.2 1.57-1.08 2.35l-3.15 2.26-8.17 16-8.07 17.56c-1.58 3.14-3.75 3.72-5.22 3.73zm13.68-46.32l-.1 4.81-16.73 32.77c-1.87 3.73-.98 5.4.1 6.18 0 0 1.38 1.08 2.95 1.08s2.95-.98 4.04-3.04l2.97-7.17 5.01-10.39 8.47-16.29L59 40.81c.39-.39.59-.69.59-.88-.1-.29-.69-.69-1.18-.78l-.79-.29.39-.88c.59-1.08.69-2.26.49-3.43-.3-1.08-.89-1.86-1.77-2.35-.39-.2-.89-.29-1.48-.29-1.58 0-3.15 1.08-3.94 2.65l-.39.78-.69-.59c-.1-.1-.69-.39-.98-.39-.1.06-.4.06-.6.85z"/><g transform="matrix(.125 0 0 .125 -30.101 .327)"><circle cx="722.13" cy="190.95" r="122.08" fill="#F15A29"/><path fill="#151841" d="M722.13 319.33c-20.48 0-40.17-4.73-58.28-14.18-63.01-32.29-88.21-109.48-55.92-172.49 22.05-43.32 66.16-70.1 114.2-70.1 20.48 0 40.17 4.73 58.28 14.18 30.72 15.75 52.77 41.74 63.8 74.82 10.24 32.29 7.88 67.73-7.88 97.66-22.05 43.33-66.16 70.11-114.2 70.11zm0-244.94c-44.11 0-84.27 24.42-103.96 63.8-29.14 57.5-6.3 127.59 51.19 156.73 16.54 8.66 34.65 12.6 52.77 12.6 44.11 0 84.27-24.42 103.96-63.8 14.18-27.57 16.54-59.07 7.09-89s-29.93-53.56-58.28-67.73c-16.54-7.88-34.66-12.6-52.77-12.6z"/></g><path fill="#CF4A27" d="M62.13 11.1l5.32-4.53c.98-.59 2.26.1 2.26 1.28l-.39 6.99s-.1 2.17-4.63 0c-4.43-2.26-2.56-3.74-2.56-3.74z"/><path fill="#151841" d="M67.84 16.52c-.89 0-2.07-.39-3.54-1.08-2.17-1.08-3.25-2.17-3.35-3.25-.1-.98.59-1.58.59-1.67l5.41-4.63c.39-.2.69-.3 1.18-.3.59 0 1.18.2 1.58.69.39.39.59.98.59 1.58l-.39 6.99c.1.68-.49 1.67-2.07 1.67zm0-9.36l-5.32 4.53s-.2.2-.1.39c0 .2.3.98 2.56 2.07 1.58.79 2.46.89 2.86.89s.59-.1.69-.3l.39-6.99c0-.3-.1-.39-.2-.49-.19-.19-.58-.29-.88-.1z"/><path fill="#CF4A27" d="M51.99 32.86l-.98 6.99c0 1.18 1.28 1.87 2.26 1.18l5.71-4.04s1.77-1.28-2.46-3.84c-4.23-2.65-4.53-.29-4.53-.29z"/><path fill="#151841" d="M52.49 42.02c-1.18 0-2.17-.98-2.17-2.17v-.2l.98-6.99c.1-.59.59-1.67 2.07-1.67.98 0 2.07.39 3.54 1.28 2.17 1.28 3.15 2.46 3.25 3.64 0 .89-.59 1.38-.69 1.48l-5.71 4.04c-.39.39-.78.59-1.27.59zm-.69-2.17c0 .39.39.69.79.69.1 0 .3 0 .39-.1l5.61-4.04s.1-.1.1-.2c0-.2-.3-1.08-2.46-2.46-1.48-.89-2.36-1.08-2.76-1.08-.59 0-.59.3-.59.39l-1.08 6.8z"/><path fill="#CF4A27" d="M72.37 25.67l4.53 5.32c.59.98-.1 2.26-1.28 2.26l-6.99-.39s-2.17-.1 0-4.63c2.27-4.43 3.74-2.56 3.74-2.56z"/><path fill="#151841" d="M75.72 33.94l-6.99-.39c-.1 0-.89-.1-1.38-.89-.59-.98-.39-2.56.69-4.82 1.08-2.26 2.31-3.01 3.45-3.35.92-.28 2.27 1.73 2.27 1.73l3.73 4.37c.39.69.39 1.48 0 2.26-.39.8-.98 1.09-1.77 1.09zm0-.88v.2-.2zm-6.01-.83l6.01.34c.39 0 .59-.3.59-.39.1-.1.2-.39 0-.69l-4.53-5.32s-.1-.1-.3-.1c-.49 0-1.28.69-2.17 2.56-1.18 2.36-.89 3.15-.79 3.35.11.09 1.19.25 1.19.25z"/><path fill="#CF4A27" d="M51.4 14.94l-6.99-.59c-1.18.1-1.77 1.38-1.08 2.36l4.43 5.41s1.38 1.67 3.74-2.76c2.27-4.22-.1-4.42-.1-4.42z"/><path fill="#151841" d="M48.55 23.21c-.59 0-1.08-.3-1.28-.59l-4.43-5.41c-.49-.69-.59-1.48-.2-2.26.3-.79.98-1.18 1.87-1.28h.1l7.09.59c.1 0 .98.1 1.48.98.59.98.3 2.56-.79 4.63-1.48 2.26-2.66 3.34-3.84 3.34zm-.2-1.48s.1.1.2.1c.2 0 .98-.1 2.36-2.66 1.18-2.26.98-3.05.89-3.25-.1-.2-.3-.2-.3-.2l-6.89-.59c-.39.1-.49.3-.59.39s-.2.39.1.69l4.23 5.52z"/><path fill="#fff" d="M52.79 88.69c.2.2 1.87 3.53 2.46 4.32L72.4 82.98l.22-.42c-1.18-.88-13.15-9.5-15.29-10.84-.68-.66-1.88-2.03-1.83-4.71-.1-1.47-.14-2.16-.44-3.63-.24-2.49-1.49-4.55-1.49-4.65-.1-.49-2.11-3.8-10.03-2.71.39-1.67-.69-3.34-2.36-4.02-.1-.1-.3-.1-.39-.1-1.05-3.4-3.46-1.37-3.86-.98-1.38.41-1.46 2.84-1.36 3.14v.39h-1.38c-.79 0-1.48.2-2.07.69-.3.29-1.8 2.38-1.58 4.91-1.67 1.77-1.59 4.99-.3 7.16-.39.69-.69 1.47-.89 2.26 0 0-.11 3.76 1.87 2.65.79.78 1.97 1.37 3.15 1.67 1.67.69 3.45.88 4.33-1.08.49-1.08-.38-1.85.21-2.73l1.43-.43c1.31-2.63.63-3.21.63-3.21.39 0 1.85.26 2.15-.13 0 0 1.5-.28 1.2-2.73l.2-.88c.39.2.79.29 1.18.29-.39.69-.69 1.47-.98 2.16-.3 1.08-.39 2.26 0 3.34-.1.29 0 .69.3 1.08.39.59-1.58-.98-1.08-.59-1.97 2.35-2.95 7.36-4.43 10.11-.49.88 2.17 1.67 2.95 1.96 1.38.39 2.76.39 4.13.39.1.1.2.1.39.1.2-.02 3.29 2.09 5.81 7.25z"/><path fill="#818285" d="M47.37 65.92c.3-2.06 2.95-7.06.49-5.69-.79.39-2.36-1.08-3.25-.39-.74.55-.18 1.73-.87 2.32-2.71 2.54-5.88 2.4-6.81.04-1.58-1.18 3.05-5.1 4.23-6.28.79-.69 1.58-.1 2.46-.59.2-.1.69-1.77-1.58-2.75-6.5-2.75-6.79 7.95-9.45 13.64-1.28 2.65-1.18 5-.39 6.97 0 0 1.68 1.42 4.13 1.08 1.16-.16 2.96.05 2.56-3.93-.03-.26.62-.49.83-.64 1.8-1.25 1.33-3.09 1.33-3.09l.89-.29 1.67-.59.39-.39.3 1.08.1 1.94-.49.51c-1.87 2.07-3.32 8.26-4.27 9.61.89.49.63 1.58 1.52 1.97 1.68.65 2.14.17 2.45-.91.26-.89 1.2-7.85 5.23-7.72 1.49-1.29-1.86-2.66-1.47-5.9z" opacity=".6"/><path fill="#151841" d="M74.74 83.49c-4.43-3.34-8.96-6.38-13.49-9.52-.69-.49-1.38-1.08-2.17-1.47-1.67-1.08-2.56-2.06-2.95-4.12-.69-3.43-.3-7.06-2.26-10.21-1.77-2.75-5.51-2.65-8.47-2.75-.25 0-.52-.03-.81-.06l-.05-.16c-.56-1.59-1.77-2.8-3.07-3.75-.42-.96-.88-1.94-2.07-2.11-1.58-.2-3.05.88-3.94 2.16-.45.73-.6 1.48-.53 2.24-1.29-.55-2.48.08-3.51 1.49-.72.99-1.6 2.98-1.2 4.36-.33.21-.62.49-.87.84-1.31 1.86-.92 4.94.47 6.76-.6.84-.77 1.9-.86 2.95-.1 1.67.59 2.45 1.67 3.53.39.49 1.08-.2.69-.69l-.52-.57c1.73 1.76 5.12 3.03 7.31 1.75.98-.59 1.48-1.77 1.38-2.94-.02-.32-.1-.61-.22-.87 1.43-.21 2.48-1.76 2.39-3.34.8.24 1.52.03 2.09-.48-.08.79-.05 1.57.17 2.34.13.45.53.95.79 1.37.89 1.47 2.76 1.96 4.33 1.86.59 0 .59-.98 0-.98-1.48.1-2.86-.39-3.74-1.67-1.11-1.56-.5-4.11.07-5.97 1.48.13 2.94-.96 3.97-1.88.49-.39-.2-1.08-.69-.69-.89.78-1.87 1.57-3.05 1.67-.36 0-.95-.16-1.06-.56.14-.27.27-.58.27-.91 0-.49-.2-1.08-.1-1.47.2-.78-.79-1.08-.89-.39-.1.39 0 .69 0 .98.2 1.28-.59 1.96-1.58 2.55-.98.59-2.26.88-3.35.69-1.48-.2-2.07-1.67-1.28-2.94.69-1.18 2.07-1.96 3.05-2.85.39-.29.69-.69.98-1.08.49-.49.98-.49 1.58-.39l5.32.29c1.97.1 3.64.69 4.73 2.45.98 1.47 1.28 3.53 1.48 5.2.3 2.65.1 5.79 2.17 7.85 1.28 1.18 2.95 2.16 4.33 3.14 4.33 3.04 8.76 5.99 13 9.22.49.41.99-.48.49-.87zm-37.41-9.91c-.89.49-2.26.1-3.25-.2-1.18-.39-2.26-.98-2.95-1.96-.35-.52-.92-.05-.78.41-.25-.38-.4-.8-.4-1.39 0-.88.2-1.67.59-2.45 1.28-2.45 3.64-.39 5.12.69.89.69 2.07 1.08 2.66 2.06.58 1.07-.01 2.25-.99 2.84zm1.28-4.18c-.45-.44-1.01-.79-1.58-1.12-1.94-1.19-4.48-3.76-6.57-1.83-.95-1.35-1.15-3.6-.52-5.04.89-2.06 3.84-1.47 5.12-.29l1.2 1.2c.06.31.18.63.37.96.49.85 1.33 1.23 2.25 1.32l.41.34c.79.69 1.38 1.47 1.38 2.55.01 1.14-.94 2.19-2.06 1.91zm5.32-6.54c.09.09.2.18.31.25-.07 1.52-1.37 3.28-2.89 2.77-.25-.49-.63-.93-1.04-1.33.64-.1 1.25-.28 1.75-.5.69-.3 1.37-.67 1.87-1.19zm-7.6-1.73a6.67 6.67 0 0 0-.57-.7c-1.09-1.09-3.04-1.7-4.62-1.26-.22-.92.53-2.34.88-2.96.75-1.39 2.02-1.98 3.33-1.03l.12.25c.69 1.08 1.77 2.55 3.05 2.85l.1.02c-.97.83-1.97 1.75-2.29 2.83zm5.33-5.71c-.93.37-1.6 1.53-2.33 2.23-.32-.12-1-.4-1.59-.9-1.08-.91-2-2.48-1.85-3.51.2-1.37 1.29-2.28 2.57-2.67 1.38-.39 1.53.33 2.02 1.41.06.18.22.29.39.35 1.08.82 2.05 1.66 2.53 2.9-.65-.05-1.27-.04-1.74.19zM39.4 79.76a.87.87 0 0 1-.14-.29l-.08-.07.22.36zm11.22 4.71c-.79-1.37-1.87-2.94-3.45-3.43-.98-.29-1.87-.29-2.95-.29-1.67.1-3.39-1.19-4.57-2.26-.41-.41-.58.42-.4.99 1.62 1.61 3.23 2.35 5.36 2.25 2.56-.1 3.84 1.28 5.12 3.24l5.32 8.64c.3.49 1.18 0 .89-.49-1.77-2.86-3.64-5.71-5.32-8.65zM47.67 40.61c1.67 2.45 5.71 4.02 8.57 3.53.79-.1.49-1.37-.39-1.28-2.26.39-6-1.28-7.28-3.15-.4-.68-1.39.21-.9.9z"/></svg>