<svg width="100" height="100" viewBox="0 0 100 100" xmlns="http://www.w3.org/2000/svg"><path fill="#A9A09F" d="M18.11 79.07L50 97.7l31.89-18.63V21.11L50 17.83l-31.89 3.28z"/><path fill="#151841" d="M50 100L16 80.14V19.5L50 16l34 3.5v60.64L50 100zM19.04 78.44L50 96.53l30.96-18.09V22.19L50 19l-30.96 3.19v56.25z"/><path fill="#4751A2" d="M46.88 56.62c.03-.09-.85-3.19-2.87-3.79-.15-.33-.3-.67-.49-.98.05-.06.08-.14.1-.22.96-2.96 1.91-6.01 2.88-8.97 1.06-3.25-.09-6.78 1.15-10.03.67-1.82 1.91-3.53 2.88-5.16.76-1.15 1.44-2.38 2.21-3.53.29-.39-.09-1.24-.19-1.62-.29-.95-.48-1.91-.76-2.96-.48-1.72 1.34-2.87 2.49-3.82 1.06-.76 2.11-1.53 3.26-2.38.39-.28.67-.67 1.15-.76.67-.19 1.44-.09 2.11-.09.76 0 1.06-.09 1.54-.58 1.06-.95 2.21-2.01 3.26-2.96 0 0 2.49.39 3.26.76.87.48 1.54 1.15 2.21 1.91l1.44 1.72c.67.76.76.95.19 1.91-.19.28 0 .86-.29 1.24l-1.06 1.34c-1.69 2.14-3.36 4.19-5.05 6.32-.31-.03-.64-.01-1 .08-1.91.48-3.36 1.62-4.51 3.25-.87 1.24-1.55 3.53-.6 5.07.96 1.62 2.12 1.44 3.47.29 1.24-1.06 2.88-2.87 1.73-4.49-.96-1.34-2.78-.48-3.06.76-.19.95.96 1.24 1.24.48.29.09.67.28.96.39-.19.39-.39.67-.67.95a5.6 5.6 0 0 1-1.06 1.06c-.67.67-1.63.67-2.02-.39-.29-.67.09-1.62.39-2.2.76-1.82 2.3-3.35 4.12-3.91 1.91-.58 2.21 1.53 2.02 2.96-.19 1.06-.67 2.1-1.24 3.05-.58.95-1.15 1.82-2.02 2.38l-3.45 2.1c-.14.1-.56.41-.67.58-2.11 2.58-3.26 5.73-3.45 9.08 0 .28.19.58.48.58 2.02.35 3.96.14 5.75-.86.42.86-.4 1.79-1.15 2.29-.76.48-1.82.67-2.69.95-.67.19-1.24.39-1.82.67-.76.39-.87 1.43-1.63 1.91-1.24.76-2.59.76-3.45 2.01-.81 1.17-1.12 2.51-1.15 3.86-1.01-.09-2.04-.1-2.97-.14-.3-.03-.63-.06-.97-.11z"/><path fill="#151841" d="M47.82 47.05c-1.24 1.43-1.82 3.25-1.73 5.16 0 .86 1.34.86 1.24 0-.09-1.53.39-3.05 1.34-4.3.5-.57-.37-1.52-.85-.86zM68.19 8.29c-1.51 1.14-2.46 2.79-2.78 4.68-.18.84 1.13 1.13 1.21.26.23-1.52 1.02-2.9 2.22-3.92.6-.46-.04-1.57-.65-1.02zm-11.4 18.06c-1.52 1.13-2.48 2.78-2.8 4.67-.19.84 1.13 1.13 1.21.27.24-1.52 1.04-2.9 2.24-3.91.6-.47-.04-1.58-.65-1.03z"/><path fill="#fff" d="M50.94 83.01c1.65 2.31 6.37 9.25 6.37 9.25l16.55-9.67-2.95-1.94c-2.23-1.64-9.97-6.49-12.05-8.49-1.95-2.28-1.33-6.7-1.62-8.15-.29-1.16-.75-5.27-2.52-5.3-2.24-1.9-6.37-1.61-8.3-1.23.39-1.64-1.19-3.98-2.84-4.65-1.89-3.03-3.88-1.16-4.26-.87-1.58 1.86-1.25 3.62-1.25 3.62s-2-.26-2.31-.03c-2.97 2.2-2.66 5.21-2.47 5.5-1.65 1.74-1.12 4.78-.42 6.22-.19.1.33.52.23.81-.39.67-.94 2.46-.94 2.66-.48 1.16 2.44 4.94 1.43 1.76.78.77 1.94 1.35 3.1 1.64 1.65.67 3.39.87 4.26-1.06.48-1.06-.47-1.63.11-2.59 0 0 2.28.62 2.75-1.72l.12-1.06-.22-.78c.39 0 1.49.55 1.78.17 1.16-.71 1.47.65.91 1.9-.1.29-.15 1.89-3.29 7.66-.19.29-1.19 2.38-1.19 2.67.1.58 2.04 1.98 2.62 2.17 1.36.39 2.91.38 4.26.38.12.09 1.94 1.03 2.14 1.13z"/><path fill="#818285" d="M50 66.49c-.4 3.26 2.88 4.64 1.49 5.93-6.06 5.43-3.18 10.47-7.65 8.8-5.16-4.14-12.02-7.02-8.54-14.43 2.68-5.73 2.04-16.35 8.5-13.49 1.56.94 2.81 3.83 2.61 3.93-.89.49-1.48-.75-2.28.04-1.29 1.19-5.55 3.78-4.56 5.56-.11 2.95 4.86 3.1 6.84.21.7-.59-.38-1.59.91-2.58.89-.69 2.48.79 3.28.4 2.71-.4-.33 4.73-.6 5.63z" opacity=".6"/><path fill="#151841" d="M49.99 34.01c-.14 1.32-.16 2.71-.09 4.08.11.76 1.32.83 1.3.05-.16-1.34-.14-2.74.09-4.08.09-.81-1.21-.86-1.3-.05zm26.42 50.01c-4.21-3.25-8.72-6.21-13.13-9.27-.67-.48-1.34-1.06-2.11-1.43-1.63-1.06-2.49-2.01-2.88-4.02-.67-3.35-.29-6.88-2.21-9.94-.92-1.44-2.4-2.08-4.02-2.37.1-1.88.6-3.65 2.59-4.41.58-.19 1.24-.39 1.82-.76.39-.28.58-.58.76-.95.39-.67.87-.95 1.63-1.15 1.63-.48 3.45-.86 4.6-2.2.87-1.06.87-2.68-.09-3.63-.19-.19-.58-.28-.76-.09-1.47.86-3.03 1.26-4.66 1.04.14-1.42 1.01-6.17 3.51-8.07 2.51-1.89 4.42-2.93 4.98-3.78 1.24-1.91 2.3-4.02 2.11-6.31-.1-.92-.48-1.76-1.1-2.27 1.79-2.29 3.64-4.5 5.42-6.81l.67-.86.09-.67c0-.28.29-.58.39-.86.19-.39.48-.95.39-1.43-.19-.58-.67-1.06-1.06-1.53l-1.73-2.01c-.76-.95-1.73-1.62-2.88-2.1-.96-.39-2.97-.95-3.93-.48-.48.28-.87.76-1.24 1.15-.76.67-1.44 1.34-2.21 2.01-.58.48-1.34.19-2.3.19-1.06 0-1.63.58-2.39 1.15-1.44 1.06-2.78 2.1-4.21 3.05-1.15.86-2.39 2.68-2.02 4.11.19.86 1.01 3.94 1.04 4-1.8 2.8-3.84 5.71-5.06 8.79-.39.86-.39 2.01-.48 2.87-.19 1.34-.19 2.77-.29 4.2v2.01c0-.28-2.24 6.8-3.18 9.68-.14-.06-2.85-.68-4.31 1.97-.47.76-.61 1.54-.5 2.33-1.29-.49-2.57-.01-3.52 1.3-.73 1-1.62 3.01-1.15 4.36-.25.19-.48.42-.67.7-1.24 1.77-.92 4.68.34 6.47-.66.84-.83 1.92-.92 3-.09 1.57.54 2.34 1.53 3.34 0 0-.87 2.2-.96 2.59-.39 1.34-.96 3.35.39 4.97l.09.09L37 83.52c.19.09.48.09.87.09.87 0 1.91-.19 2.88-.67.79-.61 1.25-1.54 1.25-2.58 1.53 1.33 2.96 2 5.07 1.91 2.49-.09 3.74 1.24 4.99 3.15 1.73 2.77 3.45 5.54 5.18 8.41.29.48 1.15 0 .87-.48-1.73-2.77-3.54-5.54-5.18-8.41-.76-1.34-1.82-2.87-3.36-3.35-.96-.28-1.82-.28-2.88-.28-1.63.09-3.82-1.33-4.35-2.19 0 0 3.87-7.26 3.96-7.54l.38-1.51c.13.35.29.7.49 1.03.87 1.43 2.69 1.91 4.21 1.82.58 0 .58-.95 0-.95-1.44.09-2.78-.39-3.64-1.62-.4-.66-.56-1.45-.56-2.28 0 0 .35-2.58.65-3.51 1.44.11 2.86-.95 3.85-1.85.48-.39-.19-1.06-.67-.67-.76.76-1.82 1.53-2.97 1.62-.36 0-.99-.17-1.05-.61.15-.26.29-.59.29-.92 0-.48-.19-1.06-.09-1.43.19-.67-.76-.95-.87-.28-.09.39 0 .67 0 .95.07.45.01.83-.14 1.16-.07.06-.34.72-1.4 1.34-.88.52-1.98.81-2.97.7-1.46-.07-1.61-.82-1.87-1.67-.02-.4.08-.83.34-1.24.67-1.15 2.02-1.91 2.97-2.77.39-.28.67-.67.96-1.06.48-.48.96-.48 1.54-.39l5.18.28c1.91.09 3.54.67 4.6 2.38.96 1.43 1.24 3.44 1.44 5.06.29 2.58.09 5.64 2.11 7.65 1.24 1.15 2.88 2.1 4.21 3.05 4.21 2.96 7.48 5.06 11.6 8.21.48.4.96-.45.48-.84l1.04.79zM32.69 71.31c.01-2.3.99-2.92 1.04-3.04 1.3-1.29 3.25.39 4.52 1.32.87.67 2.02 1.06 2.59 2.01.58 1.06 0 2.2-.96 2.77-.87.48-2.21.09-3.17-.19-1.15-.39-2.21-.95-2.88-1.91-.29-.58-.96.09-.58.58.14.17.3.34.47.51l-.03.08c-.58-.66-1-1.15-1-2.13zm11.89-6.29c.66-.29 1.33-.65 1.82-1.15.14.15.3.28.48.39-.15 1.66-1.61 3.26-3.27 2.14-.23-.32-.5-.62-.77-.9.61-.1 1.23-.28 1.74-.48zm-3.09.52l.5.42c.34.29.64.61.88.97.02.09.07.18.15.25.2.38.32.79.32 1.27 0 1.2-1.08 2.33-2.29 1.77-.42-.39-.93-.72-1.45-1.01-1.86-1.15-4.27-3.57-6.29-1.88-.85-1.33-1.02-3.45-.42-4.81.87-2.01 3.74-1.43 4.99-.28.38.32.72.7 1.07 1.08.06.29.18.61.36.93.48.83 1.29 1.2 2.18 1.29zm-2.47-3.5l-.48-.48c-1.1-1.1-3.12-1.71-4.69-1.17-.26-.9.5-2.33.85-2.94.75-1.41 2.05-1.99 3.37-.93l.08.16c.67 1.04 1.72 2.47 2.96 2.77-.88.77-1.76 1.62-2.09 2.59zm5.18-5.34c-.96.39-2.54 2.4-2.78 1.92-.85-.24-1.84-1.28-2.43-2.36 0-.1-.51-1.34-.46-1.75.19-1.34 1.24-2.29 2.49-2.68 1.12-.32 1.57.36 1.97 1.2-.06.19.24.52 1.14 1.23.96.74 1.32 1.13 1.75 2.26-.6-.06-1.19-.04-1.68.18zm6.62.13c-1.01-.09-2.04-.1-2.97-.14-.3 0-.63-.03-.97-.08.03-.09-.85-3.19-2.87-3.79-.15-.33-.3-.67-.49-.98.05-.06.08-.14.1-.22.96-2.96 1.91-6.01 2.88-8.97 1.06-3.25-.09-6.78 1.15-10.03.67-1.82 1.91-3.53 2.88-5.16.76-1.15 1.44-2.38 2.21-3.53.29-.39-.09-1.24-.19-1.62-.29-.95-.48-1.91-.76-2.96-.48-1.72 1.34-2.87 2.49-3.82 1.06-.76 2.11-1.53 3.26-2.38.39-.28.67-.67 1.15-.76.67-.19 1.44-.09 2.11-.09.76 0 1.06-.09 1.54-.58 1.06-.95 2.21-2.01 3.26-2.96 0 0 2.49.39 3.26.76.87.48 1.54 1.15 2.21 1.91l1.44 1.72c.67.76.76.95.19 1.91-.19.28 0 .86-.29 1.24l-1.06 1.34c-1.69 2.14-3.36 4.19-5.05 6.32-.31-.03-.64-.01-1 .08-1.91.48-3.36 1.62-4.51 3.25-.87 1.24-1.55 3.99-.59 5.52.96 1.62 2.12.98 3.46-.16 1.24-1.06 2.88-2.87 1.73-4.49-.96-1.34-2.78-.48-3.06.76-.19.95.96 1.24 1.24.48.29.09.67.28.96.39-.19.39-.39.67-.67.95a5.6 5.6 0 0 1-1.06 1.06c-.67.67-1.63.67-2.02-.39-.29-.67.09-1.62.39-2.2.76-1.82 2.3-3.35 4.12-3.91 1.91-.58 2.21 1.53 2.02 2.96-.19 1.06-.67 2.1-1.24 3.05-.58.95-1.15 1.82-2.02 2.38l-3.45 2.1c-.14.1-.56.41-.67.58-2.11 2.58-3.26 5.73-3.45 9.08 0 .28.19.58.48.58 2.02.35 3.96.14 5.75-.86.42.86-.4 1.79-1.15 2.29-.76.48-1.82.67-2.69.95-.67.19-1.24.39-1.82.67-.76.39-.87 1.43-1.63 1.91-1.24.76-2.59.76-3.45 2.01-.82 1.15-1.12 2.49-1.15 3.83z"/><path fill="#4751A2" d="M46.31 67.5l-.96 3.82c-.29.58-4.51 8.69-4.51 8.69s.01.77-.08 1.04c-.35-.43-.98-.72-1.46-.85-.97-.43-2.23-.88-3.5-1.1.22-.53.39-1.02.63-1.57.09-.28-.09-.67-.48-.76-.39 0-.67.19-.76.48l-.7 1.72c-.54-.01-1.05.04-1.51.18l-.13.07c.03-.67.23-1.36.42-1.97.09-.39 1.31-3.19 1.31-3.19 1.79 1.25 4.36 1.94 6.07.9.96-.58 1.44-1.72 1.34-2.87-.02-.31-.09-.58-.2-.84 1.47-.16 2.55-1.76 2.4-3.37l-.02-.16c.82.17 1.61-.1 2.23-.62l-.09.4z"/></svg>