<svg width="100" height="100" viewBox="0 0 100 100" xmlns="http://www.w3.org/2000/svg"><path fill="#A9A09F" d="M18.11 78.69L50 97.32l31.89-18.63V20.74L50 17.45l-31.89 3.29zm49.11-62.01h.3m5.42 5.89"/><path fill="#D4D0CF" d="M50 98.22V17.45l-31.89 3.29-1.08 58.57z"/><path fill="#151841" stroke="#151841" stroke-width=".7" stroke-miterlimit="10" d="M53.65 40.44c-1.3.69-2.6.95-4.17.95-3.91 0-7.2-2.84-7.2-7.32 0-4.82 3.39-9.04 8.59-9.04 4.08 0 6.86 2.84 6.86 6.8 0 3.53-2 5.6-4.17 5.6-.95 0-1.82-.6-1.74-2.07h-.09c-.87 1.38-1.91 2.07-3.3 2.07s-2.52-1.12-2.52-2.93c0-2.93 2.34-5.6 5.64-5.6 1.04 0 1.91.17 2.52.52l-.78 4.22c-.35 1.81-.09 2.58.69 2.67 1.22 0 2.52-1.55 2.52-4.31 0-3.36-2.08-5.85-5.73-5.85-3.82 0-7.12 3.01-7.12 7.75 0 3.87 2.6 6.37 6.08 6.37 1.39 0 2.6-.26 3.56-.86l.36 1.03zm-1.31-10.08c-.26-.09-.61-.17-1.22-.17-2.08 0-3.73 1.98-3.73 4.22 0 1.03.52 1.81 1.56 1.81 1.39 0 2.6-1.72 2.86-3.19l.53-2.67z" stroke-linecap="round" stroke-linejoin="round"/><path fill="#4751A2" d="M21.84 24.63l.1 3.6-2.92-1.5v-4.6l2.82 2.5zm.1 8.1v4.6l-2.92-1.6v-4.5l2.92 1.5z"/><path fill="#F15A29" d="M21.94 28.23v4.6l-2.92-1.6v-4.5l2.92 1.5zm0 9.1v4.5l-2.92-1.5v-4.6l2.92 1.6z"/><path fill="#4751A2" d="M21.94 41.82v4.5l-2.92-1.5v-4.6l2.92 1.6zm0 9v4.6l-2.92-1.6v-4.5l2.92 1.5z"/><path fill="#F15A29" d="M21.94 46.32v4.6l-2.92-1.6v-4.5l2.92 1.5zm0 9.1v4.5l-2.92-1.5v-4.6l2.92 1.6z"/><path fill="#4751A2" d="M21.94 59.92v4.5l-2.92-1.5v-4.6l2.92 1.6z"/><path fill="#F15A29" d="M21.94 64.42v4.5l-2.92-1.5v-4.5l2.92 1.5z"/><path fill="#4751A2" d="M21.94 68.92v4.6l-2.92-1.6v-4.5l2.92 1.5zm0 9.09l-.81 1.7-2.12 1.3v-4.6l2.93 1.6z"/><path fill="#F15A29" d="M21.94 73.51v4.5l-2.92-1.5v-4.6l2.92 1.6z"/><path fill="#4751A2" d="M81 22.15v4.6l-2.92 1.5.1-3.6 2.82-2.5zm0 9.09v4.5l-2.92 1.6v-4.6l2.92-1.5z"/><path fill="#F15A29" d="M81 26.74v4.5l-2.92 1.6v-4.6l2.92-1.5zm0 9v4.6l-2.92 1.5v-4.5l2.92-1.6z"/><path fill="#4751A2" d="M81 40.24v4.6l-2.92 1.5v-4.5l2.92-1.6zm0 9.1v4.5l-2.92 1.6v-4.6l2.92-1.5z"/><path fill="#F15A29" d="M81 44.84v4.5l-2.92 1.6v-4.6l2.92-1.5zm0 9v4.6l-2.92 1.5v-4.5l2.92-1.6z"/><path fill="#4751A2" d="M81 58.34v4.6l-2.92 1.5v-4.5l2.92-1.6z"/><path fill="#F1662A" d="M81 62.93v4.5l-2.92 1.5v-4.5l2.92-1.5z"/><path fill="#4751A2" d="M81 67.43v4.5l-2.92 1.6v-4.6l2.92-1.5zm0 9v4.6l-2.12-1.3-.81-1.7 2.93-1.6z"/><path fill="#F1662A" d="M81 71.93v4.6l-2.92 1.5v-4.5l2.92-1.6z"/><path fill="#4751A2" d="M19.02 22.17l4.57-.54 1.83 2.73-3.59.32-2.81-2.51zm9.04-1.06l4.47-.53 1.93 2.72-4.57.54-1.83-2.73z"/><path fill="#F15A29" d="M23.59 21.63l4.47-.53 1.93 2.72-4.57.54-1.83-2.73zm8.93-1.05l4.57-.54 1.83 2.73-4.47.53-1.93-2.72z"/><path fill="#4751A2" d="M36.99 20.06l4.57-.54 1.83 2.73-4.47.53-1.93-2.72zm9.04-1.07l3.97-.47v2.93l-2.14.27-1.83-2.73z"/><path fill="#F15A29" d="M41.56 19.52l4.47-.53 1.93 2.72-4.57.54-1.83-2.73z"/><path fill="#4751A2" d="M78.19 24.68l-3.59-.32 1.83-2.73 4.57.54-2.81 2.51zm-8.05-.84l-4.57-.54 1.93-2.72 4.47.53-1.83 2.73z"/><path fill="#F15A29" d="M74.61 24.36l-4.57-.54 1.93-2.72 4.47.53-1.83 2.73zm-9.04-1.06l-4.47-.53 1.83-2.73 4.57.54-1.93 2.72z"/><path fill="#4751A2" d="M61.1 22.77l-4.47-.53 1.83-2.73 4.57.54-1.93 2.72zm-8.93-1.05L50 21.45v-2.93l4 .47-1.83 2.73z"/><path fill="#F15A29" d="M56.64 22.25l-4.57-.54L54 18.99l4.47.53-1.83 2.73z"/><path fill="#fff" d="M17.93 78.5L49.8 50.09l33.45 29.26z"/><path fill="#151841" d="M30.52 68.57c.11-.2 1.7.99 1.91.99.43.1.86.1 1.29 0 .96-.3 1.61-1.9 2.68-1 .54.4 1.18.9 1.93.7.43-.1.75-.4 1.07-.7.11-.1 1.39 1.6 1.5 1.7.21.3.64.5.96.2 1.29-.8 2.14-1.8 2.68-3.11l-1.18.3c.54.5.96.9 1.29 1.6.21.3.64.4.96.2.75-.4 1.39-.9 1.82-1.6l-1.07.1c.86.8 1.61 1.6 2.46 2.51.32.3.96.2 1.07-.1.43-.9.96-2 2.25-2.1.75 0 1.18 1.3 1.93 1.6.43.2.86 0 1.07-.4.43-.9 1.39-2.3 2.46-.9.32.4.54.8.96 1 1.29.6 2.03-.3 3.32-.1 1.61.3 3.32.4 4.93.4 1.18 0 2.36.1 3-.9l-1.07.1c.75.7 1.61.9 2.57.6.86-.2.54-1.5-.43-1.3-.43.2-.86.1-1.29-.3-.32-.3-.86-.2-1.07.1-.32.5-1.82.3-2.36.3-1.07 0-2.14-.1-3.11-.2-.75-.1-1.5-.3-2.25-.3-.86 0-1.29.8-2.03-.1-.54-.8-1.39-1.6-2.57-1.3-1.39.4-1.93 1.4-2.46 2.61l1.07-.4c-.64-.3-.75-1.1-1.29-1.4s-1.07-.4-1.61-.3c-1.61.1-2.46 1.6-3.11 2.81l1.07-.1c-.86-.8-1.61-1.6-2.46-2.51-.32-.3-.86-.2-1.07.1-.32.5-.75.9-1.39 1.2.32.1.64.2.96.2-.43-.7-.86-1.3-1.5-1.8-.43-.4-.96-.2-1.18.3-.43 1-1.07 1.7-2.03 2.3.32.1.64.2.96.2-.64-.8-1.61-2.81-3-2.51-.43.1-1.07.9-1.5.7-.64-.3-.96-.8-1.71-1-1.39-.3-2.36 1.9-3.43 1.3-.96-.5-2.25-1.2-3 .1-.21.7-.09 1.48.23.68l.77-.47zm8.98-7.83c.54-.2 1.18-.4 1.71-.7.32-.1.86.6 1.07.7.86.5 2.03.2 2.89-.1.64-.2 1.5-.6 2.14 0 .21.2.43.3.75.3.86 0 1.71-1 2.25-1.4l-1.07-.1c.96 1.5 3.11 2.4 4.82 1.5.64-.4 1.18-.9 1.82-.2.32.3.64.5 1.07.6.75.2 1.39-.2 1.61-.9l-1.07.4c.54.3 1.07.4 1.71.5.21 0 .43-.1.54-.2.43-.5.86-.6 1.5-.5.96.1.86-1.2 0-1.3-.43-.1-.86 0-1.29.1-.75.2-.75.8-1.71.3-.43-.2-.96 0-1.07.4.11-.2-.96-1-1.18-1-.43-.2-.86-.2-1.29 0-.75.3-1.18.8-2.03.9-.96.1-1.82-.4-2.25-1.1-.21-.4-.75-.4-1.07-.1-.11.1-1.29.9-1.18 1-.32-.3-.64-.4-.96-.5-.86-.3-1.93.2-2.78.4-1.61.5-1.39-.6-2.57-.8-.86-.2-1.93.5-2.78.8-.86 0-.43 1.3.42 1zM50 100L16 80.14V19.5L50 16l34 3.5v60.64L50 100zM19.04 78.44L50 96.53l30.96-18.09V22.19L50 19l-30.96 3.19v56.25z"/><path fill="#394B5E" stroke="#151841" stroke-width="1.8" stroke-miterlimit="10" d="M82.28 21.15L17.93 78.5l-.21.19m0-57.54l64.56 57.54m-.39.66l-35.87-.07-28.31-.05"/></svg>