<svg width="100" height="100" viewBox="0 0 100 100" xmlns="http://www.w3.org/2000/svg"><path fill="none" d="M81.89 78.69V20.74L50 17.45l-31.89 3.29v57.95L50 97.32z"/><path fill="#d8d8d8" d="M50 100L16 80.14V19.5L50 16l34 3.5v60.64L50 100zM19.04 78.44L50 96.53l30.96-18.09V22.19L50 19l-30.96 3.19v56.25z"/><path fill="#d8d8d8" d="M58.623 46.353c0-4.394-3.536-8.251-8.143-8.465-4.929-.215-9.001 3.536-9.001 8.143v4.072h-3.215v15.001h23.574V50.102h-3.215v-3.749zm-13.148.654c0-2.562 1.922-4.667 4.576-4.667s4.575 2.105 4.575 4.667v3.203h-9.151v-3.203z"/></svg>