<svg width="100" height="100" viewBox="0 0 100 100" xmlns="http://www.w3.org/2000/svg"><path fill="#F15A29" d="M18.11 79.07L50 97.7l31.89-18.63V21.11L50 17.83l-31.89 3.28"/><path fill="#4751A2" d="M79.45 38.45c-1.22 1.92-3.16 2.53-4.78 3.85-2.04 1.62-1.02 4.76.1 6.48.2.3 3.87 8.21 4.07 9.32.51 2.23 3.19 2.23 2.89 0-.1-1.01.06-7.6.06-9.62 0-2.53-.22-4.15.04-6.71 1.33-2.23-.95-5.44-2.38-3.32z"/><path fill="#FFF" d="M29.67 41.19c-1.93-.81-3.66-2.33-5.29-3.75L19.6 34.1c-1.83-1.82-2.65-2.43-1.93 1.32.2.81.2 2.74.81 3.34-.3 1.32-.3 2.84-.51 4.15-.3 2.63-.51 5.27-.61 8-.1.91 0 2.13 0 2.23-.1.3.3 4.96 2.34 4.56 2.55-.51 3.66-3.44 4.99-5.37 1.53-2.13 3.16-4.25 4.28-6.69.81-.71 1.63-1.42 1.93-2.63.3-1.21-.11-1.42-1.23-1.82z"/><path fill="#FFF" d="M79.25 58.71c-.71-2.03-1.53-3.95-2.55-5.88-.1-.3-.3-.51-.51-.81 0-.81-.51-1.72-1.22-2.03-.51-.91-.81-1.82-.71-2.74.1-1.32-1.43-2.33-2.55-1.92-2.24.71-4.07 2.03-6.31 2.94-2.55 1.01-10.05-3.03-11.58-3.53-1.83-1.52-4.73-.52-6.87.7h-.59c-.81.1-1.63-.71-2.44-.3-2.04.91-4.17 1.42-6.41 1.82-.81.1-2.04.51-2.85.1l-1.22-.61-.71-.3s-.1 0-.1-.1c-.1-.91-1.12-1.82-2.04-1.62-.61.1-1.63 1.11-1.73 2.23l-.3.1-.3.61c-1.43 3.55-3.56 6.58-6.31 9.22-.92.81 2.95 3.34 3.26 3.34l1.02.71c1.73 2.03 3.77 3.85 6.21 4.76.3.1.71.51 1.02.51l-.61 3.85c.1 1.82 2.14 2.43 3.26 1.52 0 .41.1.71.2 1.11.3 1.11 1.39 1.75 2.41 1.55.41-.1.55-.29.85-.49 0 .71.13 1.74.53 2.24.71.91 2.52 1.16 3.64.46.2-.1.41-.3.51-.41.3 1.01 1.43 1.42 2.44 1.22.81-.1 1.32-.71 1.83-1.32.3.1.61.41.92.71 1.43 1.22 4.17 2.53 6.11 1.52.81-.51.92-1.32.51-2.13.81.41 1.63.61 2.55.41 1.22-.3 2.14-1.11 2.44-2.33l.1-.51c.2 0 .51 0 .71-.1.41.1 1.32.41 1.83.2.41-.2.61-.51.92-.71.92-.51 1.22-1.72 1.32-2.74 1.53-.2 3.16-1.22 3.77-2.33.41-.71.3-1.72-.1-2.43l2.55-.81 2.95-1.32c1.02-.71 3.66-2.33 4.78-2.84.59-.5-.32-.7-.63-1.52z"/><path fill="#151841" d="M21.02 57.7c4.38 2.43 7.23 6.79 12.01 8.51.61.2.92-.81.3-1.01-4.68-1.72-7.43-6.08-11.71-8.41-.7-.3-1.21.61-.6.91zM46.06 69.65c-2.55-.2-2.75 4.15-3.05 5.77-.2 1.42 2.14 3.14 3.46 2.74 1.73-.61 2.55-2.53 2.75-4.15.71-2.13-.92-4.25-3.16-4.36zm.92 6.99c-.71.61-1.02.41-1.83 0-1.63-.91-.61-3.24-.3-4.56.6-2.68 3.93-.7 3.4 1.49l-.04.13-.03.13c-.2 1.07-.43 2.04-1.2 2.81z"/><path fill="#151841" d="M45.86 69.65c-.3-1.52-1.53-2.63-3.05-2.63-.32 0-.62.08-.92.22v-.01c-.51-1.42-1.22-2.23-2.85-2.03-.71.09-1.34.43-1.84.89-.41-.81-1.22-2.1-2.33-1.9-1.32.3-2.04 1.42-2.44 2.63-.71 2.03-.3 6.48 2.85 5.67l.09-.04c.32 1.57 1.28 2.77 3.27 2.47l.25-.04c.1.41.25.8.46 1.15.81 1.42 2.85 1.52 4.07.81.61-.41.1-1.32-.51-.91-1.12.71-2.44.2-2.95-1.01-.41-1.11-.1-2.53.2-3.55s1.02-2.13 1.83-2.84c1.22-1.11 2.65.2 2.85 1.42.1.72 1.12.42 1.02-.3zm-9.98-1.72c-.43.94-.7 2.27-.64 3.53-.09-.01-.18-.01-.28.01-2.04.51-1.83-2.74-1.63-3.95.1-.71.51-1.42 1.02-1.92.92-1.01 1.67.63 1.97 1.14l.09.23c-.21.32-.39.65-.53.96zm3.46 2.53c-.48.97-.73 2.2-.62 3.38h-.29c-2.55.41-2.14-3.08-1.83-4.6.3-1.82 3.16-4.76 4.28-1.82.01.22.05.38.1.49-.74.77-1.28 1.83-1.64 2.55zM48.1 75.63c1.63 2.43 6.66 5.24 8.97 1.2.3-.61-.93-.7-1.23-.09-1.53 2.63-5.7.2-6.82-1.62-.31-.6-1.23 0-.92.51z"/><path fill="#151841" d="M81.69 59.02c-1.54.37-3 .96-4.31 1.74-.05.01-.62.39-.66.46-2.25 1.65-5.01 3.48-7.85 3.38-1.63-.1-3.05-1.22-4.28-2.13-1.43-1.11-2.65-2.53-2.44-4.46.03-.19-.03-.34-.1-.44-.06-.2-.23-.37-.51-.37-2.04.1-3.77-.1-5.29-1.62-1.43-1.32-2.55-2.66-2.95-4.48-.05-.33-.75-.47-.81-.48-1.02-.1-2.04-.1-3.16-.2-.71 0-1.02.3-1.43.71-.81.81-1.93 1.32-3.05 1.62-.64.18-2.86.7-3.36-.25-.09-1.51 1.03-1.68 1.63-2.48.55-.81 1.87-2.68 1.93-2.72 1.53-1.01 2.57-1.95 4.3-2.56 1.93-.61 4.05.11 5.78 1.03 3.16 1.62 5.55 3.37 9.21 3.27h.04c.09 0 .17-.03.23-.06 3-1 5.82-2.2 8.73-3.49.61-.3.32-1.37-.29-1.06-2.82 1.3-5.99 2.48-8.82 3.48-2.23-.04-4.1-.65-6.06-1.72-1.53-.81-2.89-1.91-4.58-2.33-5.43-1.36-9.21 2.55-9.19 2.56-.9.81-1.4 1.91-2.01 2.91-.59 1.06-1.99 1.42-2.04 2.76 0 .03-.03.57.1.68.53 1.6 2.9 1.49 4.26 1.22 1.32-.3 2.44-.91 3.46-1.72.61-.51.81-.81 1.63-.71.89.1 1.69.1 2.58.19.52 1.84 1.72 3.29 3.02 4.67 1.59 1.58 3.45 1.98 5.57 1.94-.06 3.08 3.31 5.81 5.93 6.88.73.27 1.45.38 2.18.39.52 1.37-.38 2.67-1.57 3.25-1.22.61-2.24.1-3.46-.51l-5.29-3.85c-.61-.41-1.22.51-.61.91 2.29 1.36 4.16 3.55 6.6 4.53l.01.03c.71.81-.41 2.03-1.02 2.63-1.02 1.01-2.75.3-3.77-.3-2.24-1.22-3.66-3.44-5.8-4.86-.51-.51-1.02.51-.51.81 2.33 1.55 4.2 4.34 6.81 5.38-.42 2.39-3.16 2.3-4.26 1.8-1.02-.41-1.73-1.22-2.55-1.92l-3.05-2.94c-.41-.51-1.12.3-.61.81l3.97 3.75c.92.81 2.04 1.72 3.26 1.72 1.73.1 4.28-.81 4.28-2.84v-.08c.51.1 1.06.14 1.63.08 1.53-.16 3.11-2.08 2.97-3.68l.19.04c1.02.2 2.24-.71 2.95-1.32 1.02-.91 1.32-2.32.92-3.53 2.65-.38 5.19-2.13 7.34-3.62 1.39-.87 2.88-1.46 4.47-1.85.73-.24.42-1.25-.29-1.05zM30.28 44.23c.92.61 1.73 1.42 2.65 2.13.92.71 1.93 1.11 3.05 1.52.71.2.92-.81.3-1.01-1.02-.3-2.04-.81-2.85-1.52s-1.63-1.42-2.55-2.03c-.6-.41-1.21.5-.6.91z"/><path fill="#151841" d="M36.29 47.88c2.85-1.22 6.41-2.43 9.57-1.72.71.2.92-.91.3-1.01-3.36-.81-7.13.41-10.18 1.72-.61.19-.41 1.21.31 1.01zM30.89 42c-1.53 3.04-3.36 5.88-5.29 8.71l-3.05 4.36c-1.22 1.72-2.85 3.34-4.99 2.03-.61-.41-1.12.61-.51.91 3.46 2.13 5.8-1.42 7.64-3.95 2.65-3.65 5.19-7.5 7.23-11.55.19-.61-.72-1.12-1.03-.51z"/><path fill="#151841" d="M31.61 41.8c-2.34-1.52-4.58-3.14-6.92-4.76-2.34-1.62-4.78-3.24-6.92-5.07-.51-.41-1.32.3-.81.81 2.14 1.82 4.58 3.44 6.92 5.07 2.34 1.72 4.68 3.44 7.13 4.96.6.3 1.21-.61.6-1.01zM81.69 60.03c-.3.81-1.32-1.11-1.43-1.22l-1.22-2.23c-.71-1.32-3.16-6.79-3.77-8.21-.71-1.62-1.73-3.44-.92-5.27l.04-.1c2.84-1.52 4.77-4.55 7.71-5.96.61-.3.1-1.22-.51-.91-2.95 1.42-4.89 4.46-7.74 5.98-.15.08-.37.41-.41.51-.71 1.72-.41 3.24.41 4.96 1.02 2.33 4.89 11.24 6.21 12.97.81 1.11 2.24 1.32 2.65-.2.2-.72-.81-.93-1.02-.32z"/><g><path fill="#151841" d="M50 100L16 80.14V19.5L50 16l34 3.5v60.64L50 100zM19.04 78.44L50 96.53l30.96-18.09V22.19L50 19l-30.96 3.19v56.25z"/></g></svg>
