<svg width="100" height="100" viewBox="0 0 100 100" xmlns="http://www.w3.org/2000/svg"><path fill="#F15A29" d="M18.11 78.69L50 97.32l31.89-18.63V20.74L50 17.45l-31.89 3.29zm49.11-62.01h.3m5.42 5.89"/><path fill="#151841" d="M50 100L16 80.14V19.5L50 16l34 3.5v60.64L50 100zM19.04 78.44L50 96.53l30.96-18.09V22.19L50 19l-30.96 3.19v56.25z"/><path fill="#818385" d="M52.09 71.43c-1.01-.2-2.01-.5-2.92-1.11-.41-.2-.91 0-1.01.41l-.3.91c-.1.2 0 .41.1.5-.3.41-.61.8-.8 1.3-.41.8.8 1.41 1.11.71.2-.41.41-.8.71-1.21.91-.1 1.82-.1 2.83-.2.8-.1 1.09-1.22.28-1.31z" opacity=".4"/><path fill="#292E59" d="M58.16 56.42c.71.1 1.31-1.21.8-1.61-.8-.61-1.41-1.51-2.01-2.32-.1-.1-.1-.3-.1-.41-1.41-2.71.6-4.69 1.4-4.79l.71-.35c.5 0 .91.3 1.51.3s.71-.91.3-1.21c-.61-.41-.97-.69-1.57-.79-.3-.3-.85-.31-1.04-.62 0-.61-.2-1.3-.5-1.91-1.11-1.82-3.33-2.82-5.05-3.92-2.01-1.3-3.93-2.62-5.96-3.92-1.82-1.21-20.58-14.19-22.61-15.4 0 0-4.28-3.89-7-4.73-1.04-.32-1.98.68-2.18 1.21-.61 1.71-1.41 3.32-2.42 4.94-.29.45-.79.96-.53 1.48.58 1.1 2.54 2.18 2.74 2.25 1.62.61 5.35 3.72 5.96 4.12.1 0 .5 1.61 1.41 1.91 1.31.41 5.65 4.23 5.65 4.23.1.41 2.78 1.48 2.88 2.49 0 .1.1 1.28 0 1.37-.41.5-2.22 3.05-1.46 5.39.25.77 1.71 1.82 1.62.91 0-1.21.2-2.32.8-3.42 0-.1 1.11-1.11 1.11-1.11s1.11-1.11 1.21-1c.41.41 1.21.37 1.51.88 0 0 2.92 2.44 4.75 3.25 0 0-1.21 0-1.21.1-1.76 4.96-4.95 4.12-4.95 4.12-.1 0 .8 1.91 3.22 1.3-.71.1-.41.61.2.8.2.1.8.61.91.71.2.3.5.5.8.61.1 0 .2.1.2.2-.41.1-.61.5-.5.91-.25.51.6 2.25.71 2.34 1.31 1.82 3.67 2.68 5.29 2.49 0 0 1.01.31 0 1.83 0 0-.61.48-.91.68-.5.41.67 2.33.67 2.63v.1c-.41 2.12-1.92 1.21-2.63 2.32-.91 1.61-1.92 2.62-3.43 2.51 0 0-4.75-.41-4.84-.5-.71-.41-1.21.61-.61 1.11.61 1.71 9.39 5.83 10.09 6.15.71.3 2.42 1.41 3.13.91.91-.71 1.11-2.62 1.51-3.72.3-.8.5-3.02.61-3.42"/><path fill="#fff" d="M37.77 42.73c0-.1-.61-.3-.71-.41-.1-.41-1.95-.81-3.13.71-.71.91-1.11 2.01-.3 3.02.2.3.41.91.71.91.1.1.62.03.8.1 1.18.46 2.29-1.69 2.59-2.19.21-.7.54-1.53.04-2.14z"/><path fill="#292E59" d="M58.55 71.93c-1.11.91-2.52 1.21-3.84 1.61-.8.1-.5 1.3.2 1.11 1.62-.41 3.13-.8 4.44-1.91.61-.51-.3-1.31-.8-.81z"/><path fill="#292E59" d="M43.82 59.24c.5-.2 1.11-.8.91-1.41-.2-.71-.71-1-1.41-1.3-1.21-.41-2.52-.2-3.63-.91-.41-.5-.5-1.11-.41-1.71.1-.71-.91-1.21-1.21-.5-.41.91-.8 2.71-1.82 3.12-.5.2-.91.61-1.31 1-.2.2-.41.5-.5.91v.3c-.1.41-.1.8.1 1.21.2.3.3.61.61.8-.71 1.41-1.82 3.12-1.62 4.73.2 1.3 1.82 1.91 3.03 1.61h.1c.1.2.2.41.41.41.61.1 1.11.1 1.51-.1.1.1.3.1.5.1 1.31-.5 2.52-1.21 2.33-2.82 0-.2-.1-.41-.2-.5 0-.5-.61-.8-1.01-.61-.1.1-.2.1-.41.2l.2-.41c0-.1 0-.1.1-.2h.2c.3.1.61.1.91.1l.1.1c.71.5 1.41.3 1.92-.2.8-.2 1.21-.61.71-1.61 0-.1-.1-.1-.2-.2 0-.2 0-.5-.1-.8-.1-.41-.61-.61-.91-.41-.1-.2-.3-.3-.5-.3l.1-.8v-.1c.29.3.9.51 1.5.3zm-4.34-1c-.1.1-.1.2-.1.3-.1-.1-.3-.2-.5-.2-.1-.1-.2-.2-.2-.3-.1-.1-.3-.2-.5-.2l.1-.5c.29.4.7.7 1.2.9zm11.4-.11c-1.31 1.11-2.22 2.62-2.72 4.23-.3.8 1.01 1.21 1.31.41.5-1.41 1.31-2.71 2.42-3.72.61-.51-.4-1.42-1.01-.92z" opacity=".4"/><path fill="#fff" d="M73.65 82.67c-2.72-3.53-5.4-6.31-8.63-9.33-.8-.8-1.82-1.82-3.03-2.32.1-.2 0-.41-.1-.61-1.21-1.51-1.31-3.42-1.62-5.33-.3-1.91-1.01-3.83-1.82-5.54-.71-1.41-1.71-2.51-2.92-3.53l-.8-.61c-.3-.2-.61-.5-.91-.8-.41-.41-.8-.91-1.31-1-.61-.8-1.92-1.11-3.03-1.3l-.91-.2c-.3 0-.5-.1-.71-.1-1.11-.3-2.12-.71-3.33-.8-1.11-.1-1.71-.41-2.83-.41l-.3-.3c-.41-.2-.91-.41-1.11-.2 0 0-.71.3-.71.41-.61.1-.8.41-.91.71-.41-.8-.61-.91-1.31-.8-.1 0-.1 0-.2.1 0 0-1.01-.8-1.92-.91-1.01-.1-1.92.61-1.51 3.72.1.91 1.31 1.41 1.92 2.01v.2l-.71-.41c-1.11-.71-2.52-.3-3.03 1-.91 2.32.5 3.83 2.33 4.83v.1c-1.01.1-1.92.41-2.33 1.21-.8 1.61-.41 2.92.91 3.92 0 0 3.61 1.49 6.96.91.47-.08 1.63-1.06 1.52-1.17-.3-1 .29-.74-.22-1.65H42c.8-.2.5.1 1.21-.5.5-.41 1.31-.91 1.11-1.61.3-1-.91-2.32-.91-2.42.91-.1 1.51-1.11 2.01-1.82 0-.1.41-1.11 2.01-.1l.91.71.61.61c0 .41-.2 1.21-.3 2.01l-.2.91c-.2 1-.41 2.01-.41 2.42 0 .8 0 1.21.1 1.61 0 .1.2.71.3.8-.3 1.51-.41 1.3.3 2.51-.5 1.91-1.41 4.03-1.92 5.03-.1.2-.2.5-.3.61 0 0-.3.3-1.31.1l-1.71-.61-1.71-1 .3 1c.8 1 1.92 1.51 3.03 1.91.5.2.41.5.91.5.1.2.3.3.61.5 1.92 1 3.43 2.21 4.75 3.83 1.41 1.71 1.51 4.42 2.72 6.24 1.31 2.01 1.44 3.78 2.34 5.09 2.57-1.69 17.5-10.13 17.2-10.13z"/><path fill="#818385" d="M43.82 59.24c.5-.2 1.11-.8.91-1.41-.2-.71-.71-1-1.41-1.3-1.21-.41-2.52-.2-3.63-.91-.41-.5-.5-1.11-.41-1.71.1-.71-.91-1.21-1.21-.5-.41.91-.8 2.71-1.82 3.12-.5.2-.91.61-1.31 1-.2.2-.41.5-.5.91v.3c-.1.41-.1.8.1 1.21.2.3.3.61.61.8-.71 1.41-1.82 3.12-1.62 4.73.2 1.3 1.82 1.91 3.03 1.61h.1c.1.2.2.41.41.41.61.1 1.11.1 1.51-.1.1.1.3.1.5.1 1.31-.5 2.52-1.21 2.33-2.82 0-.2-.1-.41-.2-.5 0-.5-.61-.8-1.01-.61-.1.1-.2.1-.41.2l.2-.41c0-.1 0-.1.1-.2h.2c.3.1.3.2.61.2l.61.41c.71.5 1.51.61 2.01.1.8-.2 1.62-2.71-.8-3.72-.1-.2-.3-.3-.5-.3l.1-.8v-.1c.29.29.9.5 1.5.29zm7.06-1.11c-1.31 1.11-2.22 2.62-2.72 4.23-.3.8 1.01 1.21 1.31.41.5-1.41 1.31-2.71 2.42-3.72.61-.51-.4-1.42-1.01-.92z" opacity=".4"/><path fill="#151841" d="M71.97 79.68c-1.51-1.71-3.13-3.32-4.75-5.03-.8-.8-1.62-1.71-2.42-2.62-.71-.71-1.51-1.41-2.22-2.21-.91-1-1.11-2.12-1.31-3.42-.5-2.62-1.21-5.03-2.22-7.45-.17-.34-.53-.99-.97-1.71h.06c.61 0 1.21-.41 1.41-.91.3-.61.2-1.41-.3-1.91l-1.51-1.71c-.3-.41-.61-.71-.8-1.11l-.1-.8c-.1-.71.1-1.51.5-2.12.2-.41.61-.71 1.11-.71l2.22-.1c.5 0 1.01-.5 1.01-1.11.1-.71-.3-1.3-.91-1.51l-1.82-.71c-.2-.1-.3-.3-.41-.5l-.3-1.21c-.2-.71-.71-1.3-1.31-1.71l-12.92-8.75c-.1-.1-.3-.1-.5 0l-.3.2-5.65-4.03c.1-.2 0-.5-.2-.61L17.6 14.05c-.2-.1-.5-.2-.8-.2-.5 0-.91.2-1.21.61l-.1.1c0-.1-.1-.2-.2-.2-.3-.1-.61-.1-.8.2l-2.76 4.53c-.1.3-.1.61.2.8.1.1.2.1.3.1l-.8 1.41c-.41.61-.2 1.3.3 1.71l8.17 6.04.1.61c0 .1.1.2.2.3l8.68 6.54c1.51 1.21 1.21 2.21.8 2.82l-.41.8c-.3.41-.5 1-.71 1.61-.5 1.61.1 3.32 1.51 4.33.8.5 2.72 1.91 3.93 2.82 0 .1.1.2.3.2l.12.07c-.49.25-.92.63-1.23 1.14-.71 1.11-.61 2.42-.2 3.72-.61.3-1.01.71-1.31 1.21-.1 0-.1.1-.1.2-.91 2.01-.41 3.72.91 5.03-1.11.5-1.82 1.41-1.82 2.82 0 1.21.2 2.32 1.21 3.02 0 .1.61.3.8.41l-.1.41c-.3.91.1 1.91 1.01 2.42l6.81 3.84c1.14 2.64 3.73 4.12 6.51 4.82l.61.2c1.41.5 3.03 2.92 3.93 4.83.91 1.82 1.62 3.72 2.72 5.33.61 1 1.01 2.32 1.51 3.42.3.8.8 2.01 1.71 2.42.61.2 1.21-.8.5-1.11-.91-.41-1.41-2.42-1.82-3.22-.5-1.3-1.21-2.42-1.82-3.62-1.62-3.32-2.83-8.06-6.66-9.36h-.1l-.2-.1c-1.65-.43-3.42-1.12-4.61-2.32l1.79 1c.3.2.71.3 1.01.3.61 0 1.01-.3 1.51-.8.5-.91 1.11-3.12 1.62-4.94.1.2.3.41.5.61 1.11 1.11 2.72 1.71 4.24 1.71.8 0 .8-1.21 0-1.21-1.51.1-3.03-.71-3.93-2.01-.8-1.21-.71-3.32-.5-4.73.1-1.11.2-2.42.61-3.42.2-.5.41-1.21.3-1.82.91 0 1.62-.5 2.01-1.51.41-.71-.8-1-1.11-.3-.2.61-.8.71-1.31.61-1.21-1.41-4.04-1.11-5.55-1.51-.8-.2-1.62-.41-2.33-.71-.91-.41-1.51-1.41-2.12-2.21-.5-.71-.61-1.61.2-2.12.71-.41 1.71 0 2.52.2.2 0 .41-.1.5-.2.5.1 1.11.2 1.62.2 1.31.1 2.33-.41 3.54.2.2.1 2.42.71 3.63 1.21.36.16 1.52.93 2.65 1.76.13.12.26.24.44.34.92.71 1.74 1.39 1.95 1.73 1.71 3.02 3.13 6.15 3.73 9.56.3 1.82.71 3.32 2.01 4.73 1.21 1.41 2.63 2.62 3.84 3.92 1.31 1.41 2.63 2.71 3.93 4.03.8.8 1.51 1.71 2.33 2.51l.91 1.11c.2.3.2.61.3.41-.3.71.91 1 1.21.3.16-1.32-2.16-3.33-2.76-4.03zM37.16 29.65L42 33.07l-.8.41c-.1 0-.2 0-.3-.1l-3.84-2.82c-.1 0-.1-.1-.1-.2l.2-.71zm-21.7-12.78l19.38 13.28c.1.1.2.1.3.1.2 0 .41-.1.5-.2.2-.3.2-.61-.1-.8L15.98 15.86l.41-.71c.1-.2.3-.2.41-.1l19.48 13.49-.41 1.61v.1c-.1.5.1 1 .5 1.3l3.93 2.82c.3.2.61.3.91.3h.5l2.01-1 12.61 8.36c.41.2.71.61.8 1.11l.3 1.11c.2.61.61 1 1.11 1.21l1.62.8c.2 0 .3.2.3.41l-2.12.1c-.8 0-1.51.41-2.01 1.11l-.3.61-8.58-5.95c.5-.8.91-1.61 1.51-2.42l7.47 5.13c.1.1.2.1.3.1.2 0 .41-.1.5-.2.2-.3.1-.61-.1-.8l-14.12-9.76c-.3-.2-.61-.2-.8.1-.2.3-.1.61.1.8l4.04 2.82-1.51 2.42v.1l-21.7-14.99c0-2.92-6.96-7.25-8.27-7.95l.59-1.02zm30.78 24.95l-.3-.3c.1-.1.1-.1.1-.2.5-.8.91-1.51 1.41-2.32l.41.3-.1.1-1.52 2.42zm-14.83 3.03c-.71-1.3.41-3.22 1.41-4.03l.1-.1.1-.1c.5-.41 1.51-.2 2.01.2l.41.3c-.5.1-1.11.41-1.62.71-1.01 1-1.51 2.42-1.21 3.83l.1.61c-.49-.42-1-.81-1.3-1.42zm2.32-.21c0-.71.3-1.11.8-1.71.71-.8 1.71-.8 2.72-.5l.61.41c0 .41 0 .8-.2 1.3-.3.61-.61 1.21-.8 1.51l-.2.3-.3.3c-.3.2-.61.41-.91.5-.61.01-1.93-.9-1.72-2.11zm6.46-.09c.2.2-.1 1.41-1.01 2.51-.5.71-1.92 2.01-3.84 1.41l-.61-.41c.2 0 .41 0 .61-.1.3 0 .61 0 .91-.1.91-.3 1.75-.97 2.15-1.67.41-.71.78-1.65.78-2.45l1.01.71c-.1-.01-.1.1 0 .1zm-7.88 13.19c0-.41 0-.8.1-1.21 0-.2.1-.3.2-.5v-.1c.2-.41.5-.61.91-.8 0 0 .1 0 .1-.1 1.01 1 2.01 1.61 3.33 2.32 1.51.8 2.92 1.82 4.44 2.51l.8.3c.1.1.2.2.3.2.8.2 1.41.91 1.51 1.82.1.71-.1 1.11-.71 1.41-.2.2-.5.3-.91.1-.1 0-2.83-1.11-3.03-1.21-1.11-.41-2.22-.91-3.33-1.3-1.68-.63-3.5-1.73-3.71-3.44zm.21 7.64c-.61-.41-.71-1.11-.8-1.82-.1-1.21.5-1.82 1.71-2.21h.1c.2.2.5.3.71.41 1.71.8 3.43 1.41 5.25 2.01.41.2 1.01.5 1.62.71.3.8-.41 1.41-1.11 1.82-.71.5-1.41.41-2.22.41-1.73-.11-5.15-1.33-5.26-1.33zm13.31-7.45c.2 0 .41.1.71.1.3.1.71.2 1.11.3 0 .2.1.3.3.41l.3.2.1.2c.2.91-.3 1.61-.5 2.42-.3 1.51-.5 3.12-.5 4.63 0 .8.1 1.71.41 2.51-.61 3.62-1.51 6.15-2.42 6.15-.1 0-.2-.1-.41-.2l-10.9-6.13c-.41-.3-.61-.8-.5-1.21l.1-.2c1.92.71 4.04 1.21 5.96.8 1.31-.3 2.52-1.61 2.63-2.92h.3c1.21-.3 2.52-1 2.63-2.51.1-.91-.3-1.71-.91-2.42.79-.32 1.4-1.02 1.59-2.13zm-4.13-.9c1.01.41 2.01.5 3.03.71-.41 3.12-4.14.2-5.55-.61-1.82-1-3.54-1.82-4.95-3.32l-.1-.1c-.3-.91-.5-1.82 0-2.62.3-.71 1.11-1.11 1.82-1.11.61.5 1.31.91 2.12 1.11-.5.8-.41 1.82 0 2.62.81 1.5 2.02 2.71 3.63 3.32zm9.18-5.44c-.8-.5-3.03-1-3.22-.91-.61-.3-1.21-.41-2.01-.3-1.11.2-2.12.2-3.13 0h-.1c-1.01-.3-2.22-.61-3.22-.1l-.3-.2c-.52-.13-1.03-.35-1.5-.61.97-.25 1.88-.88 2.71-1.81 1.01-1.21 1.71-3.02 1.01-3.92 0-.1-.1-.2-.2-.3L38 41.43c-.1-.1-.2-.2-.41-.3h-.1l-1.92-1.41c-.8-.61-2.33-.8-3.33-.2l-.1.1-.61.61s-.1.1-.1.2c-1.01 1.11-1.62 2.62-1.41 4.03 0 .1 0 .2.1.3-.71-.71-.91-1.71-.71-2.71.2-.5.41-1 .61-1.41l.5-.8c.61-.8 1.11-2.51-1.11-4.23l-8.38-6.34-.1-.61c0-.1-.1-.2-.2-.3l-8.39-6.16c-.1 0-.2-.1-.1-.2l1.92-3.22c3.03 1.82 8.08 5.54 7.77 7.15-.1.2 0 .41.2.61l33.5 23.15c-.1.41 0 .91 0 1.3l.2.8c.1.1.1.1.1.2.2.41.5.91.91 1.3l1.51 1.82c.2.2.2.5.1.71-.1.2-.41.3-.61.2l-.89-.44c-.35-.44-.7-.81-1.03-1.06-1.1-.81-4.23-2.43-5.04-2.93zm7.67 20.34c-1.11.91-2.52 1.21-3.84 1.61-.8.1-.5 1.3.2 1.11 1.62-.41 3.13-.8 4.44-1.91.61-.51-.3-1.31-.8-.81z"/></svg>