<svg width="100" height="100" viewBox="0 0 100 100" xmlns="http://www.w3.org/2000/svg"><path fill="#A9A09F" d="M17.17 79.07l31.9 18.63 31.89-18.63V21.11l-31.9-3.28-31.89 3.28z"/><path fill="#A9A09F" stroke="#F15A29" stroke-width="4" stroke-miterlimit="10" d="M62.29 10.450000000000003"/><path fill="none" d="M21.4 62.59h.3"/><path fill="#151841" d="M50 100L16 80.14V19.5L50 16l34 3.5v60.64L50 100zM19.04 78.44L50 96.53l30.96-18.09V22.19L50 19l-30.96 3.19v56.25z"/><path fill="none" stroke="#29323B" stroke-width=".75" stroke-miterlimit="10" d="M51.46000000000001 45.74"/><path fill="none" d="M45.08 64.2l-1.12-.21-1.41.97c1.03.54 1.96.07 2.53-.76zm-5.47 4.48c1.27.67 2.44-.5 2.44-1.76 0-.48-.13-.91-.32-1.29l-.06-.06-2.48 1.71-.4.88c.22.14.44.28.64.44l.18.08zm-7.17 3.13l.26.88.16-.43c-.15-.15-.29-.3-.42-.45zm.59-.79c1.08 1.37 4.6 3.23 6.06 1.46 1.24-1.42.43-2.49-.73-3.37l-.65 1.43-4.15-1.23-1.7.49.41 1.4c.11-.31.49-.51.76-.18z"/><path fill="#fff" d="M56.37 93.44l17.69-10.42c-.1-.19-.48-.5-.66-.59-1.17-.88-7.59-5.58-9.93-7.15-1.66-1.08-3.88-2.4-5.38-3.51-2.39-1.48-1.89-10.72-3.81-13.14 0-.09.63-2.68-9.87-3.13.39-1.66-2.44-4.1-2.54-4.1.2-1.17-1.9-1.91-4.62-.66-1.54 1.52-1.43 4.08-1.21 3.84-.65-.03-.81-.26-1.2-.26-.78 0-1.16-.17-1.75.31-.29.29-3.78 3.97-1.83 5.13-2.27 1.18-2.39 5.9-.54 7.47-.2.09-2.63 5.02 1.13 7.64.78.78 5.19 4.45 10.86 6.26 5.6.5 5.43.97 5.72 1.07 1.66 2.34 7.29 10.27 7.94 11.24z"/><path fill="none" d="M75.63 5.83l.31 4.46"/><path fill="#fff" d="M75.85 7.42l-.1-.2v-.1"/><path fill="#818285" d="M47.93 66.04c-.4 3.27 2.89 4.66 1.5 5.95-6.48 6.05-3.19 10.52-7.68 8.73-5.88-2.28-11.96-6.95-8.57-14.39 2.59-5.75 2.99-16.57 9.47-13.69 2.29.99 1.79 2.68 1.6 2.78-.9.5-1.69-.2-2.49.6-1.3 1.19-4.79 4.37-4.29 6.35.6 2.38 4.29 1.89 6.38.1.7-.6.9-1.69.8-3.08 0-1.19 2.89.99 3.79.99 1 0 1.69 1.09 1.4 1.29-.91.62-1.81 3.59-1.91 4.37z" opacity=".6"/><path fill="none" d="M67.56 18.43h.21"/><path fill="#4751A2" d="M40.95 78.95l-6.98 1.19-2.89-6.45.4-.79c1.79 1.59 4.98 2.68 6.98 1.49 1-.6 1.5-1.79 1.4-2.98 0-.3-.1-.6-.2-.89 1.5-.1 2.69-1.79 2.49-3.57v-.2c.9.2 1.69-.1 2.29-.69-.2 1.59.37 3.51 1.27 4.7l-4.76 8.19z"/><path fill="none" d="M41.45 52.46c-.1 0-.2-.1-.3-.2 0 0-.1 0-.1-.1-.3-.2-.3-.6 0-.79 0-.1.1-.2.1-.4-1.1-.69-2.29-.99-3.39-.2-.7.6-1.4 1.49-1.5 2.48 0 .4.1.79.3 1.29.2.4 1.79 2.48 2.59 2.68.2 0 .3.1.3.3l.1-.1c.8-.69 1.5-1.89 2.49-2.28.5-.2 1-.2 1.6-.2-.4-.89-1.19-1.68-2.19-2.48zm3.39 10.82c-.2-.1-.4-.2-.5-.4-.5.5-1.2.89-1.79 1.09-.5.2-1.2.4-1.89.5l.9 1.09M49.92 46.91l-.6-.3.6.3zm-5.48 19.25c-.6.6-1.5.79-2.29.69v.2c.2 1.69-1 3.37-2.49 3.57.1.3.2.6.2.89.1 1.09-.4 2.38-1.4 2.98-2.09 1.19-5.18.1-6.98-1.49l-.4.79 2.89 6.45 6.98-1.19 4.39-8.33c-.9-1.39-1.11-2.98-.9-4.56zm-7.38-2.98c-.2-.3-.3-.5-.3-.79-.4-.4-.8-.89-1.3-1.29-1.3-1.19-4.29-1.79-5.18.3-.7 1.49-.4 3.67.5 5.06 2.09-1.79 4.59.79 6.58 1.98l1.2.79c1.3.69 2.49-.5 2.49-1.79 0-1.09-.7-1.89-1.4-2.48-.2-.2-.4-.4-.6-.5-.79-.09-1.5-.49-1.99-1.28zM51.22 47.8l.2.1-.1-.2-.1.1zm9.77 8.63l.7-1.29-23.23-13-.8 1.39 23.33 12.9zM40.95 48.5"/><path fill="#fff" d="M73.85 6.53l-13.86 6.15-14.56 31.85 3.89 2.18.6.3L73.85 6.53zm1.3.79L50.88 47.43l.54.47 4.97 2.78 19.65-30.16-.89-13.2z"/><path fill="#4751A2" d="M42.25 52.17s2.09 1.59 2.59 2.98v.1c.4.1.8.1 1.1.1 1.79.1 3.79 0 5.58.6l-8.77-4.86c0-.01-1.2-.61-.5 1.08z"/><path fill="none" d="M37.46 63.18c-.2-.3-.47-.96-.47-1.27-.4-.4-1.01-.89-1.51-1.3-1.3-1.19-4.3-1.32-5.2.77-.7 1.49-.4 3.67.5 5.06 2.09-1.79 4.59.79 6.58 1.98l1.2.79c1.3.69 2.49-.5 2.49-1.79 0-1.09-.7-1.89-1.4-2.48-.2-.2-.4-.4-.6-.5-.79-.07-1.09-.47-1.59-1.26zm5.19-12.01c-.1.1-.1.1-.1.2l-.1.2-.1.3v.2c1.1.89 1.99 1.89 2.49 3.17v.1c.4.1.8.1 1.1.1 1.79.1 3.79 0 5.58.6l-8.77-4.86-.1-.01zm-1.2 1.29c-.1 0-.2-.1-.3-.2 0 0-.1 0-.1-.1-.3-.2-.3-.6 0-.79 0-.1.1-.2.1-.4-1.1-.69-2.29-.99-3.39-.2-.7.6-1.4 1.49-1.5 2.48 0 .4.1.79.3 1.29.2.4 1.79 2.48 2.59 2.68.2 0 .3.1.3.3l.1-.1c.8-.69 1.5-1.89 2.49-2.28.5-.2 1-.2 1.6-.2-.4-.89-1.19-1.68-2.19-2.48zm-.09 13.6c1.69 1.09 3.74-1.08 3.84-2.87-.2-.1-.79-.58-.89-.78-.5.5-1.07.88-1.67 1.08-.5.2-1.73 1.03-2.42 1.13l1.14 1.44zm18.63-53.48L45.43 44.53l3.9 2.18.6.3v-.1L73.85 6.53l-13.86 6.05zM31.48 71.51c.8.99 1.89 1.59 2.99 1.98.9.3 2.29.79 3.19.2 1-.6 1.6-1.79 1-2.88-.2-.3-.4-.5-.6-.69-.6-.5-1.4-.89-2.09-1.39-1.5-1.09-3.79-3.17-5.18-.69-.6 1.09-.9 2.88-.4 4.17l.4-.6v-.1c.09-.2.49-.3.69 0zm9.47-23.01M37.26 44.23l-.9 1.69.9-1.69zm23.33 12.9l-1 1.79 1-1.79zm-4.2-6.45l19.65-30.16-.9-13.2L51.32 47.7l-.1.1.2.1 4.97 2.78z"/><path fill="#fff" d="M60.59 57.13l.4-.69-.4.69zM38.46 42.15l-.8 1.39 23.33 12.9.7-1.29-23.23-13zm-.8 1.39l-.4.69.4-.69z"/><path fill="#4751A2" d="M60.99 56.43l-23.33-12.9-1.78 2.59 4.77 2.91 18.99 10.52 1.35-3.12z"/><path fill="#151841" d="M77.33 20.92l-1.1-16.87-17.25 7.64-14.75 32.24-6.28-3.57-3.38 6.05 5.58 3.17c-2.09-.4-4.09.79-4.69 3.17-.1.4-.1.79-.1 1.19-1.3-.5-2.59 0-3.59 1.39-.7.99-1.6 2.98-1.2 4.37-.3.2-.6.5-.8.79-1.3 1.89-.9 4.96.4 6.75-1.2 1.59-1.4 4.27-.4 5.95l-.2.4 3.49 7.94 7.28-1.19c1.4 1.09 2.79 1.59 4.69 1.49 2.59-.1 3.89 1.29 5.18 3.27 1.79 2.88 3.59 5.75 5.38 8.73.3.5 1.2 0 .9-.5-1.79-2.88-3.59-5.75-5.38-8.73-.8-1.39-1.89-2.98-3.49-3.47-1-.3-1.89-.3-2.89-.3-1.2 0-2.09-.2-2.89-.79h.1l4.49-8.63c1 .69 2.19.89 3.29.79.6 0 .6-.99 0-.99-1 .1-1.99-.1-2.79-.69-2.29-1.49-1.5-4.96-.8-7.14 1.5 0 2.79-.99 3.79-1.98.5-.4-.2-1.09-.7-.69-.8.79-1.89 1.59-3.09 1.69-.4 0-.9-.1-1-.5.2-.3.4-.69.4-.99 0-.5-.2-1.09-.1-1.49.1-.6-.8-.89-1-.3-.1.4 0 .69 0 .99.1.5 0 .89-.2 1.19l-.2.3c-.3.4-.8.79-1.3 1.09-.9.5-2.09.79-3.19.69-1.6-.1-1.89-1.19-1.89-1.69 0-.4.1-.89.3-1.29.7-1.19 2.09-1.98 3.09-2.88.4-.3.7-.69 1-1.09.4-.5 1-.5 1.6-.4l5.38.3c1.99.1 3.69.69 4.79 2.38 1 1.49 1.3 3.57 1.5 5.26.3 2.68.1 5.85 2.19 7.94 1.3 1.19 2.99 2.18 4.39 3.17 4.39 3.08 8.87 6.05 13.16 9.23.5.4 1-.5.5-.89-4.39-3.37-9.07-6.45-13.66-9.62-.7-.5-1.4-1.09-2.09-1.49-1.69-1.09-2.59-2.08-2.99-4.17-.6-3.27-.3-6.95-2.29-10.02-.2-.4-.5-.69-.8-.99l6.38 3.57 3.39-6.05-5.98-3.29L77.14 21.1l.19-.18zm-17.34-8.34l13.86-6.05-23.93 40.48v.1l-.6-.3-3.89-2.18 14.56-32.05zM30.78 71.61l-.4.69c-.5-1.29-.1-3.08.4-4.17 1.3-2.48 3.69-.4 5.18.69.7.5 1.5.79 2.09 1.39.2.2.4.4.6.69.6 1.09 0 2.28-1 2.88-.9.5-2.29.1-3.19-.2-1.2-.4-2.29-.99-2.99-1.98-.19-.38-.59-.28-.69.01zm14.56-.99l-4.39 8.33-6.98 1.19-2.89-6.45.4-.79c1.79 1.59 4.98 2.68 6.98 1.49 1-.6 1.5-1.79 1.4-2.98 0-.3-.1-.6-.2-.89 1.5-.1 2.69-1.79 2.49-3.57v-.2c.9.2 1.69-.1 2.29-.69-.21 1.68 0 3.27.9 4.56zm-2.79-6.55c.6-.3 1.3-.6 1.79-1.09.1.2.3.3.5.4-.1 1.79-1.6 3.37-3.29 2.28-.3-.4-.6-.69-.9-.99.7-.2 1.4-.4 1.9-.6zm-3.39.4l.6.5c.8.69 1.4 1.49 1.4 2.48 0 1.29-1.2 2.48-2.49 1.79-.4-.3-.8-.6-1.2-.79-1.99-1.19-4.49-3.67-6.58-1.98-.9-1.39-1.2-3.67-.5-5.06.9-2.08 3.89-1.49 5.18-.3l1.3 1.29c.1.2.2.5.3.79.38.78 1.09 1.18 1.99 1.28zM36.76 61l-.6-.5c-1.2-1.09-3.19-1.69-4.79-1.19-.2-.89.5-2.38.9-2.98.8-1.49 2.19-1.98 3.59-.89l.4.6c.6.89 1.5 1.98 2.49 2.38-.79.69-1.69 1.58-1.99 2.58zm5.39-5.66c-1 .4-1.69 1.59-2.49 2.28l-.1.1-.3-.3c-.9-.2-2.49-2.38-2.59-2.68-.2-.5-.3-.89-.3-1.29 0-.99.7-1.89 1.5-2.48 1.1-.79 2.39-.5 3.39.2 0 .1-.1.2-.1.4-.2.2-.3.6 0 .79 0 0 .1 0 .1.1l.3.2c1 .69 1.79 1.49 2.29 2.58-.71-.2-1.2-.1-1.7.1zm3.77 0c-.3 0-.7-.1-1.1-.1v-.1c-.5-1.39-1.4-2.38-2.49-3.17-.3-.1.2-.99.4-.89l8.77 4.86c-1.79-.6-3.77-.6-5.58-.6zm13.68 3.57L41.05 48.58 36.37 46l1-1.69.4-.69.8-1.39L61.7 55.14l-.7 1.29-.4.69-1 1.79zm-3.21-8.23l-4.98-2.78-.2-.1v-.1L75.14 7.31l.9 13.2-19.65 30.17z"/></svg>