<svg width="100" height="100" viewBox="0 0 100 100" xmlns="http://www.w3.org/2000/svg"><path fill="#4751A2" d="M18.11 79.07L50 97.7l31.89-18.63V21.11L50 17.83l-31.89 3.28z"/><path fill="#151841" d="M50 100L16 80.14V19.5L50 16l34 3.5v60.64L50 100zM19.04 78.44L50 96.53l30.96-18.09V22.19L50 19l-30.96 3.19v56.25z"/><path fill="#2E3192" d="M48.03 55.17c2.05.2 4.79.78 5.86-.29.09 0 5.47 2.83 5.47 2.83.09.2.97 1.08 1.27.78 1.17-1.08 2.25-2.05 2.44-3.71.09-.49-6.15-4.2-7.63-4.89-2.34-1.08-4.49-2.34-6.74-3.52-2.25-1.08-6.74-3.52-6.74-3.52-.09-.39-3.91 1.46-3.91 1.46-.49-.2-.09 1.57.29 1.37v.09c.39 1.37 1.95 1.95 3.23 2.34.29.09 2.83 1.66 2.83 1.66-.2.09-.29.29-.39.49-.39 0-.78.59-.49 1.08.68.97 1.46 1.86 2.05 2.83.29.49.88.97 1.17.68l1.29.32z"/><path fill="#fff" d="M57.2 92.64l17.7-10.37c-.1-.19-.31-.51-.5-.6-1.17-.88-13.58-9.67-15.33-10.55-2.26-1.85-1.96-6.84-2.25-8.3-.29-1.17-.68-2.54-1.27-3.61-.84-2.67-3.41-3.53-4.1-3.24-1.95-.59-4.11-.88-6.06-.49.39-1.66-.68-3.32-2.34-4-.2-.09-.29-.09-.39-.09 1.78-1.35-1.41-2.75-3.97-1.22-.59.49-.77.86-1.16 1.44-.2.49-.14 1.65-.04 1.94v.39s-2.25-.39-3.41.68c-1.2.81-1.67 2.83-1.76 3.91 0 .29 0 .68.2.98-3.27 3.48-.2 6.84-.29 7.14-.39.68-1.06 2.23-.98 3.13-.49 1.17 1.37 3.32 2.44 2.94.78.78 1.37.2 2.54.39 1.66.68 3.42.88 4.29-1.08.49-1.08.16-1.78-.2-2.54.09-.09 2.28-.14 2.35-2.05.2-.2.19-1.44.38-1.73.39 0 1.58-.02 1.88-.42 1.16-.34 1.64-2.19 1.64-2.57.09-.29-.38-.46-.27-.75.39.2.78.29 1.17.29-.39.68-.68 1.46-.97 2.15-1.14 2.37.17 5.55.65 6.03-1.95 2.34-3.23 5.8-4.69 8.54-.49.88 1.01.98 1.89 1.27 1.37.39 4.31.49 4.5.49.06.02 1.13 1.2 1.42 1.3 1.66 2.36 6.28 9.63 6.93 10.6z"/><path fill="#818285" d="M49.1 65.34c-.39 3.23 2.83 4.6 1.46 5.86-6.45 5.97-3.12 10.35-7.63 8.6-5.77-2.25-11.83-6.84-8.4-14.17 2.63-5.66 2.94-16.32 9.29-13.58 2.25.97 1.86 2.63 1.57 2.74-.88.49-1.66-.2-2.44.59-1.27 1.17-5.77 5.08-4.2 6.26.53.41.36 1.16.86 1.38 1.67.75 3.84.07 5.5-1.29.68-.59 0-1.46 1.27-2.44.88-.68 2.44.78 3.23.39 2.42-1.37-.31 3.61-.51 5.66z" opacity=".6"/><path fill="#2E3192" d="M46.27 68.77s.26-2.86-.25-3.48c-.25-.31-.71-.07-1.09.03l-.91.23c-.61-.18-1.28.16-1.01 1.62.14.73-.53 1.23-.8 1.5-1.1 1.11-1.93.62-2.06.62 1.3 2.8-.53 4.16-1.89 4.36-.09 0-4-1.07-4-1.17-.09-.39-.78-.2-.78.2 0 .88.39 1.66.88 2.44-.97 1.95 5.45 3.98 8.07 3.65 1.42-.75 2.69-5.47 4.51-8.31.65-1.01-.4-1.27-.67-1.69z"/><path fill="#F15A29" d="M78.13 2.42c-.29 0-.39-.49-.49-.29-.39-.09-10.07 3.79-14.46 5.57-.09 0-2.44 4.98-2.44 4.98-.39.2-4.69 9.77-6.64 14.26l-3.42 6.94c-1.27 2.54-4 8.31-4 8.6-.09.2-.2.39-.29.68-.2 1.08.49 1.95 1.57 2.25 2.05.59 9.47 7.02 9.66 5.65.2-1.37 2.46-4.57 3.24-5.65.97-1.27 1.86-2.54 2.74-3.91 1.86-2.94 3.52-5.86 5.28-8.8 0 0 0-.09.09-.09 2.74-2.74 4.98-5.86 6.64-9.48.78-1.17 1.46-2.44 1.37-3.91v-.29c.47-1.26 1.53-16.71 1.15-16.51z"/><path fill="#B23725" d="M51.35 47.56L78.81 2.12l1.07 15.15-22.27 33.81-4.5-2.35z"/><path fill="#F15A29" d="M39.542 41.049l24.395 13.642-1.001 1.789-24.395-13.642z"/><path fill="#151741" d="M41.19 79.12c1.57 1.37 3.03 2.05 5.18 1.95 2.54-.09 3.81 1.27 5.08 3.23 1.76 2.83 3.52 5.66 5.28 8.6.29.49 1.17 0 .88-.49-1.76-2.83-3.61-5.66-5.28-8.6-.78-1.37-1.86-2.94-3.42-3.42-.97-.29-1.86-.29-2.94-.29-1.66.09-2.83-.59-4-1.66-.59-.49-1.28.19-.78.68zm17-27.75l-1.07-.69L79.3 16 77.54 3.09 63.56 8.18 46.37 44.62l-1.17-.48L62.59 7.2 78.71.95l1.96 15.34zm2.84 8.69L35.91 45.99l3.32-5.97L64.35 54.1l-3.32 5.96zM37.67 45.51l22.87 12.8 2.05-3.71-22.76-12.8-2.16 3.71zm38.5 37.23c-4.29-3.32-8.89-6.35-13.38-9.48-.68-.49-1.37-1.08-2.05-1.46-1.66-1.08-2.54-2.05-2.94-4.11-.68-3.42-.29-7.03-2.25-10.17-1.76-2.74-5.47-2.63-8.4-2.74-.31 0-.67-.05-1.06-.09l-.02-.1c-.49-1.38-1.37-2.36-2.45-3.2v-.02c0-.2.09-.29.09-.39l.09-.2s0-.09.09-.09h.09c.59-.59-.29-1.46-.88-.88-2.54-1.76-5.47-.59-6.35 2.34-.14.46-.15.88-.08 1.29-1.29-.46-2.58.02-3.54 1.36-.72 1-1.61 3.01-1.2 4.38-.24.19-.46.42-.66.71-1.27 1.81-.94 4.81.36 6.63l-.16.21c-.68.97-.88 2.25-.88 3.42 0 1.57.88 2.05 1.86 3.12.15.19.34.2.49.13v.07c-.29.97.09 2.05.97 3.03 1.57 1.76 4.69 3.03 7.23 3.03.39 0 .68-.09.97 0h.09l1.08-.49 4.13-8.17c.95.65 2.19.93 3.3.85.59 0 .59-.97 0-.97-.97.09-1.95-.09-2.74-.68-2.25-1.42-1.44-4.99-.77-7.09 1.39 0 2.74-1.03 3.69-1.9.49-.39-.2-1.08-.68-.68-.78.78-1.86 1.57-3.03 1.66-.36 0-.96-.16-1.06-.57.17-.29.37-.7.37-1.09 0-.49-.2-1.08-.09-1.46.09-.59-.78-.78-.97-.2-.09.39 0 .68 0 .97.08.52-.01.94-.2 1.3l-.06.09c-.29.45-.77.78-1.3 1.06-.89.53-2.04.82-3.05.72-1.66-.14-1.75-.7-1.88-1.69-.02-.41.08-.86.35-1.28.68-1.17 2.05-1.95 3.03-2.83.39-.29.68-.68.97-1.08.49-.49.97-.49 1.57-.39l5.28.29c1.95.09 3.61.68 4.69 2.44.97 1.46 1.27 3.52 1.46 5.18.29 2.63.09 5.77 2.15 7.82 1.27 1.17 2.94 2.15 4.29 3.12 4.29 3.03 8.69 5.97 12.9 9.18.54.37 1.03-.52.54-.9zM31.91 60.85c.88-2.05 3.81-1.46 5.08-.29.39.34.75.74 1.13 1.14.07.27.17.53.35.82.46.81 1.23 1.2 2.09 1.31.21.17.43.36.65.55.31.27.59.56.81.88.02.14.09.27.23.37.2.38.32.81.32 1.29 0 1.27-1.17 2.44-2.44 1.76l-.19-.08c-.58-.48-1.28-.85-1.87-1.2-1.37-.88-2.34-2.05-4-2.15-.64-.06-1.21.2-1.68.57-.92-1.35-1.1-3.57-.48-4.97zm-.3 9.58c-.09-.78.09-1.57.29-2.34.13-.38.31-.74.56-1.03a.54.54 0 0 0 .3-.31c.26-.22.56-.39.89-.51 1.08-.29 2.25.78 3.03 1.37 1.46 1.17 4.98 2.54 2.94 4.89-1.46 1.76-4.98-.09-6.06-1.46-.39-.49-1.08.2-.68.68.15.19.32.37.52.56l-.16.43-.07-.1c-.68-.72-1.46-1.12-1.56-2.18zm10.85 7.52l-.49.2c-2.25.29-5.57-.88-7.14-2.54-.39-.49-.88-1.17-.68-1.86l.28-.72c1.76 1.1 4.25 1.69 5.69.32.88-.78 1.17-1.86.97-3.03-.03-.2-.1-.38-.19-.56 1.53-.1 2.68-1.78 2.53-3.45l-.02-.16c.84.17 1.62-.09 2.26-.64-.17 1.56-.03 3.12.82 4.35l-4.03 8.09zm3.12-15.73c.16.19.36.32.58.45-.17 1.68-1.66 3.27-3.33 2.14-.26-.36-.57-.7-.88-1.01.67-.09 1.33-.29 1.88-.51.63-.28 1.26-.62 1.75-1.07zm-7.44-1.88l-.46-.46c-1.14-1.14-3.19-1.75-4.81-1.18-.2-.92.55-2.31.89-2.91.78-1.46 2.15-2.05 3.52-.88l.1.07.29.42c.57.85 1.51 1.97 2.54 2.31-.9.74-1.77 1.62-2.07 2.63zm5.29-5.55c-.97.39-1.66 1.66-2.44 2.25l-.09.08a.5.5 0 0 0-.29-.28c-.85-.26-1.9-1.33-2.48-2.43l-.06-.12c-.26-.51-.42-1.03-.38-1.46 0-.97.68-1.86 1.46-2.44 1.16-.87 2.41-.5 3.48.27l-.05.13c-.38.08-.59.66-.21.96 1.08.81 2.08 1.62 2.61 2.82-.56-.02-1.09.01-1.55.22zm8.6-6.85l-1.36-.87L77.15 1.92l1.27.79z"/><path fill="none" d="M68.35 18.35h.2"/><circle cx="38.35" cy="43.45" r="4.79" fill="#2E3192"/><path fill="#151741" d="M38.35 49.02c-3.03 0-5.47-2.44-5.47-5.47s2.44-5.47 5.47-5.47 5.47 2.44 5.47 5.47a5.446 5.446 0 0 1-5.47 5.47zm0-9.67c-2.34 0-4.2 1.86-4.2 4.2s1.86 4.2 4.2 4.2 4.2-1.86 4.2-4.2-1.86-4.2-4.2-4.2z"/><circle cx="62.1" cy="56.45" r="4.79" fill="#2E3192"/><path fill="#151741" d="M62.1 61.92c-3.03 0-5.47-2.44-5.47-5.47s2.44-5.47 5.47-5.47 5.47 2.44 5.47 5.47a5.452 5.452 0 0 1-5.47 5.47zm0-9.58c-2.34 0-4.2 1.86-4.2 4.2s1.86 4.2 4.2 4.2 4.2-1.86 4.2-4.2c-.09-2.34-1.95-4.2-4.2-4.2z"/><path fill="#F15A29" d="M38.35 47.65c-2.25 0-4.2-1.86-4.2-4.2s1.86-4.2 4.2-4.2c2.25 0 4.2 1.86 4.2 4.2 0 2.35-1.86 4.2-4.2 4.2zm0-7.03c-1.57 0-2.83 1.27-2.83 2.83 0 1.57 1.27 2.83 2.83 2.83 1.57 0 2.83-1.27 2.83-2.83.11-1.55-1.26-2.83-2.83-2.83zM62.1 60.65c-2.25 0-4.2-1.86-4.2-4.2 0-2.25 1.86-4.2 4.2-4.2 2.25 0 4.2 1.86 4.2 4.2-.09 2.35-1.95 4.2-4.2 4.2zm0-7.03c-1.57 0-2.83 1.27-2.83 2.83 0 1.57 1.27 2.83 2.83 2.83 1.57 0 2.83-1.27 2.83-2.83 0-1.57-1.26-2.83-2.83-2.83z"/></svg>