<svg width="100" height="100" viewBox="0 0 100 100" xmlns="http://www.w3.org/2000/svg"><path fill="#F15A29" d="M17.17 79.07l31.9 18.63 31.89-18.63V21.11l-31.9-3.28-31.89 3.28"/><path fill="none" d="M21.4 62.59h.3"/><path fill="#151841" d="M50 100L16 80.14V19.5L50 16l34 3.5v60.64L50 100zM19.04 78.44L50 96.53l30.96-18.09V22.19L50 19l-30.96 3.19v56.25z"/><g fill="none"><path d="M45.08 64.2l-1.12-.21-1.41.97c1.03.54 1.96.07 2.53-.76zM39.61 68.68c1.27.67 2.44-.5 2.44-1.76 0-.48-.13-.91-.32-1.29l-.06-.06-2.48 1.71-.4.88c.22.14.44.28.64.44.05.03.12.05.18.08zM32.44 71.81l.26.88.16-.43c-.15-.15-.29-.3-.42-.45zM33.03 71.02c1.08 1.37 4.6 3.23 6.06 1.46 1.24-1.42.43-2.49-.73-3.37l-.65 1.43-4.15-1.23-1.7.49.41 1.4c.11-.31.49-.51.76-.18z"/></g><path fill="#4751A2" d="M60.27 59.24c-1.49-.2-2.58-.49-3.97-.79l-3.28-.89c-2.17-.71-4.13-1.54-5.9-2.44-.6-.31-2.65.97-3.21.65-.78-.44-.05-2.49-.74-2.95-6.13-4.06-8.98-8.45-9.12-8.8l4.67-2.96c.1.1 6.06 10.28 21.75 12.55l-.2 5.63z"/><path fill="#FFF" d="M48.55 82.75c1.69 2.37 2.48 4.25 4.27 6.03l2.89 4.42 17.91-10.45-4.31-3.05c-2.28-1.68-9.81-6.34-11.94-8.39-2-2.33-2.06-6.53-2.36-8.02-.3-1.19-.77-5.4-2.58-5.43-.1-.2-.3-.4-.6-.59 0 0-1.59-1.18-2.28-.89-1.99-.59-4.17-.89-6.16-.49.4-1.68-.7-3.36-2.38-4.05-1.93-3.11-3.97-1.19-4.37-.89-.6.49-.89 1.09-1.29 1.68-.2.49-.1 1.58-.1 1.58h-.1c-.4-.1-.89 0-1.29 0-.79 0-1.49.2-2.09.69-.3.3-1.69 2.87-1.79 3.95 0 .3 0 .69.2.99-1.69 1.78-1.69 5.04.2 6.62-.2.1-.4.3-.5.59-.4.69-.7 1.48-.89 2.27 0 0-.1.69-.1.89-.5 1.19.93 3.27 1.89 1.78.79.79 1.99 1.38 3.18 1.68 1.69.69 3.48.89 4.37-1.09.5-1.09-.07-1.74.52-2.73 0 0 1.79-.8 1.99-1.4l.27-1.22.6-.99c.4 0 .98.17 1.28-.22 1.19-.73 1.54-2.35 1.54-2.74l-.34-.88c.4.2.79.3 1.19.3-.4.69-.7 1.48-.99 2.17-.3 1.09-.4 2.27 0 3.36-.1.3 1.34 1.72-3.58 9.58-.2.3-.7 1.48-.7 1.78.1.59 1.49 1.09 2.09 1.28 1.39.4 2.78.4 4.17.4.09.11 1.98 1.38 2.18 1.48z"/><path opacity=".6" fill="#818285" d="M47.36 65.96c-.4 3.26 2.88 4.64 1.49 5.93-6.06 5.43-3.18 10.47-7.65 8.8-5.86-2.27-12.02-7.02-8.54-14.43 2.68-5.73 2.98-16.5 9.44-13.64 2.28.99 1.79 2.67 1.59 2.77-.89.49-1.69-.2-2.48.59-1.29 1.19-5.26 4.55-4.27 6.32 1.59 2.96 3.71 1.33 6.46.1.7-.59 0-1.48 1.29-2.47.89-.69 2.48.79 3.28.4 2.47-1.49-.32 3.45-.61 5.63z"/><path fill="#4751A2" d="M44.38 69.32c.2-1.19.2-2.37.2-3.66 0-.49-2.28.4-2.38.49-.4 0-1.1-.42-1.2-.12.57 1.69-.02 2.78-.91 3.57-.3.2-1.6.06-1.5.36-.1 0 .73 1.24 0 2.73-1.76 3.09-6.32.48-6.32.48-.1-.4-1.49-.89-1.59-.69-.3 0-2.2 2.77-.3 6.62l1.29 1.28c0 .69 3.37 2.21 6.85.49 5.6-7.07 5.96-11.55 5.86-11.55z"/><path fill="#FFF" d="M75.27 7.46l-.1-.2v-.1c.1-.2.1-.49.1-.79.1-.59-.5-.89-.89-.69-.3 0-.5.1-.7.3-.4-.1-.89 0-1.39.4-3.87 2.87-4.67 3.26-8.64 6.03-.1 0-1.39.89-1.49.99-.4.2-1.29.79-1.59 1.28-2.38 4.35-4.67 8.6-6.65 13.04-1.09 2.37-2.48 4.45-3.67 6.82-1.29 2.57-2.68 5.04-3.97 7.51-.2.3-.4.69-.4 1.09-.1.2-.99.99-.99 1.19-.2 1.09-.79 1.48-.2 2.37 1.29 2.17 3.48 2.57 5.16 3.85.2.2 2.68-1.68 2.98-1.48.6.4 1.19.89 1.69 1.38.99.79 1.79 0 2.28-.99.1-.2 1.79-2.57 2.58-3.66.99-1.28 1.49-2.67 2.28-4.05 1.89-2.96 4.07-5.83 5.86-8.8l-.79.2c2.78-2.77 4.07-6.82 5.76-10.47.79-1.19 2.38-1.09 2.28-2.57 0-.1-2.58-1.88-.7-1.88.5-1.28.99-1.98.79-3.46-.1-1.19.4-2.17.2-3.36 0-.2.3-.4.2-.69l.3-1.78c.1-.69 0-1.09-.29-1.48z"/><path fill="#BDBEC0" d="M54.9 52.42l-2.68-.99-3.77-2.27L74.97 5.48l1.89 11.07L54.9 52.42z"/><path fill="#151841" d="M37.62 70.01c2.19 1.19 4.17-.99 3.97-3.16-.1-1.28-1.29-2.37-2.19-3.16l-1.69-.49-1.99-2.87c-1.59-1.58-4.97-2.17-6.46 0-1.39 1.98-.89 5.34.7 7.11.4.49.94-.87.7-.69-1.19-1.28-1.49-3.85-.79-5.43.89-2.07 3.87-1.48 5.16-.3L37.02 63c.7.59 1.49 1.19 2.28 1.88.79.69 1.39 1.48 1.39 2.47 0 1.28-1.19 2.47-2.48 1.78-.59-.21-1.08.58-.59.88z"/><path fill="#151841" d="M43.78 59.14c-.1.4 0 .69 0 .99.2 1.19-.6 1.98-1.59 2.47-.99.59-2.28.89-3.38.69-1.49-.2-2.09-1.68-1.29-2.96.7-1.19 2.09-1.98 3.08-2.87.4-.3.7-.69.99-1.09.4-.49.99-.49 1.59-.4l5.36.3c1.99.1 3.67.69 4.77 2.47.99 1.48 1.29 3.56 1.49 5.24.3 2.67.1 5.83 2.19 7.91 1.29 1.19 2.98 2.17 4.37 3.16 4.37 3.06 8.84 6.03 13.11 9.19.5.4.99-.49.5-.89-4.37-3.36-9.04-6.42-13.61-9.59-.7-.49-1.39-1.09-2.09-1.48-1.69-1.09-2.58-2.07-2.98-4.15-.7-3.46-.3-7.11-2.28-10.28-1.3-.9-5.56-2.67-8.54-2.77-1.09 0-2.68-.49-3.77 0-.99.4-1.69 1.68-2.48 2.27-1.69 1.38-3.87 3.16-2.58 5.53 1.09 1.88 3.77 1.48 5.46.79.89-.4 1.79-.89 2.28-1.68.2-.3.5-.79.5-1.28s-.2-1.09-.1-1.48c.09-.39-.9-.68-1-.09z"/><path fill="#151841" d="M43.48 61.71c0 .89.79 1.48 1.59 1.68 1.59.3 3.18-.89 4.27-1.88.5-.4-.2-1.09-.7-.69-.79.79-1.89 1.58-3.08 1.68-.4 0-1.09-.2-1.09-.69.01-.69-.99-.69-.99-.1z"/><path fill="#151841" d="M44.67 62.89c-.79 2.57-1.49 6.13.7 8.1.99.89 2.48 1.28 3.77 1.19.6 0 .6-.99 0-.99-.99.1-1.99-.1-2.78-.69-2.38-1.48-1.39-5.34-.7-7.41.11-.59-.89-.79-.99-.2zM39.71 80.09c1.49 1.28 2.88 1.68 4.87 1.68 2.58-.1 3.87 1.28 5.16 3.26 1.79 2.87 3.58 5.73 5.36 8.7.3.49 1.49.49 1.19 0-1.79-2.87-3.97-6.23-5.66-9.19-.79-1.38-1.89-2.96-3.48-3.46-.99-.3-1.89-.3-2.98-.3-1.49.1-2.58-.4-3.77-1.38-.49-.4-1.19.29-.69.69zM30.27 71.98c1.59 1.88 5.36 3.56 7.65 2.17.99-.59 1.49-1.78 1.39-2.96-.1-1.48-1.29-2.27-2.48-2.96-2.09-1.28-4.87-4.15-7.05-1.38-1.39 1.68-1.59 4.94-.2 6.62.4.49 1.09-.2.7-.69-.99-1.28-.7-3.56 0-4.94 1.29-2.47 3.67-.4 5.16.69.89.69 2.09 1.09 2.68 2.07.6 1.09 0 2.27-.99 2.87-.89.49-2.28.1-3.18-.2-1.19-.4-2.28-.99-2.98-1.98-.4-.49-1.09.2-.7.69zM39.32 57.45c-1.29-.4-3.69-2.95-3.49-4.34.2-.99.99-1.78 1.79-2.27 1.29-.79 1.48-.32 2.67.57.5.4.99-.49.5-.89-2.58-1.78-4.76-.87-5.85 2-.5 1.19.2 2.27.89 3.26.6.89 1.59 2.07 2.68 2.37.6.3.81-.7.81-.7z"/><path fill="#151841" d="M40.76 51.92c1.08 1.03 2.06 2.03 2.4 3.46.12.62 1.16.43 1.02-.19-.4-1.74-1.45-2.95-2.72-4.09-.56-.35-1.14.38-.7.82zM31.07 59.43c-.5-.89.4-2.57.79-3.26.79-1.48 2.19-2.07 3.58-.89.92 1.21 1.19-.3.7-.69-1.69-1.48-3.58-1.19-4.87.59-.79 1.09-1.79 3.36-1.09 4.74.29.6 1.19.11.89-.49zM40.78 66.18c2.38 1.68 4.4-.62 4.59-3.19 0-.59-.99-.59-.99 0-.1 1.78-1.69 3.56-3.48 2.27-.5-.29-.12.92-.12.92zM35.54 82.36c-1.07.21-2.19-.3-3.28-.89-5.07-2.67-3.08-8.2-3.08-8.2s.44-1.75 1.34-2.12c.35-.15 1.22 1.26.84 1.24-.42-.02-.99 1.38-.99 1.38-.2.59-1.39 4.55 2.48 6.52 1.39.79 2.78.89 3.97.49 2.19-.69 3.58-3.56 3.58-3.56s1.89-2.66 3.87-8.29l.99.78c-1.99 5.43-3.87 8.1-4.17 8.5-.19.39-1.16 3.3-5.55 4.15zM76.16 16.45L74.57 5.97l-10.83 5.04-19.26 36.07-1.19-.69 19.57-36.37L75.56 4l1.99 12.75-.1.2L55.5 52.81l-1.19-.69 21.85-35.67z"/><path fill="#151841" d="M49.47 49.82l-1.37-.8L74.28 4.55l1.37.8-26.18 44.47z"/><path fill="#151841" d="M60.86 59.93l-.7-.1c-1.49-.2-2.58-.49-3.97-.79l-3.28-.89c-13.3-4.25-19.16-13.34-19.36-13.73l-.4-.59 5.76-3.66.4.59c.6.99 6.56 10.08 21.26 12.15l.5.2-.21 6.82zM34.94 44.22c1.12 1.48 4.57 5.84 10.9 9.43 2.13 1.21 4.58 2.33 7.38 3.22l3.18.89c1.09.3 2.09.49 3.18.69l.3-4.15c-13.41-2.07-19.86-9.98-21.45-12.25l-3.49 2.17z"/><path fill="#FFF" d="M59.77 55.82c-6.46-.89-12.42-3.59-17.08-7.35-3.48-2.67-5.16-5.24-5.46-5.63l1.19-.79c.3.4 6.85 10.02 21.45 12.25l-.1 1.52z"/></svg>
